<svg width="606" height="405" viewBox="0 0 606 405" fill="none" xmlns="http://www.w3.org/2000/svg">
<path d="M1 396L605 396" stroke="#263238" stroke-linecap="round" stroke-linejoin="round"/>
<path d="M527.294 372.274C524.418 376.243 520.798 379.616 516.637 382.206C510.339 385.829 500.663 387.289 500.663 389.218C500.663 391.146 501.388 394.546 508.645 395.516C515.902 396.486 547.382 396.965 551.495 395.995C555.609 395.026 551.74 374.693 551.74 374.693C551.74 374.693 532.611 375.663 527.294 372.274Z" fill="white" stroke="#263238" stroke-linecap="round" stroke-linejoin="round"/>
<path d="M508.655 395.516C515.923 396.486 547.392 396.965 551.506 395.996C552.553 395.75 553.088 394.246 553.289 392.128C544.516 392.406 527.405 392.663 517.138 392.128C503.338 391.403 500.673 389.218 500.673 389.218C500.662 391.158 501.387 394.546 508.655 395.516Z" fill="white" stroke="#263238" stroke-linecap="round" stroke-linejoin="round"/>
<path d="M505.5 182.969C505.5 182.969 507.44 211.539 509.135 223.646C510.829 235.752 517.127 285.123 521.241 297.954C525.354 310.785 529.713 365.953 529.713 365.953C529.713 365.953 525.109 367.647 525.354 369.576C525.599 371.504 525.833 374.425 525.833 374.425C525.833 374.425 535.275 379.508 540.849 379.508C546.423 379.508 553.434 377.134 553.434 377.134C553.434 377.134 551.985 355.586 551.205 338.642C550.424 321.698 543.468 249.552 543.468 249.552L542.097 177.651L505.5 182.969Z" fill="#263238" stroke="#263238" stroke-linecap="round" stroke-linejoin="round"/>
<path d="M546.412 377.602C546.412 377.602 546.902 382.206 534.796 386.32C522.69 390.433 521.241 394.792 522.69 398.426C524.139 402.06 549.321 402.048 558.763 400.599C568.205 399.15 573.043 398.66 573.767 396.731C574.492 394.803 571.828 380.01 571.828 380.01L546.412 377.602Z" fill="white" stroke="#263238" stroke-linecap="round" stroke-linejoin="round"/>
<path d="M573.767 396.731C573.925 395.874 573.948 394.998 573.834 394.134C570.49 394.747 566.031 395.583 560.212 396.731C547.281 399.24 530.226 397.757 522.311 396.821C522.377 397.371 522.516 397.911 522.723 398.426C524.173 402.049 549.355 402.049 558.796 400.6C568.238 399.15 573.043 398.66 573.767 396.731Z" fill="white" stroke="#263238" stroke-linecap="round" stroke-linejoin="round"/>
<path d="M514.229 189.992L521.252 198.464C521.252 198.464 526.569 257.043 528.509 272.304C530.448 287.565 539.656 342.02 539.656 342.02L545.442 371.07L543.993 374.693C543.63 376.289 543.63 377.946 543.993 379.542C544.238 380.512 543.747 381.236 552.91 382.686C559.016 383.528 565.209 383.528 571.315 382.686C572.115 380.516 572.522 378.221 572.519 375.908C572.639 372.743 572.395 369.575 571.794 366.466C571.07 362.598 571.794 342.02 566.477 319.993C561.16 297.965 557.269 272.538 557.269 264.066C557.269 255.594 557.514 205.966 557.76 204.985C558.005 204.004 562.598 200.861 562.843 191.909C563.088 182.958 561.873 179.558 561.873 179.558H514.697" fill="#263238"/>
<path d="M514.229 189.992L521.252 198.464C521.252 198.464 526.569 257.043 528.509 272.304C530.448 287.565 539.656 342.02 539.656 342.02L545.442 371.07L543.993 374.693C543.63 376.289 543.63 377.946 543.993 379.542C544.238 380.512 543.747 381.236 552.91 382.686C559.016 383.528 565.209 383.528 571.315 382.686C572.115 380.516 572.522 378.221 572.519 375.908C572.639 372.743 572.395 369.575 571.794 366.466C571.07 362.598 571.794 342.02 566.477 319.993C561.16 297.965 557.269 272.538 557.269 264.066C557.269 255.594 557.514 205.966 557.76 204.985C558.005 204.004 562.598 200.861 562.843 191.909C563.088 182.958 561.873 179.558 561.873 179.558H514.697" stroke="#263238" stroke-linecap="round" stroke-linejoin="round"/>
<path d="M513.973 70.1684C513.973 70.1684 503.082 97.3346 502.358 115.17C501.633 133.006 502.358 158.5 502.603 159.47C502.848 160.44 499.939 180.773 501.633 183.916C501.999 184.781 502.666 185.483 503.511 185.893C504.356 186.303 505.32 186.393 506.226 186.146C506.226 186.146 559.243 186.87 561.662 186.38C564.081 185.889 564.571 182.757 565.006 180.327C565.441 177.897 563.557 149.114 563.557 144.744C563.557 140.375 565.006 91.7275 558.953 78.1722C552.9 64.617 537.895 53.4808 535.956 53.0014C534.016 52.5221 518.332 57.8171 513.973 70.1684Z" fill="#6EAA78" stroke="#263238" stroke-linecap="round" stroke-linejoin="round"/>
<path d="M487.475 16.8506C487.475 16.8506 485.625 25.7685 486.171 26.4819C486.717 27.1953 488.579 30.7402 488.579 30.7402L483.763 43.8941L489.515 45.5551L497.664 59.6342L510.272 56.0894L513.984 72.9442C513.984 72.9442 513.426 79.053 516.213 77.4032C519 75.7533 521.397 73.8806 526.77 64.6171C532.143 55.3536 537.505 53.8822 537.505 53.8822C537.505 53.8822 530.816 44.9643 529.546 42.2109C528.275 39.4575 528.988 34.809 526.77 23.5056C524.551 12.2021 516.949 9.80542 506.582 9.80542C496.215 9.80542 488.423 11.8454 487.475 16.8506Z" fill="white" stroke="#263238" stroke-linecap="round" stroke-linejoin="round"/>
<path d="M492.681 6.29377C492.681 6.29377 484.343 8.14423 482.86 9.81634C481.378 11.4884 483.607 16.6608 485.647 17.7756C487.687 18.8903 500.852 15.9586 500.64 16.8503C500.429 17.7421 498.411 20.1946 500.64 21.1086C502.87 22.0227 511.788 24.4529 511.788 24.4529L509.558 41.4972C509.558 41.4972 498.634 40.9398 496.037 41.4972C493.439 42.0546 489.56 45.566 489.56 45.566C489.56 45.566 494.342 60.1914 495.279 61.6628C496.215 63.1343 498.79 62.7776 501.755 61.6628C504.72 60.5481 516.76 51.842 518.053 50.7273C519.346 49.6125 516.57 38.6881 516.57 38.6881C516.57 38.6881 516.938 29.6141 516.938 27.7636C516.938 25.9132 519.346 25.9132 521.018 27.2063C522.69 28.4994 523.247 33.5045 522.868 35.355C522.403 36.7813 521.573 38.0611 520.461 39.0671C520.461 39.0671 527.494 44.429 528.977 44.429C529.437 44.4707 529.897 44.3449 530.272 44.0745C530.647 43.8041 530.911 43.4075 531.017 42.9575C531.207 42.4002 530.828 26.4705 530.828 26.4705C530.828 26.4705 531.207 11.2878 529.167 6.47212C527.127 1.65645 517.495 0.35221 511.387 1.27744C505.278 2.20268 492.681 6.29377 492.681 6.29377Z" fill="#263238" stroke="#263238" stroke-linecap="round" stroke-linejoin="round"/>
<path d="M494.164 31.487C494.343 32.5014 494.042 33.3932 493.484 33.4935C492.927 33.5938 492.369 32.8469 492.158 31.8437C491.946 30.8404 492.291 29.9375 492.849 29.8483C493.406 29.7591 493.975 30.4502 494.164 31.487Z" stroke="#263238" stroke-linecap="round" stroke-linejoin="round"/>
<path d="M490.084 27.7752C490.74 27.0642 491.643 26.6303 492.608 26.562C493.574 26.4936 494.529 26.796 495.279 27.4074" stroke="#263238" stroke-linecap="round" stroke-linejoin="round"/>
<path d="M495.457 48.1526C495.457 48.1526 499.715 46.8483 501.031 43.8943" stroke="white" stroke-linecap="round" stroke-linejoin="round"/>
<path d="M545.207 131.892C545.207 131.892 534.796 178.131 533.826 180.55C532.856 182.969 528.72 192.656 528.72 192.656L540.102 202.577C540.102 202.577 541.796 199.913 543.245 193.659C544.147 189.595 544.714 185.464 544.94 181.308C544.94 181.308 561.404 146.216 564.057 141.367C566.711 136.518 564.793 132.895 564.793 131.691C564.793 130.487 545.207 131.892 545.207 131.892Z" fill="white" stroke="#263238" stroke-linecap="round" stroke-linejoin="round"/>
<path d="M537.694 79.1197C537.694 79.1197 535.041 87.5917 535.275 91.7051C535.509 95.8185 541.083 120.521 541.083 120.521C541.083 120.521 538.185 123.185 539.155 124.144C540.055 125.188 540.864 126.306 541.574 127.488C541.574 127.488 539.344 129.183 541.574 131.613C543.803 134.043 542.778 135.236 552.944 134.957C563.11 134.678 566.265 134.221 567.436 132.293C568.606 130.364 570.1 128.949 568.896 126.964L567.737 125.114C568.494 123.62 568.83 121.947 568.706 120.276C568.461 117.612 566.767 114.468 566.767 113.253C566.767 112.038 566.533 95.5844 563.423 82.7538C560.312 69.9231 546.969 62.9003 544.539 62.6885" fill="#6EAA78"/>
<path d="M537.694 79.1197C537.694 79.1197 535.041 87.5917 535.275 91.7051C535.509 95.8185 541.083 120.521 541.083 120.521C541.083 120.521 538.185 123.185 539.155 124.144C540.055 125.188 540.864 126.306 541.574 127.488C541.574 127.488 539.344 129.183 541.574 131.613C543.803 134.043 542.778 135.236 552.944 134.957C563.11 134.678 566.265 134.221 567.436 132.293C568.606 130.364 570.1 128.949 568.896 126.964L567.737 125.114C568.494 123.62 568.83 121.947 568.706 120.276C568.461 117.612 566.767 114.468 566.767 113.253C566.767 112.038 566.533 95.5844 563.423 82.7538C560.312 69.9231 546.969 62.9003 544.539 62.6885" stroke="#263238" stroke-linecap="round" stroke-linejoin="round"/>
<path d="M395.052 201.15C395.052 201.15 395.443 216.333 395.443 216.901C395.443 217.47 393.536 228.294 394.484 233.422C395.431 238.549 403.034 245.572 403.034 245.572L403.792 199.868L395.052 201.15Z" fill="white" stroke="#263238" stroke-linecap="round" stroke-linejoin="round"/>
<path d="M417.96 96.4421C417.96 96.4421 395.665 123.597 394.996 126.607C394.327 129.617 388.497 203.178 388.497 203.881C388.497 204.583 397.549 208.061 401.261 208.061H406.589C406.589 208.061 400.324 157.474 403.111 138.68C405.898 119.885 412.631 114.545 417.737 107.355C422.842 100.165 422.82 94.5916 417.96 96.4421Z" fill="#6EAA78" stroke="#263238" stroke-linecap="round" stroke-linejoin="round"/>
<path d="M419.131 373.5C419.131 373.5 413.323 381.849 410.079 383.711C406.835 385.572 396.156 389.976 395.688 391.135C395.22 392.294 395.231 395.081 396.156 395.315C397.081 395.549 413.089 395.081 422.843 395.081C432.597 395.081 439.085 395.538 440.244 394.379C441.403 393.219 440.478 378.137 439.308 375.127L438.193 372.106L420.792 371.638L419.131 373.5Z" fill="#263238" stroke="#263238" stroke-linecap="round" stroke-linejoin="round"/>
<path d="M440.656 392.985H395.387C395.387 394.1 395.587 395.215 396.156 395.315C397.081 395.538 413.089 395.081 422.843 395.081C432.597 395.081 439.084 395.538 440.244 394.379C440.496 393.956 440.638 393.477 440.656 392.985Z" fill="white" stroke="#263238" stroke-linecap="round" stroke-linejoin="round"/>
<path d="M396.847 198.541L399.868 212.699C399.868 212.699 399.4 249.596 403.112 265.604C405.406 275.972 406.649 286.545 406.824 297.162C406.824 297.162 411.93 322.456 413.791 329.646C415.653 336.836 417.738 367.235 417.738 367.235C417.738 367.235 415.876 368.628 416.11 369.553C416.344 370.479 417.035 376.242 417.035 376.242C417.035 376.242 417.961 376.242 425.396 376.933C429.166 377.372 432.97 377.451 436.755 377.167L439.308 375.083C439.45 372.61 439.45 370.131 439.308 367.658C439.085 363.478 437.691 360.223 437.691 357.447C437.691 354.672 436.064 293.406 436.064 293.406L436.755 197.337L396.156 195.019L396.847 198.541Z" fill="white" stroke="#263238" stroke-linecap="round" stroke-linejoin="round"/>
<path d="M441.861 373.032C440.736 375.794 439.339 378.438 437.692 380.924C435.596 383.711 427.013 388.582 423.535 390.433C422.509 391.025 421.651 391.87 421.043 392.886C420.434 393.902 420.095 395.057 420.057 396.24C420.057 396.24 427.938 396.475 453.934 395.538L465.081 395.081C465.207 392.912 465.129 390.736 464.847 388.582C464.39 385.104 463.922 376.32 463.922 376.32L441.861 373.032Z" fill="#263238" stroke="#263238" stroke-linecap="round" stroke-linejoin="round"/>
<path d="M453.934 395.538L465.081 395.081C465.154 393.83 465.154 392.575 465.081 391.324L420.67 393.554C420.303 394.392 420.095 395.292 420.057 396.207C420.057 396.207 427.938 396.474 453.934 395.538Z" fill="white" stroke="#263238" stroke-linecap="round" stroke-linejoin="round"/>
<path d="M411.674 215.017L420.491 223.601C420.491 223.601 423.981 257.043 427.459 276.74C430.937 296.438 439.988 347.281 439.988 351.428C439.988 355.575 441.839 366.287 441.839 366.287C441.839 366.287 441.148 366.51 440.913 368.138C440.679 369.765 440.657 376.019 440.657 376.019C444.112 377.641 447.791 378.734 451.57 379.263C455.899 379.493 460.239 379.418 464.557 379.04C464.992 376.657 465.305 374.253 465.493 371.839C465.493 369.988 464.791 361.862 465.259 358.618C465.728 355.374 468.971 338.887 468.046 320.795C467.121 302.702 461.547 274.622 461.547 274.622L463.398 233.778C465.604 226.413 466.391 218.696 465.716 211.038C464.602 198.508 461.781 193.636 461.781 193.636L407.482 193.871" fill="white"/>
<path d="M411.674 215.017L420.491 223.601C420.491 223.601 423.981 257.043 427.459 276.74C430.937 296.438 439.988 347.281 439.988 351.428C439.988 355.575 441.839 366.287 441.839 366.287C441.839 366.287 441.148 366.51 440.913 368.138C440.679 369.765 440.657 376.019 440.657 376.019C444.112 377.641 447.791 378.734 451.57 379.263C455.899 379.493 460.239 379.418 464.557 379.04C464.992 376.657 465.305 374.253 465.493 371.839C465.493 369.988 464.791 361.862 465.259 358.618C465.728 355.374 468.971 338.887 468.046 320.795C467.121 302.702 461.547 274.622 461.547 274.622L463.398 233.778C465.604 226.413 466.391 218.696 465.716 211.038C464.602 198.508 461.781 193.636 461.781 193.636L407.482 193.871" stroke="#263238" stroke-linecap="round" stroke-linejoin="round"/>
<path d="M417.96 96.4426C417.96 96.4426 399.41 119.417 397.549 129.662C395.687 139.906 393.09 197.661 393.09 199.968C393.09 202.276 396.802 203.212 401.216 203.915C407.513 204.854 413.881 205.227 420.245 205.029C427.892 204.795 435.784 202.242 436.966 200.849C438.148 199.456 435.851 158.389 439.753 135.882C443.654 113.375 447.645 101.325 445.327 96.8662C443.008 92.4072 425.852 91.7607 417.96 96.4426Z" fill="#263238" stroke="#263238" stroke-linecap="round" stroke-linejoin="round"/>
<path d="M436.755 95.283C436.755 95.283 422.82 119.629 420.29 136.818C417.76 154.007 419.588 211.305 419.588 211.305C419.588 211.305 419.588 213.624 430.267 213.39C440.946 213.155 455.326 210.38 459.25 208.284C463.174 206.188 467.6 204.572 467.834 203.413C468.068 202.253 465.738 198.084 465.738 194.595C465.738 191.106 464.122 176.759 464.122 176.759C464.122 176.759 463.653 113.42 460.175 104.368C456.697 95.3164 443.02 92.7302 436.755 95.283Z" fill="#6EAA78" stroke="#263238" stroke-linecap="round" stroke-linejoin="round"/>
<path d="M402.878 51.8974C402.878 51.8974 401.027 59.3215 401.763 61.6402C402.388 63.5047 402.627 65.477 402.465 67.4368C402.231 68.3732 396.892 74.4039 398.006 75.5633C399.25 76.6602 400.569 77.6696 401.953 78.5842C401.953 78.5842 403.067 90.8463 405.208 91.5709C407.348 92.2955 414.95 90.8798 414.95 90.8798C414.95 90.8798 417.503 100.389 417.503 102.027C417.503 103.666 409.611 121.056 414.025 119.662C418.44 118.269 436.064 92.7414 436.064 92.7414C436.064 92.7414 435.829 60.0238 430.724 51.6744C425.618 43.325 410.313 44.7073 402.878 51.8974Z" fill="white" stroke="#263238" stroke-linecap="round" stroke-linejoin="round"/>
<path d="M408.217 67.3252C408.217 68.5402 407.749 69.5547 407.181 69.5547C406.612 69.5547 406.133 68.5625 406.133 67.3252C406.133 66.0878 406.601 65.0957 407.181 65.0957C407.76 65.0957 408.217 66.1213 408.217 67.3252Z" fill="#263238"/>
<path d="M404.74 62.5654C405.09 62.2525 405.504 62.0199 405.953 61.8841C406.402 61.7484 406.875 61.7127 407.34 61.7797C407.804 61.8466 408.248 62.0146 408.641 62.2717C409.033 62.5287 409.365 62.8687 409.612 63.2677" stroke="#263238" stroke-linecap="round" stroke-linejoin="round"/>
<path d="M405.208 80.4346C407.598 80.2392 409.899 79.4415 411.896 78.116" stroke="#263238" stroke-linecap="round" stroke-linejoin="round"/>
<path d="M411.239 34.9089C411.239 34.9089 399.868 39.3679 398.709 43.4924C397.55 47.6169 396.613 52.5441 396.613 52.5441L406.824 54.6398L415.642 55.3309C415.642 55.3309 415.408 57.4155 417.961 62.2869C419.332 64.8523 420.571 67.4866 421.673 70.1792C421.673 70.1792 420.981 83.8682 420.29 87.8144C419.708 90.7249 418.93 93.5926 417.961 96.3979C417.961 96.3979 423.768 97.5126 434.436 98.7277C445.104 99.9428 458.336 97.3343 458.336 97.3343C458.336 97.3343 461.123 92.6858 460.889 83.4112C460.655 74.1366 456.252 60.9046 455.784 55.5427C455.315 50.1808 456.72 46.491 448.359 39.9921C439.999 33.4932 425.162 31.2414 411.239 34.9089Z" fill="#263238" stroke="#263238" stroke-linecap="round" stroke-linejoin="round"/>
<path d="M390.683 172.702C390.097 172.706 389.512 172.665 388.933 172.579L389.457 169.235C390.572 169.402 393.091 169.391 393.86 168.298C394.908 166.805 394.083 158.522 393.024 157.151C392.623 156.683 390.716 156.683 389.345 157.006L388.576 153.74C389.401 153.55 393.615 152.703 395.566 154.977C397.516 157.251 398.687 167.239 396.591 170.249C395.153 172.323 392.478 172.702 390.683 172.702Z" fill="white" stroke="#263238" stroke-linecap="round" stroke-linejoin="round"/>
<path d="M390.816 150.741H370.862V176.726H390.816V150.741Z" fill="white" stroke="#263238" stroke-linecap="round" stroke-linejoin="round"/>
<path d="M443.019 109.909C443.019 109.909 439.084 118.726 438.85 123.129C438.616 127.533 443.721 157.53 443.721 157.53C443.721 157.53 427 161.699 422.374 161.699C419.814 161.721 417.255 161.568 414.716 161.242C414.716 161.242 408.451 157.062 406.589 155.903C404.728 154.743 403.346 155.435 400.102 152.882C396.858 150.329 394.294 150.106 394.06 151.5C393.826 152.893 393.837 153.818 396.156 154.978C397.647 155.745 399.045 156.68 400.325 157.764C400.325 157.764 394.751 158.879 393.135 159.158C391.518 159.436 391.05 161.699 392.02 162.87C392.99 164.04 394.573 165.646 394.573 165.646C394.573 165.646 394.339 171.219 397.359 172.334C400.38 173.449 408.73 173.259 408.73 173.259C408.73 173.259 417.547 173.962 418.941 173.962C420.334 173.962 437.969 178.365 450.499 178.365C463.029 178.365 466.741 179.067 467.432 176.28C468.123 173.493 466.964 132.426 464.645 119.897C462.326 107.367 456.987 100.4 453.275 99.9429" fill="#6EAA78"/>
<path d="M443.019 109.909C443.019 109.909 439.084 118.726 438.85 123.129C438.616 127.533 443.721 157.53 443.721 157.53C443.721 157.53 427 161.699 422.374 161.699C419.814 161.721 417.255 161.568 414.716 161.242C414.716 161.242 408.451 157.062 406.589 155.903C404.728 154.743 403.346 155.435 400.102 152.882C396.858 150.329 394.294 150.106 394.06 151.5C393.826 152.893 393.837 153.818 396.156 154.978C397.647 155.745 399.045 156.68 400.325 157.764C400.325 157.764 394.751 158.879 393.135 159.158C391.518 159.436 391.05 161.699 392.02 162.87C392.99 164.04 394.573 165.646 394.573 165.646C394.573 165.646 394.339 171.219 397.359 172.334C400.38 173.449 408.73 173.259 408.73 173.259C408.73 173.259 417.547 173.962 418.941 173.962C420.334 173.962 437.969 178.365 450.499 178.365C463.029 178.365 466.741 179.067 467.432 176.28C468.123 173.493 466.964 132.426 464.645 119.897C462.326 107.367 456.987 100.4 453.275 99.9429" stroke="#263238" stroke-linecap="round" stroke-linejoin="round"/>
<path d="M430.088 160.54C427.55 161.112 424.971 161.485 422.374 161.655C419.814 161.676 417.255 161.523 414.716 161.198C414.716 161.198 408.451 157.017 406.589 155.858C404.728 154.699 403.346 155.39 400.102 152.837C396.858 150.284 394.294 150.061 394.06 151.455C393.826 152.848 393.837 153.774 396.156 154.933C397.647 155.701 399.045 156.636 400.325 157.72C400.325 157.72 394.751 158.834 393.135 159.113C391.518 159.392 391.05 161.655 392.02 162.825C392.99 163.996 394.573 165.601 394.573 165.601C394.573 165.601 394.339 171.175 397.359 172.289C400.38 173.404 408.73 173.215 408.73 173.215C408.73 173.215 417.547 173.917 418.941 173.917C419.677 173.917 424.916 175.143 431.548 176.291C429.107 170.706 429.419 164.609 430.088 160.54Z" fill="white" stroke="#263238" stroke-linecap="round" stroke-linejoin="round"/>
<path d="M226.07 378.661C225.19 383.572 223.691 388.351 221.611 392.885C218.267 399.986 218.055 402.662 225.613 403.765C233.171 404.869 236.939 403.096 238.499 399.105C240.06 395.115 240.729 385.55 241.164 383.332C241.598 381.114 235.634 374.213 226.07 378.661Z" fill="white" stroke="#263238" stroke-linecap="round" stroke-linejoin="round"/>
<path d="M238.521 395.772C236.961 398.66 234.965 402.216 226.961 401.547C222.424 401.168 220.529 399.206 219.749 397.589C218.723 401.268 220.05 402.951 225.635 403.765C233.182 404.88 236.961 403.096 238.521 399.105C239.147 397.227 239.595 395.294 239.859 393.331C239.458 394.044 239.001 394.869 238.521 395.772Z" fill="white" stroke="#263238" stroke-linecap="round" stroke-linejoin="round"/>
<path d="M288.953 376.666C292.459 379.78 296.431 382.326 300.724 384.213C307.836 387.323 312.986 389.106 312.986 390.656C312.729 392.221 312.201 393.73 311.426 395.115C306.503 396.482 301.429 397.23 296.321 397.344C288.763 397.344 282.543 396.675 276.991 396.452C271.44 396.229 264.986 396.898 264.551 392.908C264.116 388.917 264.986 381.348 264.986 381.348C264.986 381.348 284.494 375.328 288.953 376.666Z" fill="white" stroke="#263238" stroke-linecap="round" stroke-linejoin="round"/>
<path d="M311.392 395.103C311.392 395.103 311.782 394.379 312.172 393.465C308.537 394.121 304.861 394.519 301.17 394.658C293.177 394.881 290.29 393.766 281.171 392.662C275.614 392.057 270.007 392.057 264.45 392.662C264.45 392.718 264.45 392.785 264.45 392.852C264.885 396.842 271.339 396.196 276.891 396.397C282.442 396.597 288.662 397.288 296.22 397.288C301.349 397.195 306.445 396.461 311.392 395.103Z" fill="white" stroke="#263238" stroke-linecap="round" stroke-linejoin="round"/>
<path d="M290.301 202.432C290.301 202.432 291.416 236.042 289.387 265.76C287.358 295.479 284.583 339.144 285.731 345.319C286.879 351.495 287.838 371.382 287.838 371.382L289.9 373.901L291.015 378.015C291.015 378.015 289.9 379.129 282.788 381.214C275.676 383.299 265.409 383.733 265.409 383.733C265.409 383.733 264.952 376.866 264.952 375.038C264.952 373.21 265.409 369.097 265.409 369.097C265.409 369.097 261.53 320.862 262.21 311.03C262.89 301.198 261.53 261.87 261.53 261.87L260.415 247.702C260.415 247.702 251.274 284.488 250.817 289.081C250.36 293.674 243.95 340.292 243.95 343.034C243.95 345.776 241.208 371.839 241.208 371.839C242.155 373.372 242.777 375.083 243.036 376.866C243.27 379.386 241.442 385.784 241.442 385.784C239.44 384.476 237.176 383.62 234.809 383.276L225.435 382.585C225.435 382.585 223.606 369.32 223.606 366.577V352.409C223.606 352.409 222.692 319.714 224.297 307.14C225.903 294.565 224.977 255.705 224.063 239.241C223.149 222.776 220.864 208.151 222.469 204.494C223.552 201.83 224.391 199.072 224.977 196.256C236.663 198.686 248.505 200.292 260.415 201.061C279.366 202.176 288.997 198.776 288.997 198.776L290.301 202.432Z" fill="#263238" stroke="#263238" stroke-linecap="round" stroke-linejoin="round"/>
<path d="M260.348 247.702L265.398 232.909" stroke="white" stroke-linecap="round" stroke-linejoin="round"/>
<path d="M259.969 208.53C259.969 208.53 264.06 208.964 272.889 207.671C281.717 206.378 285.363 204.439 285.363 204.439C285.363 204.439 279.555 92.3293 279.555 91.248C279.675 89.5016 279.116 87.7763 277.994 86.4324C276.872 85.0885 275.275 84.2298 273.535 84.0356C267.505 82.9209 259.545 85.5405 257.817 92.2178C256.09 98.8951 259.969 208.53 259.969 208.53Z" fill="white" stroke="#263238" stroke-linecap="round" stroke-linejoin="round"/>
<path d="M285.117 214.382C285.117 214.382 284.471 221.071 285.117 221.483C285.764 221.895 292.007 219.555 296.098 217.827C300.189 216.099 298.829 216.79 300.144 212.9C301.46 209.009 301.047 209.009 296.956 210.079C292.865 211.149 285.117 214.382 285.117 214.382Z" fill="white" stroke="#263238" stroke-linecap="round" stroke-linejoin="round"/>
<path d="M276.579 104.648L281.394 169.537L283.891 216.356C283.891 216.356 284.716 217.849 286.043 217.526C287.369 217.203 298.818 214.539 300.144 212.878C301.471 211.217 301.972 206.903 301.972 206.189C301.972 205.476 298.494 164.699 298.494 164.699L307.412 152.749C307.412 152.749 300.601 115.416 298.94 107.947C297.279 100.478 297.29 96.4988 294.626 93.1769C291.962 89.855 276.701 82.3862 276.701 82.3862L276.579 104.648Z" fill="#6EAA78" stroke="#263238" stroke-linecap="round" stroke-linejoin="round"/>
<path d="M274.762 78.384C274.762 78.384 280.904 84.8495 280.737 88.1714C280.569 91.4934 276.579 104.603 276.579 104.603L274.093 85.3512C274.093 85.3512 272.766 80.6135 274.762 78.384Z" fill="white" stroke="#263238" stroke-linecap="round" stroke-linejoin="round"/>
<path d="M254.529 64.6059L254.017 78.1835C254.017 78.1835 258.476 89.3308 261.318 92.6751C264.161 96.0193 269.277 101.593 269.277 101.593L274.929 89.8102L275.085 83.3335L277.582 77.1913C273.652 76.2908 269.968 74.5363 266.792 72.0524C261.485 67.9056 256.001 62.9227 255.51 62.7555C255.02 62.5882 254.529 64.6059 254.529 64.6059Z" fill="white" stroke="#263238" stroke-linecap="round" stroke-linejoin="round"/>
<path d="M257.873 69.4661C257.873 69.4661 259.311 74.7388 268.418 80.9702C270.475 82.4245 272.727 83.5804 275.107 84.4036V83.378L277.604 77.2358C273.674 76.3353 269.99 74.5808 266.813 72.0968C265.464 71.0378 264.116 69.9342 262.822 68.8752L261.084 68.3513L257.873 69.4661Z" fill="#263238" stroke="#263238" stroke-linecap="round" stroke-linejoin="round"/>
<path d="M291.315 35.578C291.315 35.578 290.725 49.4899 290.323 54.2721C289.922 59.0544 289.721 63.1901 287.537 67.5933C285.352 71.9965 282.966 78.7407 279.187 79.3203C274.391 80.0524 269.488 79.141 265.275 76.7341C260.694 73.9473 254.73 66.1999 254.529 64.6058C254.437 63.7231 254.239 62.8547 253.938 62.0196C253.938 62.0196 251.553 47.7063 251.553 41.3412C251.553 34.976 252.144 29.6141 262.288 26.0358C272.432 22.4575 291.315 35.578 291.315 35.578Z" fill="white" stroke="#263238" stroke-linecap="round" stroke-linejoin="round"/>
<path d="M258.108 35.5781C258.108 35.5781 264.272 37.1722 261.095 39.9479C257.918 42.7236 254.931 45.9117 254.931 45.9117C254.931 45.9117 255.923 49.8913 255.533 51.4854C255.143 53.0795 253.147 54.2723 251.754 52.6782C250.36 51.0841 249.168 49.8913 249.168 49.8913C249.168 49.8913 245.389 37.9636 244.597 34.586C243.806 31.2083 243.003 27.6188 247.941 24.2412C249.84 22.8463 251.833 21.5836 253.905 20.4622C259.9 16.9132 266.85 15.316 273.792 15.8918C285.319 16.8839 290.513 23.4497 290.513 23.4497C290.513 23.4497 299.654 21.0642 299.063 27.6189C298.473 34.1735 291.907 38.5544 288.328 38.1643C284.75 37.7741 265.855 28.2208 262.076 29.8149C258.297 31.409 255.51 34.9761 258.108 35.5781Z" fill="#263238" stroke="#263238" stroke-linecap="round" stroke-linejoin="round"/>
<path d="M280.982 50.2925C280.982 50.2925 283.758 59.2104 282.966 60.0353C282.175 60.8602 278.987 61.4287 278.987 61.4287" stroke="#263238" stroke-linecap="round" stroke-linejoin="round"/>
<path d="M282.766 65.2077C282.766 65.2077 276.4 66.9912 271.618 64.0149" stroke="#263238" stroke-linecap="round" stroke-linejoin="round"/>
<path d="M278.429 44.7187C278.429 44.7187 270.046 43.9272 265.665 43.9272C261.284 43.9272 259.701 43.5259 259.501 44.7187C259.3 45.9115 258.91 52.2766 262.288 54.4615C265.665 56.6464 271.83 55.6543 274.416 55.0635C277.002 54.4727 277.76 50.0917 277.994 48.6983C278.228 47.3049 278.429 44.7187 278.429 44.7187Z" stroke="#263238" stroke-linecap="round" stroke-linejoin="round"/>
<path d="M280.893 44.7412C280.893 44.7412 287.581 44.3176 291.026 44.496C294.47 44.6743 295.752 44.3622 295.908 45.5215C296.064 46.6809 296.387 52.8231 293.679 54.785C290.97 56.747 286.11 55.543 284.047 54.863C281.985 54.183 281.372 49.9359 281.216 48.5871C281.06 47.2382 280.893 44.7412 280.893 44.7412Z" stroke="#263238" stroke-linecap="round" stroke-linejoin="round"/>
<path d="M259.501 44.719L249.167 49.8914" stroke="#263238" stroke-linecap="round" stroke-linejoin="round"/>
<path d="M278.429 44.719H281.105" stroke="#263238" stroke-linecap="round" stroke-linejoin="round"/>
<path d="M254.93 54.8628C254.93 54.8628 250.36 49.0996 247.127 49.8911C243.894 50.6825 246.737 59.0431 249.357 60.4253C251.976 61.8076 254.718 60.0352 254.718 60.0352" fill="white"/>
<path d="M254.93 54.8628C254.93 54.8628 250.36 49.0996 247.127 49.8911C243.894 50.6825 246.737 59.0431 249.357 60.4253C251.976 61.8076 254.718 60.0352 254.718 60.0352" stroke="#263238" stroke-linecap="round" stroke-linejoin="round"/>
<path d="M270.937 50.0473C270.937 51.162 270.458 52.1207 269.823 52.1207C269.187 52.1207 268.708 51.1955 268.708 50.0473C268.708 48.8991 269.187 47.9739 269.823 47.9739C270.458 47.9739 270.937 48.8991 270.937 50.0473Z" fill="#263238"/>
<path d="M285.798 52.1207C286.395 52.1207 286.879 51.1924 286.879 50.0473C286.879 48.9022 286.395 47.9739 285.798 47.9739C285.2 47.9739 284.716 48.9022 284.716 50.0473C284.716 51.1924 285.2 52.1207 285.798 52.1207Z" fill="#263238"/>
<path d="M265.129 42.7125C268.468 41.8752 271.973 41.9871 275.251 43.0357" stroke="#263238" stroke-linecap="round" stroke-linejoin="round"/>
<path d="M283.378 43.1581C285.3 42.2777 287.456 42.0468 289.521 42.5004" stroke="#263238" stroke-linecap="round" stroke-linejoin="round"/>
<path d="M265.297 219.075L265.531 223.166C265.531 223.166 256.067 225.095 242.935 222.051C229.804 219.008 217.976 210.904 216.683 209.143C215.39 207.381 217.798 200.102 217.798 200.102C217.798 200.102 216.07 199.679 219.091 200.749C222.112 201.819 233.94 212.153 250.07 214.951C266.2 217.749 265.542 216.712 265.297 219.075Z" fill="white" stroke="#263238" stroke-linecap="round" stroke-linejoin="round"/>
<path d="M253.013 74.0256C253.013 74.0256 261.151 85.3179 264.963 90.4569C268.776 95.5958 267.784 101.905 267.293 103.566C266.803 105.227 266.179 108.025 266.179 108.025V212.933C266.179 212.933 267.672 218.574 265.342 219.075C263.013 219.577 246.091 218.741 233.65 212.276C221.21 205.81 216.929 201.318 216.929 201.318L220.084 175.757L221.411 161.488L200.833 161.588C200.833 161.588 212.95 103.399 214.276 100.278C215.603 97.1565 248.298 80.5246 248.298 80.5246C248.298 80.5246 248.699 75.1069 253.013 74.0256Z" fill="#6EAA78" stroke="#263238" stroke-linecap="round" stroke-linejoin="round"/>
<path d="M294.191 121.101L293.924 118.325" stroke="#263238" stroke-linecap="round" stroke-linejoin="round"/>
<path d="M298.494 164.72L294.604 125.214" stroke="#263238" stroke-linecap="round" stroke-linejoin="round"/>
<path d="M221.321 161.488L225.189 124.423" stroke="#263238" stroke-linecap="round" stroke-linejoin="round"/>
<path d="M215.747 153.807C212.863 153.26 209.903 153.26 207.019 153.807C201.991 154.699 199.628 164.018 199.327 167.273C199.026 170.528 201.1 176.191 204.901 177.774C208.702 179.357 210.675 179.246 214.666 176.882C218.657 174.519 218.222 163.572 218.01 159.872C217.942 157.656 217.147 155.525 215.747 153.807Z" fill="white" stroke="#263238" stroke-linecap="round" stroke-linejoin="round"/>
<path d="M225.568 143.106C225.568 143.106 227.04 133.184 227.196 129.941C227.352 126.697 226.895 122.684 227.486 121.357C228.076 120.031 230.15 121.212 230.886 122.093C231.621 122.973 232.223 127.566 232.078 129.339C231.984 130.422 231.984 131.511 232.078 132.594C232.078 132.594 243.46 124.166 244.798 122.394C246.135 120.621 248.788 119.284 249.68 120.465C250.572 121.647 249.524 122.695 248.487 123.72C247.451 124.746 242.133 130.821 241.242 131.523C240.677 132.041 240.268 132.704 240.06 133.441C240.816 133.509 241.578 133.406 242.289 133.14C243.627 132.705 252.79 128.112 253.682 128.112C253.912 128.148 254.132 128.232 254.328 128.359C254.523 128.486 254.689 128.653 254.814 128.849C254.94 129.045 255.022 129.266 255.056 129.496C255.089 129.727 255.073 129.962 255.009 130.186C254.719 131.078 243.471 137.877 243.036 137.989C242.601 138.1 242.144 139.182 242.88 139.327C243.616 139.472 252.79 137.989 253.972 138.58C254.188 138.681 254.375 138.835 254.516 139.028C254.657 139.222 254.746 139.447 254.776 139.684C254.806 139.921 254.776 140.162 254.688 140.384C254.6 140.606 254.457 140.802 254.273 140.954C253.682 141.4 242.735 143.317 242.735 143.317L247.763 144.354C249.245 144.655 251.753 144.655 251.753 145.536C251.753 146.416 251.163 146.873 250.126 146.873H242.434C240.807 146.873 237.563 148.2 234.899 149.382C232.234 150.563 231.053 151.009 231.053 151.009C231.053 151.009 223.796 164.174 221.143 168.912C220.127 170.856 218.624 172.504 216.782 173.696C214.94 174.888 212.821 175.582 210.631 175.712C206.785 176.013 202.828 169.023 203.541 165.679C204.254 162.335 210.486 154.732 215.959 151.923C221.433 149.114 223.049 146.383 225.568 143.106Z" fill="white" stroke="#263238" stroke-linecap="round" stroke-linejoin="round"/>
<path d="M313.744 155.524C313.744 155.524 309.519 150.028 306.554 149.816C303.589 149.605 298.305 159.113 298.305 163.138C298.305 167.162 298.516 174.764 300.211 175.823C301.905 176.882 305.071 174.976 306.977 172.479C308.884 169.982 313.744 155.524 313.744 155.524Z" fill="white" stroke="#263238" stroke-linecap="round" stroke-linejoin="round"/>
<path d="M362.235 129.439C362.235 129.439 362.48 124.913 361.622 125.159C360.763 125.404 360.161 126.017 360.407 128.09C360.405 130.31 360.158 132.524 359.671 134.69L362.235 129.439Z" fill="white" stroke="#263238" stroke-linecap="round" stroke-linejoin="round"/>
<path d="M309.418 154.008C309.418 154.008 302.73 166.27 302.941 169.536C303.153 172.802 305.996 173.995 311.135 172.468C316.274 170.941 352.09 151.444 353.796 149.85C355.501 148.256 361.376 136.038 363.338 133.831C365.3 131.624 365.044 126.14 365.044 125.159C365.044 124.178 363.338 124.545 363.338 125.772C363.338 126.998 359.18 134.935 358.567 135.18C357.954 135.425 352.458 138.112 352.458 138.112C352.458 138.112 355.267 132.616 356.248 130.777C357.229 128.937 358.076 126.864 356.003 127.6C353.93 128.336 350.619 133.954 349.393 137.019C348.166 140.085 346.048 144.109 346.461 146.06L346.829 148.022C346.829 148.022 334.477 150.831 327.142 151.199C319.807 151.567 309.786 152.782 309.418 154.008Z" fill="white" stroke="#263238" stroke-linecap="round" stroke-linejoin="round"/>
<path d="M358.936 141.055C358.936 141.055 365.413 133.586 366.271 132.248C367.129 130.911 368.222 128.826 367.976 127.232C367.731 125.638 366.639 127.6 365.747 128.949C364.855 130.297 363.183 131.513 362.202 133.709C361.87 134.385 361.402 134.984 360.826 135.47C360.25 135.955 359.58 136.316 358.858 136.529L358.936 141.055Z" fill="white" stroke="#263238" stroke-linecap="round" stroke-linejoin="round"/>
<path d="M356.617 145.569C356.617 145.569 360.284 137.989 361.254 135.916C362.224 133.842 362.48 130.286 362.603 128.112C362.726 125.939 360.886 127.377 360.641 129.227C360.396 131.078 358.935 136.562 358.935 136.562C358.935 136.562 350.987 142.136 350.987 143.652C351.011 144.796 351.093 145.938 351.233 147.074" fill="white"/>
<path d="M356.617 145.569C356.617 145.569 360.284 137.989 361.254 135.916C362.224 133.842 362.48 130.286 362.603 128.112C362.726 125.939 360.886 127.377 360.641 129.227C360.396 131.078 358.935 136.562 358.935 136.562C358.935 136.562 350.987 142.136 350.987 143.652C351.011 144.796 351.093 145.938 351.233 147.074" stroke="#263238" stroke-linecap="round" stroke-linejoin="round"/>
<path d="M107.418 260.644H95.5234V281.768H107.418V260.644Z" fill="#263238" stroke="#263238" stroke-linecap="round" stroke-linejoin="round"/>
<path d="M112.768 176.392H88.3443C78.7216 176.392 70.9209 184.193 70.9209 193.815V249.641C70.9209 259.264 78.7216 267.065 88.3443 267.065H112.768C122.391 267.065 130.192 259.264 130.192 249.641V193.815C130.192 184.193 122.391 176.392 112.768 176.392Z" fill="#949494" stroke="#263238" stroke-linecap="round" stroke-linejoin="round"/>
<path d="M82.7926 392.439C82.7948 391.442 82.5009 390.466 81.948 389.636C81.3952 388.805 80.6084 388.158 79.6873 387.775C78.7661 387.392 77.7521 387.292 76.7737 387.486C75.7953 387.68 74.8964 388.16 74.1911 388.865C73.4858 389.571 73.0057 390.469 72.8116 391.448C72.6175 392.426 72.7183 393.44 73.101 394.361C73.4838 395.283 74.1313 396.069 74.9616 396.622C75.7919 397.175 76.7676 397.469 77.7651 397.467C79.0985 397.467 80.3772 396.937 81.32 395.994C82.2629 395.051 82.7926 393.773 82.7926 392.439Z" fill="#263238" stroke="#263238" stroke-linecap="round" stroke-linejoin="round"/>
<path d="M181.124 392.439C181.126 391.442 180.832 390.466 180.28 389.636C179.727 388.805 178.94 388.158 178.019 387.775C177.098 387.392 176.084 387.292 175.105 387.486C174.127 387.68 173.228 388.16 172.523 388.865C171.817 389.571 171.337 390.469 171.143 391.448C170.949 392.426 171.05 393.44 171.433 394.361C171.815 395.283 172.463 396.069 173.293 396.622C174.123 397.175 175.099 397.469 176.097 397.467C177.43 397.467 178.709 396.937 179.652 395.994C180.594 395.051 181.124 393.773 181.124 392.439Z" fill="#263238" stroke="#263238" stroke-linecap="round" stroke-linejoin="round"/>
<path d="M129.367 392.439C129.367 389.652 128.319 387.401 127.037 387.401C125.755 387.401 124.696 389.63 124.696 392.439C124.696 395.248 125.744 397.467 127.037 397.467C128.33 397.467 129.367 395.215 129.367 392.439Z" fill="#263238" stroke="#263238" stroke-linecap="round" stroke-linejoin="round"/>
<path d="M131.607 365.117V292.971H121.73V365.418L72.9829 384.703V389.541H80.0615V385.439L127.048 375.752L174.023 385.439V389.541H181.113V384.703L131.607 365.117Z" fill="#263238" stroke="#263238" stroke-linecap="round" stroke-linejoin="round"/>
<path d="M124.562 389.53H129.5L130.559 366.109H123.503L124.562 389.53Z" fill="#263238" stroke="#263238" stroke-linecap="round" stroke-linejoin="round"/>
<path d="M139.21 290.218H114.095V305.133H139.21V290.218Z" fill="#263238" stroke="#263238" stroke-linecap="round" stroke-linejoin="round"/>
<path d="M164.024 276.484H86.9284C83.2899 276.484 80.3403 279.434 80.3403 283.072V289.125C80.3403 292.764 83.2899 295.713 86.9284 295.713H164.024C167.662 295.713 170.612 292.764 170.612 289.125V283.072C170.612 279.434 167.662 276.484 164.024 276.484Z" fill="#949494" stroke="#263238" stroke-linecap="round" stroke-linejoin="round"/>
<path d="M236.449 329.758L244.13 341.15L253.237 340.582C253.237 340.582 270.593 337.449 272.867 336.881C275.142 336.312 276 338.296 274.863 340.582C273.726 342.867 263.192 353.1 258.075 356.188C252.958 359.276 238.433 364.437 237.017 364.727C235.602 365.017 233.885 362.163 230.753 353.345C228.405 347.186 225.452 341.275 221.935 335.699L236.449 329.758Z" fill="white" stroke="#263238" stroke-linecap="round" stroke-linejoin="round"/>
<path d="M274.862 340.582C275.977 338.352 275.152 336.312 272.867 336.881C270.581 337.449 253.281 340.582 253.281 340.582L244.173 341.15C244.22 343.772 244.702 346.367 245.6 348.831C245.6 348.831 232.792 351.963 230.796 353.39C233.929 362.208 235.634 365.05 237.061 364.772C238.488 364.493 252.991 359.365 258.119 356.233C263.246 353.1 273.725 342.856 274.862 340.582Z" fill="white" stroke="#263238" stroke-linecap="round" stroke-linejoin="round"/>
<path d="M274.862 340.582C275.3 339.803 275.442 338.893 275.263 338.018C270.057 342.399 259.166 351.395 254.808 353.568C250.65 355.642 239.859 359.443 233.984 361.461C235.244 364.014 236.214 364.939 237.016 364.805C238.432 364.515 252.946 359.399 258.074 356.266C263.202 353.134 273.725 342.856 274.862 340.582Z" fill="white" stroke="#263238" stroke-linecap="round" stroke-linejoin="round"/>
<path d="M208.089 235.752C208.089 235.752 220.619 272.538 227.909 297.319C231.416 309.201 235.798 320.807 241.018 332.043C241.018 332.043 235.043 335.454 231.053 337.449C227.062 339.445 220.24 341.997 220.24 341.997C220.24 341.997 214.833 333.458 209.148 322.367C203.463 311.275 193.776 284.232 189.216 275.971C184.657 267.711 178.403 255.193 178.403 255.193C178.403 255.193 175.561 240.969 186.374 237.268C197.187 233.567 204.968 231.772 208.089 235.752Z" fill="#6EAA78" stroke="#263238" stroke-linecap="round" stroke-linejoin="round"/>
<path d="M164.905 229.599C164.905 229.599 169.81 232.865 169.943 233.4C170.077 233.935 169.81 234.358 168.717 234.771C167.625 235.183 162.597 236.131 162.597 236.131L164.905 229.599Z" fill="white" stroke="#263238" stroke-linecap="round" stroke-linejoin="round"/>
<path d="M183.108 353.134C183.108 353.134 181.146 365.34 179.764 369.788C178.382 374.236 174.77 382.34 175.918 384.346C177.066 386.353 183.142 388.426 186.241 388.683C189.34 388.939 193.308 394.011 199.071 396.096C204.835 398.18 212.448 397.623 212.281 396.096C212.114 394.569 195.214 376.03 194.389 371.46C193.565 366.89 196.519 352.799 196.519 352.799L183.108 353.134Z" fill="white" stroke="#263238" stroke-linecap="round" stroke-linejoin="round"/>
<path d="M192.327 374.481L191.87 375.763C187.411 375.255 183.003 374.367 178.694 373.11C177.122 377.468 175.071 382.775 175.974 384.346C177.089 386.364 183.198 388.426 186.297 388.683C189.396 388.939 193.364 394.011 199.127 396.096C204.891 398.18 212.504 397.623 212.337 396.096C212.17 394.569 195.27 376.03 194.445 371.46C193.586 372.351 192.872 373.37 192.327 374.481Z" fill="white" stroke="#263238" stroke-linecap="round" stroke-linejoin="round"/>
<path d="M198.782 393.075C194.223 390.845 190.098 387.011 184.023 384.959C180.077 383.611 177.335 382.529 175.885 381.927C175.662 382.723 175.693 383.569 175.975 384.346C177.089 386.364 183.198 388.426 186.297 388.683C189.396 388.939 193.364 394.011 199.128 396.096C204.635 398.102 211.791 397.668 212.293 396.308C208.491 395.75 201.915 394.613 198.782 393.075Z" fill="white" stroke="#263238" stroke-linecap="round" stroke-linejoin="round"/>
<path d="M180.087 261.457C180.087 261.457 202.572 264.021 204.288 275.403C206.005 286.784 202.003 357.648 202.003 357.648C198.674 357.798 195.339 357.607 192.048 357.08C187.489 356.232 179.786 354.527 179.786 354.527C179.786 354.527 178.672 330.337 177.222 320.65C175.773 310.963 174.658 282.805 174.658 282.805C174.658 282.805 137.092 279.672 133.681 277.398C130.27 275.124 180.087 261.457 180.087 261.457Z" fill="#6EAA78" stroke="#263238" stroke-linecap="round" stroke-linejoin="round"/>
<path d="M204.567 255.761C204.567 255.761 154.192 275.403 141.384 279.672C129.824 283.332 117.431 283.433 105.813 279.962C96.9951 277.108 92.6588 265.783 92.6588 265.783C92.6588 265.783 90.4293 263.163 91.5441 260.61C92.6588 258.058 110.907 241.816 121.999 238.973C133.09 236.131 153.211 237.368 153.211 237.368C153.211 237.368 196.597 227.335 202.572 228.16C208.547 228.985 213.307 250.288 214.154 253.13" fill="#6EAA78"/>
<path d="M204.567 255.761C204.567 255.761 154.192 275.403 141.384 279.672C129.824 283.332 117.431 283.433 105.813 279.962C96.9951 277.108 92.6588 265.783 92.6588 265.783C92.6588 265.783 90.4293 263.163 91.5441 260.61C92.6588 258.058 110.907 241.816 121.999 238.973C133.09 236.131 153.211 237.368 153.211 237.368C153.211 237.368 196.597 227.335 202.572 228.16C208.547 228.985 213.307 250.288 214.154 253.13" stroke="#263238" stroke-linecap="round" stroke-linejoin="round"/>
<path d="M105.523 268.001C105.523 268.001 109.514 252.395 120.015 245.807" stroke="#263238" stroke-linecap="round" stroke-linejoin="round"/>
<path d="M103.248 257.478C103.248 257.478 107.517 250.923 113.214 249.507" stroke="#263238" stroke-linecap="round" stroke-linejoin="round"/>
<path d="M134.584 140.263C136.089 140.612 137.506 141.267 138.747 142.188C139.988 143.108 141.026 144.275 141.796 145.614C144.594 150.274 149.254 167.742 149.254 167.742C149.254 167.742 156.7 189.401 155.307 194.495C153.913 199.59 148.317 207.07 148.317 207.07C148.317 207.07 148.785 223.791 150.179 227.135C151.403 230.483 152.416 233.905 153.211 237.379C153.211 237.379 149.254 240.177 136.211 242.039C123.169 243.901 112.456 244.837 108.03 248.326C103.605 251.815 93.8287 265.047 92.6582 265.794C91.4878 266.541 89.6373 267.89 88.7009 266.028C87.7645 264.167 86.137 260.209 88.2327 251.826C90.3284 243.444 94.0628 210.369 95.4562 194.763C96.8497 179.157 93.8287 163.327 95.6903 152.403C97.5519 141.478 114.084 134.946 117.807 134.244C121.53 133.542 134.584 140.263 134.584 140.263Z" fill="#263238" stroke="#263238" stroke-linecap="round" stroke-linejoin="round"/>
<path d="M95.2778 251.782C95.2778 251.782 102.401 243.533 105.812 242.106C109.223 240.679 133.134 240.679 133.134 240.679" stroke="white" stroke-linecap="round" stroke-linejoin="round"/>
<path d="M100.406 241.247C102.635 239.979 105.028 239.023 107.518 238.405C110.65 237.836 118.899 238.405 118.899 238.405" stroke="white" stroke-linecap="round" stroke-linejoin="round"/>
<path d="M112.925 212.788C120.675 209.761 127.74 205.213 133.704 199.411" stroke="white" stroke-linecap="round" stroke-linejoin="round"/>
<path d="M138.54 74.1256C138.54 74.1256 142.03 81.5832 143.2 83.9019C144.37 86.2205 143.891 90.2002 144.828 93.4552C145.764 96.7102 151.115 98.8059 151.115 100.679C151.115 102.551 149.019 106.252 149.019 106.252C149.019 106.252 147.848 120.744 145.987 122.316C144.125 123.888 136.445 124.411 136.445 124.411L132.487 139.55L136.445 141.879C136.445 141.879 135.192 147.606 134.5 152.5C133.809 157.394 130.49 157.862 123.5 156C116.511 154.138 111.519 147.721 110.594 145.391C109.669 143.061 113.615 133.04 108.966 118.136C104.318 103.231 114.54 89.732 121.307 83.4448C128.073 77.1577 131.317 72.9663 138.54 74.1256Z" fill="white" stroke="#263238" stroke-linecap="round" stroke-linejoin="round"/>
<path d="M124.562 107.423C124.562 107.423 122.232 96.7104 116.179 100.902C110.126 105.093 119.211 116.976 120.638 117.21C122.065 117.445 124.362 116.04 124.362 116.04" fill="white"/>
<path d="M124.562 107.423C124.562 107.423 122.232 96.7104 116.179 100.902C110.126 105.093 119.211 116.976 120.638 117.21C122.065 117.445 124.362 116.04 124.362 116.04" stroke="#263238" stroke-linecap="round" stroke-linejoin="round"/>
<path d="M136.445 124.423L129.222 123.497L134.349 130.253L136.445 124.423Z" fill="#263238" stroke="#263238" stroke-linecap="round" stroke-linejoin="round"/>
<path d="M144.103 96.1196C144.404 97.7026 144.103 99.096 143.401 99.2297C142.699 99.3635 141.896 98.1819 141.584 96.6101C141.272 95.0383 141.584 93.6449 142.298 93.5111C143.011 93.3774 143.802 94.5479 144.103 96.1196Z" fill="#263238"/>
<path d="M158.807 223.055C159.404 223.059 160 223.018 160.591 222.932L160.055 219.588C158.941 219.755 156.355 219.744 155.596 218.64C154.537 217.113 155.374 208.686 156.455 207.259C156.856 206.791 158.796 206.791 160.189 207.114L160.97 203.77C160.133 203.569 155.853 202.655 153.857 205.018C151.862 207.382 150.681 217.503 152.821 220.558C154.259 222.665 156.99 223.055 158.807 223.055Z" fill="white" stroke="#263238" stroke-linecap="round" stroke-linejoin="round"/>
<path d="M158.673 227.146H178.961V200.716H158.673V227.146Z" fill="white" stroke="#263238" stroke-linecap="round" stroke-linejoin="round"/>
<path d="M99.9372 144.889C99.9372 144.889 89.1911 141.545 84.2751 162.313C82.6476 169.224 76.0149 239.23 77.3971 239.698C82.4135 241.47 135.263 225.028 135.263 225.028C135.263 225.028 151.616 223.913 153.099 223.568C154.582 223.222 156.778 220.658 156.677 219.22C156.577 217.782 156.677 214.873 156.677 214.873C156.677 214.873 159.141 212.041 158.283 210.168C157.764 209.044 156.841 208.156 155.696 207.683H152.352L150.357 206.858C150.357 206.858 152.843 204.272 152.43 201.886C152.018 199.5 150.011 198.185 149.164 199.924C148.317 201.663 148.15 202.9 146.567 204.461C144.738 206.091 143.079 207.902 141.617 209.868C140.503 211.64 137.459 216.199 137.459 216.199L99.3798 218.273L105.02 174.374" fill="#263238"/>
<path d="M99.9372 144.889C99.9372 144.889 89.1911 141.545 84.2751 162.313C82.6476 169.224 76.0149 239.23 77.3971 239.698C82.4135 241.47 135.263 225.028 135.263 225.028C135.263 225.028 151.616 223.913 153.099 223.568C154.582 223.222 156.778 220.658 156.677 219.22C156.577 217.782 156.677 214.873 156.677 214.873C156.677 214.873 159.141 212.041 158.283 210.168C157.764 209.044 156.841 208.156 155.696 207.683H152.352L150.357 206.858C150.357 206.858 152.843 204.272 152.43 201.886C152.018 199.5 150.011 198.185 149.164 199.924C148.317 201.663 148.15 202.9 146.567 204.461C144.738 206.091 143.079 207.902 141.617 209.868C140.503 211.64 137.459 216.199 137.459 216.199L99.3798 218.273L105.02 174.374" stroke="#263238" stroke-linecap="round" stroke-linejoin="round"/>
<path d="M158.172 210.168C157.654 209.044 156.73 208.156 155.586 207.683H152.241L150.246 206.858C150.246 206.858 152.732 204.271 152.319 201.886C151.907 199.5 149.9 198.185 149.053 199.924C148.206 201.663 148.039 202.9 146.456 204.461C144.627 206.091 142.969 207.902 141.506 209.867C140.392 211.64 137.349 216.199 137.349 216.199L99.269 218.273V212.5L79 204.461C77.0492 224.526 76.6844 239.441 77.4313 239.709C82.4476 241.481 135.297 225.039 135.297 225.039C135.297 225.039 151.651 223.924 153.133 223.579C154.616 223.233 156.812 220.669 156.712 219.231C156.611 217.793 156.712 214.884 156.712 214.884C156.712 214.884 159.03 212.041 158.172 210.168Z" fill="white" stroke="#263238" stroke-linecap="round" stroke-linejoin="round"/>
<path d="M156.466 229.297C156.466 229.297 152.197 230.156 151.06 231.527C149.923 232.898 147.08 240.634 148.507 240.924C149.934 241.214 152.777 234.949 152.777 234.949C152.777 234.949 160.758 231.003 156.466 229.297Z" fill="white" stroke="#263238" stroke-linecap="round" stroke-linejoin="round"/>
<path d="M158.372 229.32C157.389 229.256 156.407 229.444 155.518 229.866C154.292 230.546 151.706 236.398 151.304 238.037C150.903 239.676 151.304 241.292 152.419 240.891C153.534 240.489 157.324 234.626 158.405 233.946C159.486 233.266 160.278 229.342 158.372 229.32Z" fill="white" stroke="#263238" stroke-linecap="round" stroke-linejoin="round"/>
<path d="M161.371 229.32C161.243 229.029 161.033 228.782 160.767 228.608C160.501 228.435 160.19 228.342 159.872 228.342C159.554 228.342 159.243 228.435 158.977 228.608C158.711 228.782 158.501 229.029 158.373 229.32C156.745 231.638 154.025 238.717 154.705 239.252C155.385 239.787 157.013 238.037 158.105 236.811C159.198 235.585 162.185 232.452 161.371 229.32Z" fill="white" stroke="#263238" stroke-linecap="round" stroke-linejoin="round"/>
<path d="M164.904 229.598C164.904 229.598 162.463 228.094 161.371 229.32C160.278 230.546 159.464 237.123 159.732 237.758C159.999 238.394 162.184 236.811 162.597 236.131C163.009 235.451 164.904 229.598 164.904 229.598Z" fill="white" stroke="#263238" stroke-linecap="round" stroke-linejoin="round"/>
<path d="M141.53 80.5998L120 116.5C134.963 120.941 136.5 139.5 144 155C58.9998 189 81.6642 140.062 87.5005 128C74.5691 117.765 71.2525 96.4562 96.0005 71.0002C115.799 50.6354 141.53 63.5003 141.53 80.5998Z" fill="#6EAA78"/>
</svg>
