<svg width="261" height="44" viewBox="0 0 261 44" fill="none" xmlns="http://www.w3.org/2000/svg">
<path d="M53.1495 32.1891H65.2408C66.6354 32.1891 67.7529 31.8896 68.5881 31.2952C69.4231 30.7009 69.8434 29.9069 69.8434 28.9179V26.864C69.8434 26.078 69.5452 25.4188 68.9492 24.8864C68.3535 24.3536 67.5103 23.9989 66.4201 23.8212L59.4975 22.68C57.4692 22.3506 55.9032 21.6532 54.8004 20.5883C53.6972 19.5231 53.1455 18.192 53.1455 16.5947V14.5025C53.1455 12.6007 53.8759 11.0717 55.3325 9.91926C56.7894 8.76687 58.7115 8.18848 61.0951 8.18848H71.824V11.4217H61.0951C59.8043 11.4217 58.7561 11.7072 57.9571 12.2776C57.1584 12.848 56.7591 13.6277 56.7591 14.6167V16.3281C56.7591 17.1397 57.0443 17.8116 57.6146 18.344C58.1853 18.8768 59.003 19.2442 60.0682 19.4472L66.9143 20.6262C69.0191 20.9813 70.6357 21.6725 71.7638 22.6994C72.8922 23.7263 73.4566 25.0131 73.4566 26.5599V29.0321C73.4566 30.9591 72.7132 32.5078 71.2317 33.6722C69.7495 34.8373 67.7735 35.4222 65.317 35.4222H53.1495V32.1891ZM86.4647 35.4222C84.7403 35.4222 83.2255 35.0482 81.9194 34.2998C80.6136 33.5521 79.6056 32.4935 78.8954 31.1242C78.1856 29.7548 77.8306 28.1828 77.8306 26.4074V8.49299H81.4438V26.4074C81.4438 28.1319 81.9067 29.5265 82.8321 30.5914C83.7576 31.6566 84.9686 32.1891 86.4647 32.1891H90.5345C92.0307 32.1891 93.2413 31.6566 94.1667 30.5914C95.0922 29.5265 95.555 28.1319 95.555 26.4074V8.49299H99.1686V26.4074C99.1686 28.1828 98.8135 29.7548 98.1034 31.1242C97.3933 32.4935 96.3856 33.5521 95.0795 34.2998C93.7737 35.0482 92.2586 35.4222 90.5345 35.4222H86.4647ZM107.536 35.1178C106.649 35.1178 105.945 34.8642 105.425 34.357C104.906 33.8499 104.645 33.1654 104.645 32.3032V8.49299H108.259V31.9228H122.712V35.1178H107.536ZM126.288 8.49299H129.901V20.1321H143.822V8.49299H147.474V35.1178H143.822V23.3266H129.901V35.1178H126.288V8.49299ZM168.355 28.1192H157.248L154.662 35.1178H150.896L161.204 8.49299H162.84C163.93 8.49299 164.704 9.08865 165.16 10.2806L174.707 35.1178H170.979L168.355 28.1192ZM158.314 25.0764H167.29L162.84 13.0573H162.802L158.314 25.0764Z" fill="#ECECEC"/>
<path d="M177.272 8.5023H178.35L180.224 13.0759H180.292L182.165 8.5023H183.242V14.3864H182.398V10.1286H182.343L180.608 14.3784H179.907L178.172 10.1259H178.118V14.3864H177.272V8.5023ZM187.407 12.5568V9.97352H188.27V14.3864H187.425V13.622H187.379C187.278 13.8579 187.115 14.0533 186.892 14.21C186.669 14.3665 186.392 14.4443 186.06 14.4443C185.637 14.4443 185.291 14.3042 185.019 14.0223C184.749 13.7418 184.612 13.3278 184.612 12.7804V9.97352H185.471V12.6769C185.471 12.9774 185.555 13.2173 185.722 13.3954C185.888 13.5734 186.105 13.6626 186.37 13.6626C186.532 13.6626 186.693 13.622 186.852 13.5425C187.012 13.4616 187.144 13.3388 187.251 13.1758C187.357 13.011 187.41 12.805 187.407 12.5568ZM192.729 11.0507L191.95 11.1898C191.9 11.0414 191.808 10.9066 191.673 10.7825C191.538 10.6584 191.336 10.5978 191.068 10.5978C190.825 10.5978 190.622 10.6517 190.457 10.7595C190.294 10.8673 190.213 11.0074 190.214 11.1775C190.213 11.3272 190.267 11.4457 190.378 11.5349C190.487 11.6237 190.664 11.698 190.907 11.7545L191.609 11.9162C192.412 12.1013 192.815 12.5002 192.815 13.1109C192.815 13.3768 192.738 13.6124 192.586 13.8173C192.434 14.0223 192.222 14.1828 191.951 14.3002C191.68 14.4174 191.367 14.4753 191.011 14.4753C190.515 14.4753 190.112 14.3701 189.802 14.1585C189.491 13.9471 189.299 13.645 189.226 13.2553L190.057 13.1285C190.16 13.5654 190.476 13.7838 191.005 13.7838C191.287 13.7838 191.511 13.7245 191.68 13.6071C191.849 13.4886 191.932 13.3442 191.932 13.1745C191.932 12.8926 191.724 12.7066 191.309 12.6134L190.562 12.4503C190.148 12.3585 189.844 12.2088 189.65 12.0028C189.454 11.7951 189.356 11.5362 189.356 11.2234C189.356 10.9632 189.428 10.7352 189.574 10.5386C189.719 10.3416 189.92 10.1891 190.178 10.08C190.434 9.97085 190.728 9.91695 191.06 9.91695C191.536 9.91695 191.912 10.0194 192.186 10.2271C192.459 10.4334 192.64 10.7083 192.729 11.0507ZM194.615 8.5023V14.3864H193.756V8.5023H194.615ZM195.771 14.3864V9.97352H196.63V14.3864H195.771ZM196.205 9.29265C196.055 9.29265 195.929 9.24275 195.822 9.14158C195.716 9.04175 195.661 8.92162 195.661 8.78152C195.661 8.6401 195.716 8.5186 195.822 8.41877C195.929 8.31794 196.055 8.26807 196.205 8.26807C196.353 8.26807 196.48 8.31794 196.588 8.41877C196.694 8.5186 196.748 8.6401 196.748 8.78152C196.748 8.92162 196.694 9.04175 196.588 9.14158C196.48 9.24275 196.353 9.29265 196.205 9.29265ZM197.785 14.3864V9.97352H198.611V10.692H198.664C198.756 10.4494 198.907 10.2594 199.116 10.1219C199.325 9.9845 199.575 9.91695 199.866 9.91695C200.161 9.91695 200.408 9.98549 200.608 10.1233C200.808 10.2607 200.957 10.4507 201.052 10.692H201.098C201.204 10.4564 201.373 10.269 201.602 10.1273C201.831 9.98684 202.104 9.91695 202.422 9.91695C202.822 9.91695 203.15 10.0424 203.404 10.2943C203.657 10.5465 203.784 10.9239 203.784 11.4271V14.3864H202.925V11.5079C202.925 11.2084 202.844 10.9928 202.682 10.8593C202.52 10.7245 202.325 10.657 202.097 10.657C201.818 10.657 201.601 10.7436 201.446 10.9159C201.291 11.0886 201.212 11.3083 201.212 11.5738V14.3864H200.357V11.454C200.357 11.2141 200.282 11.0211 200.133 10.8757C199.983 10.7299 199.789 10.657 199.55 10.657C199.306 10.657 199.095 10.7515 198.915 10.9389C198.735 11.1262 198.644 11.3688 198.644 11.6657V14.3864H197.785ZM209.049 14.3864H207.144V8.5023H209.109C209.688 8.5023 210.183 8.61978 210.595 8.85439C211.009 9.08899 211.326 9.42609 211.547 9.86302C211.768 10.3013 211.879 10.8257 211.879 11.4364C211.879 12.0487 211.767 12.5758 211.546 13.0167C211.323 13.4559 211.001 13.7944 210.579 14.0317C210.156 14.2679 209.646 14.3864 209.049 14.3864ZM208.032 13.611H209C209.671 13.611 210.172 13.4224 210.505 13.0463C210.838 12.6703 211.005 12.1335 211.005 11.4364C211.005 10.7435 210.841 10.2094 210.513 9.83738C210.184 9.46534 209.699 9.27934 209.054 9.27934H208.032V13.611ZM212.913 14.3864V9.97352H213.772V14.3864H212.913ZM213.347 9.29265C213.198 9.29265 213.071 9.24275 212.964 9.14158C212.858 9.04175 212.804 8.92162 212.804 8.78152C212.804 8.6401 212.858 8.5186 212.964 8.41877C213.071 8.31794 213.198 8.26807 213.347 8.26807C213.496 8.26807 213.623 8.31794 213.73 8.41877C213.837 8.5186 213.891 8.6401 213.891 8.78152C213.891 8.92162 213.837 9.04175 213.73 9.14158C213.623 9.24275 213.496 9.29265 213.347 9.29265ZM218.235 11.0507L217.456 11.1898C217.406 11.0414 217.314 10.9066 217.179 10.7825C217.044 10.6584 216.842 10.5978 216.574 10.5978C216.331 10.5978 216.128 10.6517 215.963 10.7595C215.8 10.8673 215.719 11.0074 215.72 11.1775C215.719 11.3272 215.773 11.4457 215.883 11.5349C215.993 11.6237 216.169 11.698 216.414 11.7545L217.114 11.9162C217.918 12.1013 218.321 12.5002 218.321 13.1109C218.321 13.3768 218.244 13.6124 218.092 13.8173C217.94 14.0223 217.728 14.1828 217.457 14.3002C217.186 14.4174 216.873 14.4753 216.517 14.4753C216.021 14.4753 215.618 14.3701 215.308 14.1585C214.996 13.9471 214.805 13.645 214.732 13.2553L215.563 13.1285C215.666 13.5654 215.982 13.7838 216.511 13.7838C216.792 13.7838 217.017 13.7245 217.186 13.6071C217.354 13.4886 217.438 13.3442 217.438 13.1745C217.438 12.8926 217.23 12.7066 216.815 12.6134L216.068 12.4503C215.654 12.3585 215.35 12.2088 215.155 12.0028C214.96 11.7951 214.861 11.5362 214.861 11.2234C214.861 10.9632 214.934 10.7352 215.08 10.5386C215.225 10.3416 215.427 10.1891 215.684 10.08C215.94 9.97085 216.234 9.91695 216.566 9.91695C217.042 9.91695 217.418 10.0194 217.691 10.2271C217.965 10.4334 218.146 10.7083 218.235 11.0507ZM219.262 16.041V9.97352H220.101V10.6896H220.174C220.225 10.5978 220.298 10.4913 220.391 10.3698C220.483 10.2497 220.613 10.1435 220.78 10.053C220.949 9.96152 221.169 9.91695 221.44 9.91695C221.797 9.91695 222.114 10.0058 222.393 10.1865C222.671 10.3658 222.891 10.6261 223.052 10.9645C223.213 11.3042 223.294 11.7116 223.294 12.1888C223.294 12.6633 223.214 13.0719 223.055 13.4144C222.896 13.7555 222.678 14.0184 222.4 14.2004C222.122 14.3811 221.805 14.4729 221.449 14.4729C221.181 14.4729 220.963 14.4283 220.794 14.3378C220.625 14.2476 220.493 14.1425 220.396 14.021C220.299 13.9012 220.225 13.7931 220.174 13.7002H220.121V16.041H219.262ZM220.105 12.1808C220.105 12.643 220.203 13.0194 220.403 13.3079C220.602 13.5964 220.887 13.7405 221.256 13.7405C221.513 13.7405 221.728 13.6719 221.901 13.5345C222.075 13.3981 222.206 13.2121 222.293 12.9761C222.381 12.7402 222.425 12.4746 222.425 12.1808C222.425 11.8866 222.382 11.625 222.295 11.3948C222.208 11.1642 222.078 10.9808 221.905 10.8474C221.734 10.7136 221.517 10.6464 221.256 10.6464C220.882 10.6464 220.596 10.7865 220.399 11.067C220.202 11.3475 220.105 11.7182 220.105 12.1808ZM227.05 12.5568V9.97352H227.913V14.3864H227.068V13.622H227.022C226.921 13.8579 226.757 14.0533 226.535 14.21C226.311 14.3665 226.035 14.4443 225.703 14.4443C225.28 14.4443 224.933 14.3042 224.662 14.0223C224.391 13.7418 224.255 13.3278 224.255 12.7804V9.97352H225.114V12.6769C225.114 12.9774 225.198 13.2173 225.365 13.3954C225.53 13.5734 225.748 13.6626 226.013 13.6626C226.175 13.6626 226.335 13.622 226.495 13.5425C226.655 13.4616 226.787 13.3388 226.894 13.1758C227 13.011 227.053 12.805 227.05 12.5568ZM231.125 9.97352V10.6637H230.22V13.0909C230.22 13.3402 230.272 13.5005 230.379 13.5721C230.485 13.6436 230.608 13.6799 230.748 13.6799C230.817 13.6799 230.878 13.6746 230.929 13.665C230.98 13.6556 231.021 13.6477 231.051 13.642L231.206 14.3515C231.156 14.3714 231.084 14.3904 230.991 14.4107C230.898 14.431 230.784 14.4416 230.648 14.4443C230.422 14.4469 230.211 14.408 230.014 14.3232C229.818 14.2397 229.66 14.1085 229.54 13.9321C229.42 13.7568 229.361 13.5359 229.361 13.2686V10.6637H228.714V9.97352H229.361V8.91629H230.22V9.97352H231.125ZM233.975 14.4753C233.542 14.4753 233.169 14.3811 232.854 14.1938C232.54 14.0064 232.299 13.7418 232.129 13.4021C231.959 13.0623 231.874 12.6646 231.874 12.2087C231.874 11.7571 231.959 11.3581 232.129 11.0144C232.299 10.6693 232.536 10.3995 232.841 10.2068C233.147 10.0128 233.504 9.91695 233.914 9.91695C234.247 9.91695 234.563 9.99112 234.861 10.1392C235.159 10.2876 235.402 10.5236 235.588 10.8487C235.775 11.1735 235.868 11.6021 235.868 12.1348V12.4383H232.73C232.743 12.8643 232.863 13.1917 233.09 13.421C233.318 13.6516 233.615 13.7665 233.983 13.7665C234.228 13.7665 234.44 13.7139 234.618 13.6087C234.796 13.5019 234.924 13.3455 235 13.1365L235.813 13.2836C235.716 13.641 235.505 13.9295 235.182 14.1478C234.858 14.3664 234.455 14.4753 233.975 14.4753ZM232.733 11.7951H235.026C235.024 11.458 234.923 11.1788 234.722 10.9578C234.521 10.7365 234.253 10.6261 233.92 10.6261C233.688 10.6261 233.485 10.68 233.313 10.7878C233.139 10.8969 233.003 11.0387 232.902 11.2167C232.801 11.3931 232.745 11.5861 232.733 11.7951ZM177.272 22.4708V16.5867H179.37C179.826 16.5867 180.204 16.6662 180.504 16.8226C180.805 16.9804 181.031 17.196 181.181 17.4738C181.332 17.7504 181.406 18.0699 181.406 18.4312C181.406 18.8263 181.317 19.1674 181.138 19.4559C180.959 19.7444 180.689 19.9547 180.326 20.0895L181.631 22.4708H180.62L179.424 20.2445C179.405 20.2445 179.387 20.2445 179.368 20.2445H178.161V22.4708H177.272ZM178.161 19.4802H179.287C179.719 19.4802 180.032 19.3883 180.225 19.2036C180.416 19.0203 180.514 18.7627 180.514 18.4312C180.514 18.0981 180.417 17.8339 180.224 17.6396C180.029 17.4456 179.714 17.3484 179.274 17.3484H178.161V19.4802ZM184.323 22.5596C183.89 22.5596 183.516 22.4651 183.202 22.2778C182.888 22.0904 182.647 21.8262 182.477 21.4865C182.307 21.1467 182.222 20.749 182.222 20.2931C182.222 19.8415 182.307 19.4422 182.477 19.0985C182.647 18.7534 182.884 18.4838 183.188 18.2908C183.495 18.0968 183.852 18.001 184.262 18.001C184.595 18.001 184.91 18.0752 185.208 18.2236C185.506 18.372 185.749 18.6076 185.935 18.9327C186.123 19.2575 186.215 19.6865 186.215 20.2189V20.5224H183.078C183.09 20.9483 183.21 21.2761 183.438 21.5051C183.666 21.7357 183.963 21.8505 184.331 21.8505C184.576 21.8505 184.787 21.7979 184.966 21.6928C185.144 21.5859 185.272 21.4295 185.347 21.2209L186.16 21.3676C186.063 21.725 185.853 22.0136 185.529 22.2319C185.206 22.4505 184.802 22.5596 184.323 22.5596ZM183.081 19.8792H185.374C185.371 19.5421 185.27 19.2632 185.07 19.0419C184.869 18.8209 184.6 18.7101 184.267 18.7101C184.035 18.7101 183.833 18.764 183.66 18.8722C183.487 18.9813 183.351 19.1228 183.249 19.3008C183.148 19.4775 183.093 19.6702 183.081 19.8792ZM190.479 19.1351L189.7 19.2738C189.65 19.1254 189.558 18.9907 189.423 18.8669C189.288 18.7424 189.086 18.6818 188.818 18.6818C188.575 18.6818 188.371 18.7358 188.207 18.8439C188.044 18.9517 187.963 19.0918 187.964 19.2615C187.963 19.4113 188.017 19.5301 188.127 19.6189C188.237 19.7081 188.413 19.7823 188.657 19.8385L189.358 20.0006C190.162 20.1853 190.565 20.5843 190.565 21.1952C190.565 21.4608 190.488 21.6968 190.336 21.9018C190.183 22.1067 189.972 22.2671 189.701 22.3842C189.43 22.5017 189.117 22.5596 188.761 22.5596C188.265 22.5596 187.862 22.4545 187.551 22.2428C187.24 22.0312 187.049 21.729 186.976 21.3394L187.806 21.2126C187.91 21.6495 188.226 21.8681 188.754 21.8681C189.036 21.8681 189.261 21.8086 189.43 21.6911C189.598 21.5726 189.682 21.4282 189.682 21.2585C189.682 20.9766 189.474 20.7906 189.059 20.6978L188.312 20.5344C187.898 20.4429 187.593 20.2931 187.399 20.0868C187.204 19.8791 187.105 19.6203 187.105 19.3075C187.105 19.0472 187.178 18.8196 187.324 18.6226C187.469 18.4256 187.67 18.2735 187.928 18.1641C188.184 18.0549 188.478 18.001 188.81 18.001C189.286 18.001 189.662 18.1035 189.935 18.3111C190.209 18.5174 190.39 18.7926 190.479 19.1351ZM193.365 22.5596C192.952 22.5596 192.59 22.4651 192.283 22.2751C191.974 22.0851 191.734 21.8192 191.564 21.4784C191.393 21.1357 191.308 20.738 191.308 20.2851C191.308 19.8266 191.393 19.4263 191.564 19.0838C191.734 18.7411 191.974 18.4742 192.283 18.2855C192.59 18.0955 192.952 18.001 193.365 18.001C193.781 18.001 194.142 18.0955 194.45 18.2855C194.757 18.4742 194.996 18.7411 195.167 19.0838C195.337 19.4263 195.422 19.8266 195.422 20.2851C195.422 20.738 195.337 21.1357 195.167 21.4784C194.996 21.8192 194.757 22.0851 194.45 22.2751C194.142 22.4651 193.781 22.5596 193.365 22.5596ZM193.368 21.8385C193.638 21.8385 193.86 21.768 194.036 21.6265C194.211 21.4838 194.342 21.2947 194.427 21.0588C194.512 20.8215 194.555 20.563 194.555 20.2808C194.555 20.0006 194.512 19.7404 194.427 19.5031C194.342 19.2658 194.211 19.0758 194.036 18.9327C193.86 18.7896 193.638 18.7184 193.368 18.7184C193.098 18.7184 192.875 18.7896 192.699 18.9327C192.523 19.0758 192.392 19.2658 192.306 19.5031C192.219 19.7404 192.176 20.0006 192.176 20.2808C192.176 20.563 192.219 20.8215 192.306 21.0588C192.392 21.2947 192.523 21.4838 192.699 21.6265C192.875 21.768 193.098 21.8385 193.368 21.8385ZM197.238 16.5867V22.4708H196.379V16.5867H197.238ZM201.188 20.6409V18.0575H202.051V22.4708H201.206V21.7061H201.16C201.059 21.942 200.896 22.1377 200.673 22.2941C200.449 22.4505 200.173 22.5287 199.841 22.5287C199.418 22.5287 199.071 22.3883 198.801 22.1067C198.529 21.8262 198.393 21.4123 198.393 20.8648V18.0575H199.252V20.761C199.252 21.0615 199.336 21.3014 199.503 21.4798C199.669 21.6578 199.886 21.7467 200.152 21.7467C200.313 21.7467 200.474 21.7061 200.633 21.6265C200.793 21.5457 200.925 21.4229 201.032 21.2598C201.139 21.0954 201.191 20.8891 201.188 20.6409ZM205.263 18.0575V18.748H204.358V21.175C204.358 21.4242 204.411 21.5849 204.517 21.6562C204.624 21.7277 204.747 21.7643 204.887 21.7643C204.955 21.7643 205.016 21.7586 205.067 21.7493C205.119 21.74 205.159 21.7317 205.189 21.7264L205.343 22.4355C205.294 22.4558 205.222 22.4748 205.13 22.4947C205.036 22.515 204.922 22.5257 204.785 22.5287C204.56 22.5314 204.349 22.4921 204.152 22.4072C203.956 22.3237 203.798 22.1929 203.679 22.0162C203.559 21.8408 203.499 21.6199 203.499 21.353V18.748H202.852V18.0575H203.499V17.0007H204.358V18.0575H205.263ZM206.211 22.4708V18.0575H207.07V22.4708H206.211ZM206.645 17.3767C206.495 17.3767 206.368 17.3268 206.262 17.2256C206.155 17.1261 206.101 17.006 206.101 16.8655C206.101 16.7241 206.155 16.6027 206.262 16.5032C206.368 16.402 206.495 16.3521 206.645 16.3521C206.793 16.3521 206.92 16.402 207.028 16.5032C207.134 16.6027 207.188 16.7241 207.188 16.8655C207.188 17.006 207.134 17.1261 207.028 17.2256C206.92 17.3268 206.793 17.3767 206.645 17.3767ZM210.084 22.5596C209.671 22.5596 209.309 22.4651 209.002 22.2751C208.693 22.0851 208.453 21.8192 208.283 21.4784C208.112 21.1357 208.027 20.738 208.027 20.2851C208.027 19.8266 208.112 19.4263 208.283 19.0838C208.453 18.7411 208.693 18.4742 209.002 18.2855C209.309 18.0955 209.671 18.001 210.084 18.001C210.499 18.001 210.861 18.0955 211.168 18.2855C211.476 18.4742 211.714 18.7411 211.886 19.0838C212.056 19.4263 212.14 19.8266 212.14 20.2851C212.14 20.738 212.056 21.1357 211.886 21.4784C211.714 21.8192 211.476 22.0851 211.168 22.2751C210.861 22.4651 210.499 22.5596 210.084 22.5596ZM210.087 21.8385C210.357 21.8385 210.579 21.768 210.754 21.6265C210.93 21.4838 211.061 21.2947 211.145 21.0588C211.231 20.8215 211.273 20.563 211.273 20.2808C211.273 20.0006 211.231 19.7404 211.145 19.5031C211.061 19.2658 210.93 19.0758 210.754 18.9327C210.579 18.7896 210.357 18.7184 210.087 18.7184C209.817 18.7184 209.594 18.7896 209.418 18.9327C209.242 19.0758 209.111 19.2658 209.025 19.5031C208.938 19.7404 208.895 20.0006 208.895 20.2808C208.895 20.563 208.938 20.8215 209.025 21.0588C209.111 21.2947 209.242 21.4838 209.418 21.6265C209.594 21.768 209.817 21.8385 210.087 21.8385ZM213.957 19.8509V22.4708H213.098V18.0575H213.923V18.7763H213.977C214.079 18.5431 214.238 18.3544 214.455 18.2126C214.672 18.0712 214.948 18.001 215.278 18.001C215.731 18.001 216.094 18.1411 216.369 18.4233C216.644 18.7048 216.781 19.1174 216.781 19.6635V22.4708H215.922V19.7673C215.922 19.4476 215.839 19.1969 215.672 19.0163C215.506 18.8356 215.277 18.744 214.985 18.744C214.687 18.744 214.44 18.8409 214.248 19.0339C214.054 19.2253 213.957 19.4978 213.957 19.8509ZM223.35 18.1331C223.321 17.8609 223.194 17.6492 222.971 17.4995C222.749 17.3484 222.47 17.2742 222.133 17.2742C221.771 17.2742 221.483 17.3567 221.271 17.5211C221.058 17.6855 220.952 17.8931 220.952 18.1441C220.952 18.3314 221.01 18.4852 221.123 18.6023C221.237 18.7198 221.376 18.8126 221.542 18.8802C221.708 18.9461 221.867 19.0003 222.021 19.0406L222.595 19.1903C222.782 19.2362 222.975 19.2982 223.172 19.3777C223.37 19.4572 223.552 19.561 223.721 19.6878C223.89 19.8159 224.026 19.9736 224.131 20.1637C224.235 20.3537 224.287 20.5803 224.287 20.8445C224.287 21.1763 224.201 21.4715 224.03 21.7317C223.859 21.9933 223.612 22.1969 223.288 22.345C222.963 22.4934 222.571 22.5676 222.11 22.5676C221.45 22.5676 220.926 22.4139 220.536 22.1051C220.147 21.7979 219.938 21.377 219.909 20.8445H220.799C220.826 21.1643 220.965 21.4016 221.216 21.5563C221.467 21.7127 221.763 21.7896 222.105 21.7896C222.481 21.7896 222.793 21.7021 223.039 21.528C223.286 21.354 223.408 21.1237 223.408 20.8366C223.408 20.6612 223.358 20.5184 223.26 20.4063C223.161 20.2945 223.028 20.2029 222.861 20.1314C222.694 20.0585 222.505 19.9949 222.293 19.94L221.599 19.7497C221.126 19.6216 220.752 19.4329 220.478 19.1837C220.205 18.9354 220.067 18.6063 220.067 18.1967C220.067 17.8566 220.159 17.5614 220.344 17.3082C220.527 17.0559 220.776 16.8589 221.092 16.7175C221.406 16.5774 221.76 16.5072 222.153 16.5072C222.551 16.5072 222.903 16.5774 223.209 16.7162C223.513 16.8562 223.755 17.0492 223.931 17.2945C224.107 17.5388 224.2 17.8189 224.206 18.1331H223.35ZM225.278 24.125V18.0575H226.117V18.7737H226.19C226.241 18.6818 226.314 18.5753 226.407 18.4542C226.499 18.3341 226.629 18.2276 226.796 18.1371C226.965 18.0456 227.185 18.001 227.456 18.001C227.813 18.001 228.13 18.0898 228.409 18.2705C228.687 18.4499 228.906 18.7101 229.068 19.0485C229.229 19.3883 229.31 19.7956 229.31 20.2728C229.31 20.7474 229.23 21.156 229.071 21.4984C228.912 21.8395 228.693 22.1024 228.416 22.2844C228.138 22.4651 227.821 22.557 227.465 22.557C227.197 22.557 226.978 22.5124 226.81 22.4222C226.641 22.3317 226.509 22.2265 226.412 22.1051C226.315 21.9853 226.241 21.8774 226.19 21.7843H226.137V24.125H225.278ZM226.121 20.2648C226.121 20.7274 226.219 21.1034 226.419 21.3919C226.618 21.6804 226.903 21.8249 227.272 21.8249C227.528 21.8249 227.744 21.756 227.917 21.6185C228.091 21.4821 228.222 21.2964 228.309 21.0602C228.397 20.8246 228.441 20.5586 228.441 20.2648C228.441 19.971 228.398 19.7094 228.31 19.4788C228.224 19.2482 228.093 19.0648 227.921 18.9314C227.75 18.798 227.532 18.7304 227.272 18.7304C226.898 18.7304 226.612 18.8705 226.415 19.1511C226.218 19.4316 226.121 19.8023 226.121 20.2648ZM232.173 22.5596C231.741 22.5596 231.367 22.4651 231.053 22.2778C230.739 22.0904 230.497 21.8262 230.328 21.4865C230.158 21.1467 230.073 20.749 230.073 20.2931C230.073 19.8415 230.158 19.4422 230.328 19.0985C230.497 18.7534 230.735 18.4838 231.04 18.2908C231.346 18.0968 231.703 18.001 232.113 18.001C232.446 18.001 232.761 18.0752 233.059 18.2236C233.357 18.372 233.6 18.6076 233.786 18.9327C233.973 19.2575 234.066 19.6865 234.066 20.2189V20.5224H230.929C230.941 20.9483 231.061 21.2761 231.289 21.5051C231.517 21.7357 231.814 21.8505 232.182 21.8505C232.427 21.8505 232.638 21.7979 232.817 21.6928C232.995 21.5859 233.123 21.4295 233.198 21.2209L234.011 21.3676C233.914 21.725 233.704 22.0136 233.38 22.2319C233.056 22.4505 232.653 22.5596 232.173 22.5596ZM230.932 19.8792H233.225C233.222 19.5421 233.121 19.2632 232.92 19.0419C232.719 18.8209 232.451 18.7101 232.118 18.7101C231.886 18.7101 231.684 18.764 231.511 18.8722C231.337 18.9813 231.201 19.1228 231.1 19.3008C230.999 19.4775 230.944 19.6702 230.932 19.8792ZM236.882 22.5596C236.454 22.5596 236.087 22.4625 235.78 22.2685C235.473 22.0741 235.237 21.8046 235.071 21.4621C234.906 21.1197 234.824 20.7274 234.824 20.2851C234.824 19.8349 234.909 19.4382 235.077 19.0944C235.246 18.752 235.483 18.4838 235.791 18.2908C236.098 18.0968 236.46 18.001 236.872 18.001C237.208 18.001 237.507 18.0619 237.769 18.1857C238.032 18.3098 238.243 18.4825 238.405 18.7048C238.567 18.9261 238.664 19.186 238.694 19.4828H237.858C237.812 19.2765 237.707 19.0985 237.544 18.9491C237.379 18.7993 237.161 18.7251 236.887 18.7251C236.528 18.7251 236.24 18.8625 236.021 19.1391C235.802 19.4166 235.692 19.7916 235.692 20.2648C235.692 20.7447 235.8 21.1264 236.016 21.4096C236.233 21.6911 236.523 21.8329 236.887 21.8329C237.132 21.8329 237.341 21.7653 237.517 21.6319C237.691 21.4971 237.804 21.3124 237.858 21.0738H238.694C238.664 21.3596 238.571 21.6145 238.416 21.8385C238.261 22.0621 238.053 22.2388 237.793 22.3666C237.534 22.4947 237.229 22.5596 236.882 22.5596ZM239.616 22.4708V18.0575H240.475V22.4708H239.616ZM240.05 17.3767C239.901 17.3767 239.774 17.3268 239.667 17.2256C239.561 17.1261 239.507 17.006 239.507 16.8655C239.507 16.7241 239.561 16.6027 239.667 16.5032C239.774 16.402 239.901 16.3521 240.05 16.3521C240.198 16.3521 240.325 16.402 240.433 16.5032C240.54 16.6027 240.593 16.7241 240.593 16.8655C240.593 17.006 240.54 17.1261 240.433 17.2256C240.325 17.3268 240.198 17.3767 240.05 17.3767ZM242.915 22.5676C242.635 22.5676 242.383 22.5164 242.157 22.4125C241.933 22.31 241.754 22.1577 241.622 21.9583C241.49 21.7573 241.424 21.5134 241.424 21.2235C241.424 20.9726 241.473 20.7677 241.568 20.6059C241.665 20.4455 241.795 20.3174 241.956 20.2245C242.119 20.13 242.301 20.0599 242.501 20.0126C242.702 19.9653 242.907 19.9304 243.116 19.9047C243.38 19.8751 243.595 19.8495 243.758 19.8292C243.921 19.8089 244.041 19.7753 244.116 19.7297C244.192 19.6838 244.231 19.6096 244.231 19.5058V19.4855C244.231 19.2349 244.16 19.0406 244.02 18.9031C243.879 18.764 243.669 18.6955 243.391 18.6955C243.103 18.6955 242.875 18.7587 242.709 18.8855C242.543 19.0123 242.43 19.1537 242.366 19.3101L241.559 19.1267C241.703 18.7251 241.942 18.4366 242.279 18.2625C242.615 18.0875 242.981 18.001 243.38 18.001C243.557 18.001 243.743 18.0213 243.94 18.0619C244.138 18.1035 244.324 18.179 244.5 18.2895C244.675 18.3986 244.818 18.555 244.927 18.756C245.038 18.957 245.093 19.2186 245.093 19.5407V22.4708H244.254V21.8681H244.219C244.137 22.0325 243.99 22.1903 243.779 22.3413C243.569 22.4921 243.281 22.5676 242.915 22.5676ZM243.101 21.8788C243.341 21.8788 243.545 21.8315 243.713 21.7384C243.882 21.6442 244.011 21.5214 244.101 21.369C244.189 21.2169 244.234 21.0535 244.234 20.8798V20.3108C244.193 20.351 244.105 20.386 243.969 20.4172C243.833 20.4469 243.689 20.4725 243.538 20.4941C243.387 20.5157 243.264 20.5317 243.17 20.5454C242.922 20.579 242.709 20.6438 242.531 20.742C242.354 20.8418 242.265 21.0052 242.265 21.2355C242.265 21.4472 242.343 21.6076 242.501 21.717C242.658 21.8249 242.859 21.8788 243.101 21.8788ZM247.093 16.5867V22.4708H246.235V16.5867H247.093ZM248.249 22.4708V18.0575H249.108V22.4708H248.249ZM248.683 17.3767C248.534 17.3767 248.407 17.3268 248.3 17.2256C248.194 17.1261 248.14 17.006 248.14 16.8655C248.14 16.7241 248.194 16.6027 248.3 16.5032C248.407 16.402 248.534 16.3521 248.683 16.3521C248.832 16.3521 248.958 16.402 249.066 16.5032C249.173 16.6027 249.227 16.7241 249.227 16.8655C249.227 17.006 249.173 17.1261 249.066 17.2256C248.958 17.3268 248.832 17.3767 248.683 17.3767ZM253.571 19.1351L252.792 19.2738C252.742 19.1254 252.65 18.9907 252.515 18.8669C252.38 18.7424 252.178 18.6818 251.91 18.6818C251.667 18.6818 251.463 18.7358 251.299 18.8439C251.136 18.9517 251.055 19.0918 251.056 19.2615C251.055 19.4113 251.109 19.5301 251.22 19.6189C251.329 19.7081 251.505 19.7823 251.749 19.8385L252.45 20.0006C253.254 20.1853 253.657 20.5843 253.657 21.1952C253.657 21.4608 253.58 21.6968 253.428 21.9018C253.276 22.1067 253.064 22.2671 252.793 22.3842C252.522 22.5017 252.209 22.5596 251.853 22.5596C251.357 22.5596 250.954 22.4545 250.644 22.2428C250.332 22.0312 250.141 21.729 250.068 21.3394L250.899 21.2126C251.003 21.6495 251.318 21.8681 251.846 21.8681C252.128 21.8681 252.354 21.8086 252.522 21.6911C252.69 21.5726 252.774 21.4282 252.774 21.2585C252.774 20.9766 252.566 20.7906 252.151 20.6978L251.404 20.5344C250.99 20.4429 250.685 20.2931 250.491 20.0868C250.296 19.8791 250.198 19.6203 250.198 19.3075C250.198 19.0472 250.27 18.8196 250.416 18.6226C250.562 18.4256 250.763 18.2735 251.02 18.1641C251.276 18.0549 251.57 18.001 251.902 18.001C252.378 18.001 252.754 18.1035 253.027 18.3111C253.301 18.5174 253.482 18.7926 253.571 19.1351ZM256.658 18.0575V18.748H255.754V21.175C255.754 21.4242 255.806 21.5849 255.913 21.6562C256.019 21.7277 256.142 21.7643 256.282 21.7643C256.351 21.7643 256.412 21.7586 256.463 21.7493C256.514 21.74 256.555 21.7317 256.584 21.7264L256.739 22.4355C256.69 22.4558 256.618 22.4748 256.525 22.4947C256.432 22.515 256.317 22.5257 256.181 22.5287C255.956 22.5314 255.745 22.4921 255.548 22.4072C255.352 22.3237 255.194 22.1929 255.074 22.0162C254.954 21.8408 254.895 21.6199 254.895 21.353V18.748H254.248V18.0575H254.895V17.0007H255.754V18.0575H256.658ZM260.914 19.1351L260.134 19.2738C260.085 19.1254 259.993 18.9907 259.858 18.8669C259.723 18.7424 259.521 18.6818 259.253 18.6818C259.01 18.6818 258.806 18.7358 258.642 18.8439C258.479 18.9517 258.398 19.0918 258.399 19.2615C258.398 19.4113 258.452 19.5301 258.562 19.6189C258.672 19.7081 258.848 19.7823 259.092 19.8385L259.793 20.0006C260.597 20.1853 261 20.5843 261 21.1952C261 21.4608 260.923 21.6968 260.771 21.9018C260.618 22.1067 260.407 22.2671 260.136 22.3842C259.865 22.5017 259.552 22.5596 259.196 22.5596C258.7 22.5596 258.297 22.4545 257.986 22.2428C257.675 22.0312 257.484 21.729 257.411 21.3394L258.241 21.2126C258.345 21.6495 258.661 21.8681 259.189 21.8681C259.471 21.8681 259.696 21.8086 259.865 21.6911C260.033 21.5726 260.117 21.4282 260.117 21.2585C260.117 20.9766 259.909 20.7906 259.494 20.6978L258.747 20.5344C258.333 20.4429 258.028 20.2931 257.834 20.0868C257.639 19.8791 257.54 19.6203 257.54 19.3075C257.54 19.0472 257.613 18.8196 257.759 18.6226C257.904 18.4256 258.105 18.2735 258.363 18.1641C258.619 18.0549 258.913 18.001 259.245 18.001C259.721 18.001 260.097 18.1035 260.37 18.3111C260.644 18.5174 260.825 18.7926 260.914 19.1351Z" fill="#6EAA78"/>
<path fill-rule="evenodd" clip-rule="evenodd" d="M180.293 32.492C180.293 32.7013 180.178 32.8268 179.935 32.8268H179.532V32.1649H179.935C180.178 32.1649 180.293 32.2943 180.293 32.492ZM179.841 30.344C181.282 30.344 182.458 31.5194 182.458 32.9599C182.458 34.4012 181.282 35.5765 179.841 35.5765C178.4 35.5765 177.225 34.4012 177.225 32.9599C177.225 31.5194 178.4 30.344 179.841 30.344ZM179.841 30.8012C181.03 30.8012 182 31.7713 182 32.9599C182 34.1493 181.03 35.1193 179.841 35.1193C178.652 35.1193 177.682 34.1493 177.682 32.9599C177.682 31.7713 178.652 30.8012 179.841 30.8012ZM178.881 31.6248V34.296H179.532V33.287H179.688L180.243 34.296H180.977L180.361 33.2378C180.772 33.116 180.954 32.8002 180.954 32.4654C180.954 32.0012 180.627 31.6248 179.973 31.6248H178.881Z" fill="#ECECEC"/>
<path fill-rule="evenodd" clip-rule="evenodd" d="M32.2467 29.2238L30.2221 31.2484L8.38121 18.6715C7.27807 18.0363 6.59822 17.0207 6.4315 15.7585C6.26478 14.4966 6.66145 13.3435 7.55761 12.4391L12.9362 7.0079L39.8951 7.0082V2.75141L7.82881 2.75171L4.61357 5.96031L8.63346 8.36359L6.60886 10.3882L0 6.57659L6.58325 0.000355439L42.7503 0V9.86309H14.0783L9.68735 14.254C9.38786 14.5538 9.25674 14.9392 9.31198 15.3598C9.36689 15.7794 9.59284 16.1182 9.95955 16.3302L32.2467 29.2238ZM13.5974 14.4167L15.622 12.3921L37.4629 24.9693C38.5657 25.6045 39.2455 26.6202 39.4123 27.882C39.5793 29.1439 39.1827 30.2973 38.2865 31.2018L32.9076 36.6326H5.94865L5.94898 40.8895L38.0153 40.8891L41.2305 37.6802L37.2106 35.2769L39.2352 33.2523L45.8438 37.0639L39.2608 43.6405L3.0938 43.6408L3.09345 33.7778H31.7655L36.1564 29.3865C36.4562 29.087 36.587 28.7013 36.5321 28.281C36.4772 27.8614 36.2509 27.5223 35.8842 27.3106L13.5974 14.4167Z" fill="#6EAA78"/>
</svg>
