<svg width="222" height="38" viewBox="0 0 222 38" fill="none" xmlns="http://www.w3.org/2000/svg">
<path d="M45.2075 27.3789H55.4921C56.6783 27.3789 57.6288 27.1242 58.3392 26.6186C59.0494 26.1131 59.4069 25.4378 59.4069 24.5965V22.8496C59.4069 22.181 59.1533 21.6203 58.6463 21.1674C58.1397 20.7142 57.4224 20.4125 56.4952 20.2614L50.6069 19.2908C48.8817 19.0106 47.5497 18.4173 46.6117 17.5116C45.6734 16.6055 45.2041 15.4733 45.2041 14.1147V12.3352C45.2041 10.7175 45.8254 9.41696 47.0643 8.43676C48.3035 7.45657 49.9384 6.9646 51.9658 6.9646H61.0916V9.71471H51.9658C50.8679 9.71471 49.9763 9.95757 49.2967 10.4427C48.6174 10.9279 48.2777 11.591 48.2777 12.4322V13.888C48.2777 14.5783 48.5203 15.1498 49.0054 15.6027C49.4909 16.0558 50.1863 16.3683 51.0924 16.541L56.9155 17.5438C58.7058 17.8458 60.0808 18.4337 61.0404 19.3072C62.0002 20.1807 62.4802 21.2752 62.4802 22.5909V24.6936C62.4802 26.3328 61.8479 27.6501 60.5878 28.6404C59.3271 29.6314 57.6463 30.129 55.5569 30.129H45.2075V27.3789V27.3789ZM73.5446 30.129C72.0778 30.129 70.7894 29.8108 69.6784 29.1743C68.5677 28.5383 67.7104 27.6379 67.1064 26.4731C66.5026 25.3084 66.2006 23.9713 66.2006 22.4612V7.22361H69.2739V22.4612C69.2739 23.928 69.6677 25.1142 70.4548 26.02C71.242 26.926 72.272 27.3789 73.5446 27.3789H77.0063C78.2788 27.3789 79.3086 26.926 80.0957 26.02C80.8829 25.1142 81.2766 23.928 81.2766 22.4612V7.22361H84.3502V22.4612C84.3502 23.9713 84.0482 25.3084 83.4442 26.4731C82.8402 27.6379 81.9831 28.5383 80.8721 29.1743C79.7614 29.8108 78.4727 30.129 77.0063 30.129H73.5446ZM91.4675 29.87C90.7126 29.87 90.1139 29.6543 89.6721 29.2229C89.23 28.7916 89.0086 28.2093 89.0086 27.476V7.22361H92.0823V27.1525H104.376V29.87H91.4675ZM107.417 7.22361H110.491V17.1235H122.331V7.22361H125.437V29.87H122.331V19.8408H110.491V29.87H107.417V7.22361ZM143.198 23.9172H133.751L131.552 29.87H128.349L137.116 7.22361H138.508C139.435 7.22361 140.093 7.73027 140.481 8.74415L148.601 29.87H145.431L143.198 23.9172ZM134.657 21.329H142.292L138.508 11.1059H138.475L134.657 21.329V21.329Z" fill="#003250"/>
<path d="M150.783 7.23195H151.699L153.294 11.1222H153.352L154.945 7.23195H155.861V12.2368H155.143V8.61523H155.096L153.62 12.23H153.024L151.548 8.61294H151.502V12.2368H150.783V7.23195V7.23195ZM159.404 10.6806V8.48333H160.138V12.2368H159.419V11.5866H159.38C159.294 11.7873 159.155 11.9535 158.966 12.0868C158.775 12.2199 158.54 12.2861 158.258 12.2861C157.898 12.2861 157.603 12.1669 157.373 11.9271C157.142 11.6885 157.026 11.3364 157.026 10.8708V8.48333H157.757V10.7828C157.757 11.0384 157.828 11.2425 157.97 11.3939C158.111 11.5453 158.296 11.6212 158.522 11.6212C158.659 11.6212 158.796 11.5867 158.931 11.519C159.068 11.4502 159.18 11.3458 159.271 11.2071C159.361 11.067 159.406 10.8918 159.404 10.6806ZM163.93 9.39955L163.267 9.51785C163.225 9.39161 163.147 9.277 163.032 9.17143C162.917 9.06585 162.746 9.0143 162.517 9.0143C162.311 9.0143 162.138 9.06015 161.998 9.15186C161.859 9.24357 161.79 9.36276 161.791 9.5074C161.79 9.63477 161.836 9.73551 161.93 9.81137C162.023 9.88694 162.173 9.95009 162.381 9.99821L162.977 10.1358C163.661 10.2931 164.004 10.6325 164.004 11.1519C164.004 11.378 163.938 11.5784 163.809 11.7528C163.679 11.9271 163.499 12.0636 163.268 12.1635C163.038 12.2632 162.772 12.3124 162.469 12.3124C162.047 12.3124 161.704 12.223 161.441 12.0429C161.176 11.8632 161.013 11.6062 160.951 11.2747L161.657 11.1669C161.745 11.5385 162.014 11.7242 162.463 11.7242C162.703 11.7242 162.895 11.6739 163.038 11.5739C163.181 11.4732 163.252 11.3503 163.252 11.206C163.252 10.9662 163.076 10.808 162.722 10.7288L162.087 10.59C161.735 10.5119 161.476 10.3846 161.311 10.2094C161.145 10.0327 161.061 9.81251 161.061 9.54644C161.061 9.3251 161.123 9.13122 161.247 8.96394C161.37 8.79638 161.541 8.66674 161.76 8.5739C161.978 8.48106 162.228 8.43521 162.51 8.43521C162.915 8.43521 163.235 8.5224 163.468 8.69902C163.701 8.87451 163.854 9.1083 163.93 9.39955V9.39955ZM165.535 7.23195V12.2368H164.804V7.23195H165.535ZM166.518 12.2368V8.48333H167.248V12.2368H166.518ZM166.887 7.9042C166.76 7.9042 166.652 7.86175 166.561 7.77571C166.471 7.69079 166.424 7.58861 166.424 7.46945C166.424 7.34915 166.471 7.24582 166.561 7.1609C166.652 7.07514 166.76 7.03271 166.887 7.03271C167.013 7.03271 167.121 7.07514 167.212 7.1609C167.303 7.24582 167.349 7.34915 167.349 7.46945C167.349 7.58861 167.303 7.69079 167.212 7.77571C167.121 7.86175 167.013 7.9042 166.887 7.9042ZM168.231 12.2368V8.48333H168.933V9.09442H168.979C169.057 8.88808 169.185 8.72647 169.363 8.60957C169.541 8.49267 169.753 8.43521 170 8.43521C170.252 8.43521 170.462 8.49351 170.632 8.61069C170.802 8.72759 170.928 8.88921 171.01 9.09442H171.049C171.139 8.89402 171.283 8.73468 171.478 8.61411C171.672 8.49466 171.904 8.43521 172.175 8.43521C172.515 8.43521 172.794 8.54189 173.01 8.75616C173.225 8.97071 173.333 9.29171 173.333 9.71968V12.2368H172.603V9.78843C172.603 9.53369 172.534 9.35027 172.396 9.23677C172.258 9.12214 172.092 9.0647 171.899 9.0647C171.661 9.0647 171.477 9.13831 171.344 9.28493C171.212 9.43183 171.146 9.61862 171.146 9.84449V12.2368H170.418V9.74261C170.418 9.53853 170.355 9.37437 170.227 9.25068C170.1 9.1267 169.935 9.0647 169.732 9.0647C169.524 9.0647 169.345 9.14509 169.192 9.30445C169.038 9.46381 168.961 9.67015 168.961 9.92263V12.2368H168.231V12.2368ZM177.811 12.2368H176.191V7.23195H177.863C178.355 7.23195 178.776 7.33188 179.127 7.53143C179.479 7.73098 179.748 8.0177 179.937 8.38935C180.125 8.76212 180.219 9.20819 180.219 9.72758C180.219 10.2484 180.123 10.6967 179.935 11.0718C179.746 11.4454 179.472 11.7333 179.113 11.9351C178.753 12.1361 178.32 12.2368 177.811 12.2368V12.2368ZM176.947 11.5773H177.77C178.34 11.5773 178.767 11.4168 179.05 11.097C179.333 10.7772 179.476 10.3206 179.476 9.72758C179.476 9.13827 179.336 8.68398 179.057 8.36754C178.777 8.05109 178.364 7.89288 177.816 7.89288H176.947V11.5773V11.5773ZM181.098 12.2368V8.48333H181.829V12.2368H181.098ZM181.468 7.9042C181.34 7.9042 181.232 7.86175 181.142 7.77571C181.051 7.69079 181.005 7.58861 181.005 7.46945C181.005 7.34915 181.051 7.24582 181.142 7.1609C181.232 7.07514 181.34 7.03271 181.468 7.03271C181.594 7.03271 181.702 7.07514 181.793 7.1609C181.884 7.24582 181.93 7.34915 181.93 7.46945C181.93 7.58861 181.884 7.69079 181.793 7.77571C181.702 7.86175 181.594 7.9042 181.468 7.9042ZM185.625 9.39955L184.962 9.51785C184.92 9.39161 184.842 9.277 184.727 9.17143C184.612 9.06585 184.44 9.0143 184.212 9.0143C184.006 9.0143 183.832 9.06015 183.693 9.15186C183.554 9.24357 183.485 9.36276 183.486 9.5074C183.485 9.63477 183.531 9.73551 183.625 9.81137C183.718 9.88694 183.868 9.95009 184.076 9.99821L184.672 10.1358C185.355 10.2931 185.698 10.6325 185.698 11.1519C185.698 11.378 185.633 11.5784 185.503 11.7528C185.374 11.9271 185.194 12.0636 184.963 12.1635C184.733 12.2632 184.466 12.3124 184.164 12.3124C183.742 12.3124 183.399 12.223 183.135 12.0429C182.87 11.8632 182.707 11.6062 182.645 11.2747L183.352 11.1669C183.44 11.5385 183.708 11.7242 184.158 11.7242C184.398 11.7242 184.589 11.6739 184.733 11.5739C184.876 11.4732 184.947 11.3503 184.947 11.206C184.947 10.9662 184.77 10.808 184.417 10.7288L183.782 10.59C183.43 10.5119 183.171 10.3846 183.005 10.2094C182.839 10.0327 182.755 9.81251 182.755 9.54644C182.755 9.3251 182.817 9.13122 182.941 8.96394C183.065 8.79638 183.236 8.66674 183.455 8.5739C183.673 8.48106 183.923 8.43521 184.205 8.43521C184.61 8.43521 184.93 8.5224 185.163 8.69902C185.395 8.87451 185.549 9.1083 185.625 9.39955V9.39955ZM186.499 13.6442V8.48333H187.212V9.09243H187.274C187.318 9.01431 187.38 8.92374 187.459 8.82042C187.537 8.71824 187.648 8.62795 187.79 8.55096C187.933 8.47312 188.12 8.43521 188.351 8.43521C188.655 8.43521 188.924 8.51077 189.162 8.66447C189.398 8.81703 189.585 9.03836 189.722 9.32622C189.859 9.61521 189.928 9.96167 189.928 10.3676C189.928 10.7712 189.86 11.1188 189.725 11.41C189.589 11.7002 189.404 11.9238 189.167 12.0786C188.931 12.2323 188.662 12.3104 188.359 12.3104C188.131 12.3104 187.945 12.2725 187.802 12.1955C187.658 12.1188 187.546 12.0293 187.463 11.926C187.381 11.8241 187.318 11.7322 187.274 11.6532H187.229V13.6442H186.499V13.6442ZM187.215 10.3608C187.215 10.7539 187.299 11.0741 187.469 11.3195C187.639 11.5649 187.881 11.6874 188.195 11.6874C188.413 11.6874 188.596 11.6291 188.743 11.5122C188.891 11.3962 189.002 11.2379 189.077 11.0373C189.151 10.8366 189.189 10.6107 189.189 10.3608C189.189 10.1106 189.152 9.88808 189.078 9.69221C189.005 9.49606 188.893 9.34013 188.746 9.22662C188.601 9.11284 188.416 9.05563 188.195 9.05563C187.876 9.05563 187.633 9.17481 187.466 9.41342C187.298 9.65203 187.215 9.96735 187.215 10.3608V10.3608ZM193.123 10.6806V8.48333H193.857V12.2368H193.138V11.5866H193.099C193.013 11.7873 192.874 11.9535 192.685 12.0868C192.494 12.2199 192.259 12.2861 191.977 12.2861C191.617 12.2861 191.322 12.1669 191.092 11.9271C190.861 11.6885 190.746 11.3364 190.746 10.8708V8.48333H191.476V10.7828C191.476 11.0384 191.547 11.2425 191.689 11.3939C191.83 11.5453 192.015 11.6212 192.241 11.6212C192.379 11.6212 192.515 11.5867 192.65 11.519C192.787 11.4502 192.899 11.3458 192.99 11.2071C193.08 11.067 193.125 10.8918 193.123 10.6806ZM196.589 8.48333V9.07036H195.819V11.1349C195.819 11.3469 195.864 11.4833 195.954 11.5442C196.045 11.605 196.149 11.6359 196.268 11.6359C196.327 11.6359 196.379 11.6314 196.422 11.6232C196.466 11.6153 196.5 11.6085 196.525 11.6037L196.657 12.2071C196.615 12.2241 196.554 12.2402 196.475 12.2575C196.396 12.2748 196.298 12.2838 196.183 12.2861C195.991 12.2883 195.811 12.2552 195.643 12.183C195.477 12.112 195.343 12.0005 195.241 11.8504C195.139 11.7013 195.088 11.5134 195.088 11.2861V9.07036H194.538V8.48333H195.088V7.58407H195.819V8.48333H196.589V8.48333ZM199.013 12.3124C198.645 12.3124 198.327 12.2323 198.06 12.073C197.793 11.9136 197.587 11.6886 197.443 11.3996C197.298 11.1106 197.226 10.7723 197.226 10.3845C197.226 10.0004 197.298 9.66106 197.443 9.36867C197.587 9.07515 197.789 8.84563 198.049 8.68174C198.309 8.51672 198.613 8.43521 198.961 8.43521C199.244 8.43521 199.513 8.4983 199.766 8.62426C200.02 8.7505 200.226 8.95121 200.385 9.22775C200.544 9.504 200.623 9.86854 200.623 10.3217V10.5798H197.954C197.965 10.9421 198.067 11.2207 198.261 11.4157C198.454 11.6118 198.707 11.7095 199.02 11.7095C199.229 11.7095 199.409 11.6648 199.56 11.5753C199.711 11.4845 199.82 11.3515 199.884 11.1737L200.576 11.2988C200.494 11.6028 200.315 11.8482 200.039 12.0339C199.764 12.2198 199.421 12.3124 199.013 12.3124V12.3124ZM197.957 10.0327H199.907C199.905 9.74599 199.819 9.5085 199.648 9.32056C199.477 9.13233 199.249 9.03836 198.966 9.03836C198.769 9.03836 198.597 9.08421 198.45 9.17592C198.302 9.26876 198.186 9.38935 198.1 9.54078C198.014 9.6908 197.967 9.85496 197.957 10.0327V10.0327ZM150.783 19.1132V14.1083H152.568C152.955 14.1083 153.276 14.176 153.532 14.309C153.788 14.4432 153.981 14.6266 154.108 14.8629C154.236 15.0981 154.299 15.3699 154.299 15.6773C154.299 16.0132 154.224 16.3034 154.071 16.5488C153.919 16.7942 153.689 16.9731 153.381 17.0877L154.491 19.1132H153.631L152.613 17.2196C152.597 17.2196 152.581 17.2196 152.565 17.2196H151.539V19.1132H150.783V19.1132ZM151.539 16.5694H152.496C152.864 16.5694 153.131 16.4913 153.294 16.3342C153.457 16.1783 153.54 15.9592 153.54 15.6773C153.54 15.3939 153.457 15.1692 153.294 15.0039C153.128 14.8389 152.86 14.7562 152.486 14.7562H151.539V16.5694V16.5694ZM156.78 19.1888C156.412 19.1888 156.094 19.1084 155.827 18.949C155.56 18.7897 155.354 18.5649 155.21 18.2759C155.065 17.987 154.993 17.6487 154.993 17.2609C154.993 16.8768 155.065 16.5372 155.21 16.2448C155.354 15.9513 155.556 15.722 155.815 15.5578C156.076 15.3928 156.38 15.3113 156.728 15.3113C157.011 15.3113 157.28 15.3744 157.533 15.5007C157.787 15.6269 157.993 15.8273 158.152 16.1038C158.311 16.3801 158.39 16.7449 158.39 17.1978V17.4559H155.721C155.732 17.8182 155.834 18.0971 156.028 18.2918C156.221 18.488 156.474 18.5856 156.787 18.5856C156.995 18.5856 157.175 18.5409 157.327 18.4514C157.478 18.3606 157.587 18.2275 157.651 18.0501L158.343 18.1749C158.26 18.4789 158.081 18.7243 157.806 18.91C157.531 19.0959 157.188 19.1888 156.78 19.1888V19.1888ZM155.724 16.9088H157.674C157.672 16.6221 157.586 16.3849 157.415 16.1967C157.244 16.0087 157.016 15.9145 156.733 15.9145C156.536 15.9145 156.364 15.9603 156.217 16.0523C156.069 16.1452 155.953 16.2655 155.867 16.4169C155.781 16.5672 155.734 16.7311 155.724 16.9088ZM162.016 16.2759L161.353 16.394C161.311 16.2677 161.233 16.1531 161.118 16.0478C161.003 15.9419 160.831 15.8904 160.603 15.8904C160.397 15.8904 160.224 15.9363 160.084 16.0283C159.945 16.12 159.876 16.2391 159.877 16.3835C159.876 16.5108 159.922 16.6119 160.016 16.6875C160.109 16.7633 160.259 16.8264 160.467 16.8743L161.063 17.0121C161.746 17.1692 162.09 17.5086 162.09 18.0283C162.09 18.2541 162.024 18.4548 161.895 18.6292C161.765 18.8036 161.585 18.94 161.354 19.0396C161.124 19.1395 160.858 19.1888 160.555 19.1888C160.133 19.1888 159.79 19.0993 159.526 18.9193C159.262 18.7393 159.099 18.4823 159.037 18.1508L159.743 18.043C159.831 18.4146 160.1 18.6006 160.549 18.6006C160.789 18.6006 160.981 18.5499 161.124 18.45C161.267 18.3492 161.338 18.2264 161.338 18.082C161.338 17.8423 161.162 17.6841 160.808 17.6051L160.173 17.4661C159.821 17.3883 159.562 17.2609 159.397 17.0854C159.23 16.9088 159.147 16.6886 159.147 16.4225C159.147 16.2012 159.209 16.0076 159.333 15.84C159.456 15.6724 159.627 15.5431 159.846 15.45C160.064 15.3572 160.314 15.3113 160.596 15.3113C161.001 15.3113 161.321 15.3985 161.554 15.5751C161.787 15.7506 161.94 15.9847 162.016 16.2759V16.2759ZM164.471 19.1888C164.12 19.1888 163.812 19.1084 163.551 18.9468C163.288 18.7852 163.084 18.559 162.939 18.2691C162.794 17.9776 162.722 17.6394 162.722 17.2541C162.722 16.8641 162.794 16.5236 162.939 16.2323C163.084 15.9408 163.288 15.7138 163.551 15.5533C163.812 15.3917 164.12 15.3113 164.471 15.3113C164.825 15.3113 165.132 15.3917 165.394 15.5533C165.655 15.7138 165.858 15.9408 166.004 16.2323C166.148 16.5236 166.22 16.8641 166.22 17.2541C166.22 17.6394 166.148 17.9776 166.004 18.2691C165.858 18.559 165.655 18.7852 165.394 18.9468C165.132 19.1084 164.825 19.1888 164.471 19.1888ZM164.474 18.5754C164.703 18.5754 164.892 18.5154 165.041 18.3951C165.191 18.2737 165.302 18.1129 165.374 17.9122C165.447 17.7104 165.483 17.4905 165.483 17.2505C165.483 17.0121 165.447 16.7908 165.374 16.589C165.302 16.3871 165.191 16.2255 165.041 16.1038C164.892 15.9821 164.703 15.9215 164.474 15.9215C164.244 15.9215 164.054 15.9821 163.905 16.1038C163.755 16.2255 163.643 16.3871 163.57 16.589C163.497 16.7908 163.46 17.0121 163.46 17.2505C163.46 17.4905 163.497 17.7104 163.57 17.9122C163.643 18.1129 163.755 18.2737 163.905 18.3951C164.054 18.5154 164.244 18.5754 164.474 18.5754ZM167.765 14.1083V19.1132H167.035V14.1083H167.765ZM171.126 17.5567V15.3594H171.86V19.1132H171.14V18.4627H171.101C171.015 18.6634 170.876 18.8298 170.687 18.9629C170.497 19.0959 170.262 19.1625 169.98 19.1625C169.62 19.1625 169.325 19.043 169.094 18.8036C168.864 18.5649 168.748 18.2128 168.748 17.7472V15.3594H169.479V17.6589C169.479 17.9145 169.55 18.1186 169.692 18.2703C169.833 18.4217 170.017 18.4973 170.244 18.4973C170.381 18.4973 170.518 18.4628 170.653 18.3951C170.789 18.3263 170.902 18.2219 170.993 18.0832C171.083 17.9434 171.128 17.7679 171.126 17.5567V17.5567ZM174.591 15.3594V15.9467H173.822V18.011C173.822 18.223 173.866 18.3597 173.957 18.4203C174.047 18.4811 174.152 18.5123 174.271 18.5123C174.33 18.5123 174.381 18.5075 174.425 18.4995C174.468 18.4916 174.503 18.4845 174.528 18.48L174.66 19.0832C174.618 19.1005 174.557 19.1166 174.478 19.1336C174.398 19.1508 174.301 19.1599 174.185 19.1625C173.994 19.1647 173.814 19.1313 173.646 19.0592C173.48 18.9881 173.346 18.8768 173.244 18.7265C173.141 18.5774 173.091 18.3895 173.091 18.1624V15.9467H172.541V15.3594H173.091V14.4604H173.822V15.3594H174.591V15.3594ZM175.397 19.1132V15.3594H176.128V19.1132H175.397ZM175.767 14.7803C175.639 14.7803 175.532 14.7378 175.441 14.6518C175.35 14.5671 175.304 14.465 175.304 14.3455C175.304 14.2252 175.35 14.1219 175.441 14.0373C175.532 13.9513 175.639 13.9088 175.767 13.9088C175.893 13.9088 176.001 13.9513 176.092 14.0373C176.183 14.1219 176.229 14.2252 176.229 14.3455C176.229 14.465 176.183 14.5671 176.092 14.6518C176.001 14.7378 175.893 14.7803 175.767 14.7803ZM178.692 19.1888C178.34 19.1888 178.033 19.1084 177.771 18.9468C177.509 18.7852 177.305 18.559 177.16 18.2691C177.014 17.9776 176.942 17.6394 176.942 17.2541C176.942 16.8641 177.014 16.5236 177.16 16.2323C177.305 15.9408 177.509 15.7138 177.771 15.5533C178.033 15.3917 178.34 15.3113 178.692 15.3113C179.045 15.3113 179.353 15.3917 179.614 15.5533C179.876 15.7138 180.079 15.9408 180.224 16.2323C180.369 16.5236 180.441 16.8641 180.441 17.2541C180.441 17.6394 180.369 17.9776 180.224 18.2691C180.079 18.559 179.876 18.7852 179.614 18.9468C179.353 19.1084 179.045 19.1888 178.692 19.1888ZM178.694 18.5754C178.924 18.5754 179.113 18.5154 179.262 18.3951C179.411 18.2737 179.522 18.1129 179.595 17.9122C179.667 17.7104 179.704 17.4905 179.704 17.2505C179.704 17.0121 179.667 16.7908 179.595 16.589C179.522 16.3871 179.411 16.2255 179.262 16.1038C179.113 15.9821 178.924 15.9215 178.694 15.9215C178.465 15.9215 178.275 15.9821 178.126 16.1038C177.975 16.2255 177.864 16.3871 177.791 16.589C177.717 16.7908 177.681 17.0121 177.681 17.2505C177.681 17.4905 177.717 17.7104 177.791 17.9122C177.864 18.1129 177.975 18.2737 178.126 18.3951C178.275 18.5154 178.465 18.5754 178.694 18.5754ZM181.986 16.8848V19.1132H181.255V15.3594H181.957V15.9708H182.003C182.09 15.7724 182.226 15.6119 182.41 15.4913C182.595 15.371 182.829 15.3113 183.11 15.3113C183.495 15.3113 183.804 15.4305 184.037 15.6705C184.271 15.9099 184.388 16.2609 184.388 16.7254V19.1132H183.658V16.8137C183.658 16.5417 183.587 16.3286 183.445 16.1749C183.303 16.0212 183.109 15.9433 182.861 15.9433C182.607 15.9433 182.397 16.0257 182.234 16.1899C182.069 16.3526 181.986 16.5845 181.986 16.8848V16.8848ZM189.976 15.4237C189.951 15.1921 189.843 15.0121 189.653 14.8847C189.464 14.7562 189.227 14.6931 188.94 14.6931C188.633 14.6931 188.388 14.7633 188.208 14.9031C188.026 15.043 187.936 15.2196 187.936 15.433C187.936 15.5923 187.985 15.7231 188.081 15.8228C188.179 15.9227 188.297 16.0016 188.438 16.0591C188.579 16.1152 188.714 16.1613 188.845 16.1955L189.333 16.3229C189.493 16.362 189.657 16.4146 189.824 16.4823C189.993 16.5499 190.148 16.6382 190.291 16.746C190.435 16.855 190.55 16.9892 190.64 17.1508C190.728 17.3124 190.773 17.5052 190.773 17.7299C190.773 18.0121 190.699 18.2632 190.554 18.4846C190.408 18.707 190.198 18.8802 189.923 19.0062C189.647 19.1324 189.313 19.1955 188.921 19.1955C188.36 19.1955 187.914 19.0648 187.582 18.8021C187.251 18.5409 187.073 18.1828 187.049 17.7299H187.806C187.829 18.002 187.947 18.2038 188.16 18.3354C188.374 18.4684 188.626 18.5338 188.916 18.5338C189.236 18.5338 189.502 18.4594 189.711 18.3113C189.921 18.1633 190.025 17.9674 190.025 17.7232C190.025 17.574 189.983 17.4526 189.899 17.3572C189.815 17.2621 189.702 17.1842 189.559 17.1233C189.417 17.0614 189.257 17.0073 189.077 16.9606L188.486 16.7987C188.084 16.6897 187.766 16.5293 187.533 16.3173C187.3 16.1061 187.183 15.8262 187.183 15.4777C187.183 15.1885 187.261 14.9374 187.418 14.722C187.574 14.5074 187.787 14.3399 188.055 14.2196C188.322 14.1004 188.624 14.0407 188.957 14.0407C189.296 14.0407 189.595 14.1004 189.855 14.2184C190.114 14.3376 190.32 14.5018 190.47 14.7104C190.619 14.9181 190.698 15.1565 190.704 15.4237H189.976V15.4237ZM191.616 20.5202V15.3594H192.329V15.9685H192.391C192.435 15.8904 192.497 15.7998 192.576 15.6968C192.654 15.5946 192.765 15.5041 192.907 15.4271C193.05 15.3492 193.237 15.3113 193.468 15.3113C193.772 15.3113 194.041 15.3869 194.279 15.5406C194.515 15.6931 194.702 15.9145 194.839 16.2023C194.976 16.4913 195.045 16.8378 195.045 17.2437C195.045 17.6473 194.977 17.9949 194.842 18.2861C194.706 18.5763 194.521 18.7998 194.284 18.9547C194.048 19.1084 193.778 19.1865 193.476 19.1865C193.247 19.1865 193.062 19.1486 192.919 19.0718C192.775 18.9949 192.663 18.9054 192.58 18.8021C192.498 18.7002 192.435 18.6085 192.391 18.5293H192.346V20.5202H191.616V20.5202ZM192.332 17.2368C192.332 17.6303 192.416 17.9501 192.586 18.1955C192.756 18.4409 192.998 18.5638 193.312 18.5638C193.53 18.5638 193.713 18.5052 193.86 18.3883C194.008 18.2722 194.119 18.1143 194.194 17.9134C194.268 17.713 194.306 17.4868 194.306 17.2368C194.306 16.9869 194.269 16.7645 194.195 16.5683C194.122 16.3722 194.01 16.2162 193.863 16.1027C193.718 15.9892 193.533 15.9317 193.312 15.9317C192.993 15.9317 192.75 16.0509 192.583 16.2895C192.415 16.5281 192.332 16.8434 192.332 17.2368V17.2368ZM197.48 19.1888C197.113 19.1888 196.795 19.1084 196.527 18.949C196.26 18.7897 196.055 18.5649 195.911 18.2759C195.766 17.987 195.694 17.6487 195.694 17.2609C195.694 16.8768 195.766 16.5372 195.911 16.2448C196.055 15.9513 196.257 15.722 196.516 15.5578C196.777 15.3928 197.081 15.3113 197.429 15.3113C197.712 15.3113 197.981 15.3744 198.234 15.5007C198.488 15.6269 198.694 15.8273 198.852 16.1038C199.011 16.3801 199.091 16.7449 199.091 17.1978V17.4559H196.422C196.432 17.8182 196.535 18.0971 196.728 18.2918C196.922 18.488 197.175 18.5856 197.488 18.5856C197.696 18.5856 197.876 18.5409 198.028 18.4514C198.179 18.3606 198.288 18.2275 198.352 18.0501L199.044 18.1749C198.961 18.4789 198.782 18.7243 198.507 18.91C198.232 19.0959 197.889 19.1888 197.48 19.1888V19.1888ZM196.424 16.9088H198.375C198.373 16.6221 198.287 16.3849 198.116 16.1967C197.945 16.0087 197.717 15.9145 197.433 15.9145C197.236 15.9145 197.064 15.9603 196.918 16.0523C196.769 16.1452 196.654 16.2655 196.568 16.4169C196.482 16.5672 196.435 16.7311 196.424 16.9088ZM201.485 19.1888C201.122 19.1888 200.81 19.1061 200.548 18.9411C200.287 18.7758 200.086 18.5465 199.945 18.2553C199.805 17.964 199.735 17.6303 199.735 17.2541C199.735 16.8712 199.807 16.5338 199.951 16.2414C200.094 15.9501 200.296 15.722 200.557 15.5578C200.819 15.3928 201.126 15.3113 201.477 15.3113C201.763 15.3113 202.017 15.3631 202.24 15.4684C202.464 15.574 202.644 15.7209 202.781 15.9099C202.919 16.0982 203.001 16.3192 203.027 16.5717H202.316C202.277 16.3962 202.187 16.2448 202.048 16.1177C201.908 15.9903 201.723 15.9272 201.49 15.9272C201.185 15.9272 200.939 16.0441 200.754 16.2793C200.567 16.5154 200.474 16.8344 200.474 17.2368C200.474 17.645 200.565 17.9697 200.749 18.2106C200.934 18.45 201.18 18.5706 201.49 18.5706C201.698 18.5706 201.876 18.5131 202.025 18.3996C202.173 18.285 202.27 18.1279 202.316 17.9249H203.027C203.001 18.1681 202.922 18.3849 202.79 18.5754C202.659 18.7656 202.482 18.9159 202.261 19.0246C202.04 19.1336 201.781 19.1888 201.485 19.1888V19.1888ZM203.811 19.1132V15.3594H204.541V19.1132H203.811ZM204.18 14.7803C204.053 14.7803 203.945 14.7378 203.855 14.6518C203.764 14.5671 203.718 14.465 203.718 14.3455C203.718 14.2252 203.764 14.1219 203.855 14.0373C203.945 13.9513 204.053 13.9088 204.18 13.9088C204.306 13.9088 204.414 13.9513 204.506 14.0373C204.597 14.1219 204.642 14.2252 204.642 14.3455C204.642 14.465 204.597 14.5671 204.506 14.6518C204.414 14.7378 204.306 14.7803 204.18 14.7803ZM206.617 19.1955C206.379 19.1955 206.164 19.152 205.973 19.0636C205.781 18.9765 205.63 18.8469 205.518 18.6773C205.405 18.5063 205.349 18.2988 205.349 18.0523C205.349 17.8389 205.39 17.6646 205.471 17.527C205.554 17.3906 205.664 17.2816 205.802 17.2026C205.94 17.1222 206.094 17.0625 206.265 17.0223C206.436 16.9821 206.61 16.9524 206.788 16.9306C207.013 16.9054 207.195 16.8836 207.334 16.8664C207.473 16.8491 207.575 16.8205 207.639 16.7817C207.703 16.7427 207.737 16.6796 207.737 16.5912V16.574C207.737 16.3608 207.676 16.1955 207.557 16.0786C207.437 15.9603 207.258 15.902 207.022 15.902C206.777 15.902 206.583 15.9558 206.442 16.0636C206.301 16.1715 206.205 16.2918 206.151 16.4248L205.464 16.2688C205.586 15.9272 205.789 15.6818 206.076 15.5337C206.362 15.3849 206.674 15.3113 207.013 15.3113C207.163 15.3113 207.321 15.3286 207.489 15.3631C207.657 15.3985 207.816 15.4627 207.965 15.5567C208.114 15.6495 208.235 15.7825 208.329 15.9535C208.423 16.1245 208.47 16.347 208.47 16.621V19.1132H207.756V18.6006H207.726C207.656 18.7404 207.531 18.8746 207.352 19.0031C207.173 19.1313 206.928 19.1955 206.617 19.1955V19.1955ZM206.775 18.6096C206.98 18.6096 207.153 18.5695 207.296 18.4902C207.44 18.4101 207.55 18.3056 207.625 18.176C207.701 18.0467 207.739 17.9077 207.739 17.7599V17.2759C207.704 17.3102 207.629 17.3399 207.514 17.3665C207.398 17.3917 207.276 17.4135 207.147 17.4319C207.019 17.4503 206.914 17.4639 206.834 17.4755C206.623 17.5041 206.442 17.5592 206.291 17.6427C206.14 17.7277 206.064 17.8666 206.064 18.0625C206.064 18.2425 206.131 18.379 206.265 18.4721C206.398 18.5638 206.569 18.6096 206.775 18.6096V18.6096ZM210.171 14.1083V19.1132H209.441V14.1083H210.171ZM211.154 19.1132V15.3594H211.885V19.1132H211.154ZM211.524 14.7803C211.396 14.7803 211.288 14.7378 211.198 14.6518C211.107 14.5671 211.061 14.465 211.061 14.3455C211.061 14.2252 211.107 14.1219 211.198 14.0373C211.288 13.9513 211.396 13.9088 211.524 13.9088C211.65 13.9088 211.757 13.9513 211.849 14.0373C211.94 14.1219 211.986 14.2252 211.986 14.3455C211.986 14.465 211.94 14.5671 211.849 14.6518C211.757 14.7378 211.65 14.7803 211.524 14.7803ZM215.681 16.2759L215.018 16.394C214.975 16.2677 214.898 16.1531 214.783 16.0478C214.668 15.9419 214.496 15.8904 214.268 15.8904C214.061 15.8904 213.888 15.9363 213.748 16.0283C213.61 16.12 213.541 16.2391 213.542 16.3835C213.541 16.5108 213.587 16.6119 213.681 16.6875C213.774 16.7633 213.924 16.8264 214.131 16.8743L214.728 17.0121C215.411 17.1692 215.754 17.5086 215.754 18.0283C215.754 18.2541 215.689 18.4548 215.559 18.6292C215.43 18.8036 215.249 18.94 215.019 19.0396C214.789 19.1395 214.523 19.1888 214.22 19.1888C213.798 19.1888 213.455 19.0993 213.191 18.9193C212.926 18.7393 212.763 18.4823 212.701 18.1508L213.408 18.043C213.496 18.4146 213.765 18.6006 214.214 18.6006C214.454 18.6006 214.645 18.5499 214.789 18.45C214.932 18.3492 215.003 18.2264 215.003 18.082C215.003 17.8423 214.826 17.6841 214.473 17.6051L213.838 17.4661C213.486 17.3883 213.226 17.2609 213.061 17.0854C212.895 16.9088 212.811 16.6886 212.811 16.4225C212.811 16.2012 212.873 16.0076 212.997 15.84C213.121 15.6724 213.292 15.5431 213.511 15.45C213.729 15.3572 213.979 15.3113 214.261 15.3113C214.666 15.3113 214.986 15.3985 215.219 15.5751C215.451 15.7506 215.605 15.9847 215.681 16.2759V16.2759ZM218.307 15.3594V15.9467H217.538V18.011C217.538 18.223 217.582 18.3597 217.673 18.4203C217.763 18.4811 217.868 18.5123 217.987 18.5123C218.046 18.5123 218.097 18.5075 218.141 18.4995C218.184 18.4916 218.219 18.4845 218.244 18.48L218.376 19.0832C218.333 19.1005 218.273 19.1166 218.194 19.1336C218.114 19.1508 218.017 19.1599 217.901 19.1625C217.71 19.1647 217.53 19.1313 217.362 19.0592C217.196 18.9881 217.061 18.8768 216.96 18.7265C216.857 18.5774 216.807 18.3895 216.807 18.1624V15.9467H216.256V15.3594H216.807V14.4604H217.538V15.3594H218.307V15.3594ZM221.926 16.2759L221.264 16.394C221.221 16.2677 221.143 16.1531 221.028 16.0478C220.914 15.9419 220.742 15.8904 220.514 15.8904C220.307 15.8904 220.134 15.9363 219.994 16.0283C219.855 16.12 219.786 16.2391 219.787 16.3835C219.786 16.5108 219.832 16.6119 219.926 16.6875C220.019 16.7633 220.169 16.8264 220.377 16.8743L220.973 17.0121C221.657 17.1692 222 17.5086 222 18.0283C222 18.2541 221.934 18.4548 221.805 18.6292C221.675 18.8036 221.495 18.94 221.265 19.0396C221.034 19.1395 220.768 19.1888 220.465 19.1888C220.043 19.1888 219.7 19.0993 219.437 18.9193C219.172 18.7393 219.009 18.4823 218.947 18.1508L219.653 18.043C219.742 18.4146 220.01 18.6006 220.46 18.6006C220.699 18.6006 220.891 18.5499 221.034 18.45C221.178 18.3492 221.249 18.2264 221.249 18.082C221.249 17.8423 221.072 17.6841 220.719 17.6051L220.084 17.4661C219.731 17.3883 219.472 17.2609 219.307 17.0854C219.141 16.9088 219.057 16.6886 219.057 16.4225C219.057 16.2012 219.119 16.0076 219.243 15.84C219.367 15.6724 219.538 15.5431 219.757 15.45C219.975 15.3572 220.225 15.3113 220.507 15.3113C220.911 15.3113 221.231 15.3985 221.464 15.5751C221.697 15.7506 221.851 15.9847 221.926 16.2759V16.2759Z" fill="#6EAA78"/>
<path fill-rule="evenodd" clip-rule="evenodd" d="M153.352 27.6369C153.352 27.8149 153.255 27.9216 153.048 27.9216H152.705V27.3586H153.048C153.255 27.3586 153.352 27.4687 153.352 27.6369V27.6369ZM152.968 25.8098C154.194 25.8098 155.194 26.8095 155.194 28.0349C155.194 29.2607 154.194 30.2605 152.968 30.2605C151.743 30.2605 150.743 29.2607 150.743 28.0349C150.743 26.8095 151.743 25.8098 152.968 25.8098ZM152.968 26.1987C153.98 26.1987 154.805 27.0238 154.805 28.0349C154.805 29.0465 153.98 29.8715 152.968 29.8715C151.957 29.8715 151.132 29.0465 151.132 28.0349C151.132 27.0238 151.957 26.1987 152.968 26.1987ZM152.152 26.8993V29.1713H152.705V28.3131H152.838L153.31 29.1713H153.935L153.41 28.2712C153.76 28.1676 153.915 27.899 153.915 27.6142C153.915 27.2194 153.637 26.8993 153.08 26.8993H152.152V26.8993Z" fill="#003250"/>
<path fill-rule="evenodd" clip-rule="evenodd" d="M27.4282 24.857L25.7062 26.5791L7.12885 15.8815C6.19055 15.3412 5.61228 14.4774 5.47047 13.4038C5.32867 12.3304 5.66607 11.3497 6.42831 10.5804L11.0032 5.96074L33.9338 5.961V2.34028L6.65899 2.34054L3.92419 5.06969L7.34341 7.11386L5.62134 8.83592L0 5.59389L5.59955 0.000302328L36.3624 0V8.3893H11.9746L8.23982 12.1241C7.98508 12.3791 7.87356 12.7069 7.92054 13.0647C7.96724 13.4216 8.15943 13.7097 8.47135 13.89L27.4282 24.857V24.857ZM11.5656 12.2625L13.2877 10.5404L31.865 21.2382C32.803 21.7786 33.3813 22.6425 33.5231 23.7158C33.6652 24.7891 33.3278 25.7701 32.5655 26.5395L27.9904 31.1588H5.05977L5.06005 34.7796L32.3349 34.7793L35.0697 32.0498L31.6504 30.0057L33.3725 28.2836L38.9936 31.5256L33.3943 37.1195L2.63151 37.1198L2.63121 28.7305H27.0189L30.7537 24.9954C31.0088 24.7407 31.12 24.4126 31.0733 24.0552C31.0266 23.6982 30.8341 23.4098 30.5222 23.2298L11.5656 12.2625V12.2625Z" fill="#6EAA78"/>
</svg>
