<svg width="290" height="130" viewBox="0 0 290 130" fill="none" xmlns="http://www.w3.org/2000/svg">
<rect y="0.666748" width="290" height="129" rx="10" fill="#003250"/>
<path d="M107.562 39.9032L94.807 36.0501C94.3119 35.9005 93.7894 36.1806 93.6399 36.6756L91.3712 44.1857C91.2217 44.6808 91.5017 45.2033 91.9967 45.3528L104.752 49.206C105.247 49.3555 105.77 49.0754 105.919 48.5804L108.188 41.0703C108.337 40.5753 108.057 40.0527 107.562 39.9032Z" stroke="#92E3A9" stroke-width="1.00285" stroke-miterlimit="10"/>
<path d="M93.1899 37.8354L107.69 42.2298" stroke="#92E3A9" stroke-miterlimit="10"/>
<path d="M92.7485 39.2905L107.251 43.6848" stroke="#92E3A9" stroke-miterlimit="10"/>
<path d="M102.838 46.406C102.801 46.5284 102.79 46.6571 102.804 46.7841C102.818 46.9112 102.858 47.0341 102.921 47.1454C102.703 47.2528 102.453 47.2737 102.221 47.204C102.073 47.1593 101.939 47.079 101.829 46.9702C101.719 46.8614 101.638 46.7274 101.592 46.5799C101.546 46.4323 101.538 46.2758 101.566 46.1241C101.595 45.9723 101.661 45.8299 101.757 45.7094C101.854 45.5889 101.979 45.4939 102.12 45.4328C102.262 45.3717 102.417 45.3463 102.571 45.3588C102.725 45.3714 102.873 45.4216 103.003 45.5049C103.134 45.5882 103.241 45.7021 103.317 45.8367C103.203 45.8949 103.102 45.9752 103.02 46.073C102.938 46.1707 102.876 46.2839 102.838 46.406Z" stroke="#92E3A9" stroke-miterlimit="10"/>
<path d="M104.644 46.9539C104.59 47.1326 104.483 47.2911 104.339 47.4094C104.194 47.5277 104.018 47.6005 103.832 47.6186C103.646 47.6367 103.459 47.5992 103.294 47.5109C103.13 47.4227 102.995 47.2876 102.907 47.1227C102.819 46.9579 102.782 46.7707 102.801 46.5848C102.82 46.399 102.893 46.2228 103.012 46.0786C103.13 45.9344 103.289 45.8286 103.468 45.7747C103.647 45.7207 103.838 45.721 104.016 45.7755C104.256 45.8486 104.456 46.0138 104.574 46.2347C104.692 46.4557 104.717 46.7144 104.644 46.9539Z" stroke="#92E3A9" stroke-miterlimit="10"/>
<path d="M194.258 58.0318L183.711 54.8355C183.218 54.686 182.697 54.9648 182.547 55.4583L180.699 61.5577C180.549 62.0512 180.828 62.5725 181.321 62.722L191.868 65.9183C192.361 66.0679 192.883 65.789 193.032 65.2956L194.881 59.1962C195.03 58.7027 194.752 58.1814 194.258 58.0318Z" stroke="#92E3A9" stroke-miterlimit="10"/>
<path d="M182.263 56.3969L194.597 60.1342" stroke="#92E3A9" stroke-miterlimit="10"/>
<path d="M181.888 57.6365L194.219 61.3738" stroke="#92E3A9" stroke-miterlimit="10"/>
<path d="M190.469 63.68C190.437 63.7838 190.427 63.8931 190.439 64.001C190.451 64.1089 190.485 64.2133 190.538 64.3077C190.422 64.3644 190.293 64.3918 190.164 64.3877C190.034 64.3836 189.908 64.3481 189.795 64.2842C189.683 64.2203 189.587 64.1299 189.517 64.0209C189.447 63.9119 189.405 63.7876 189.394 63.6585C189.383 63.5295 189.403 63.3997 189.454 63.2804C189.504 63.1611 189.582 63.0558 189.683 62.9735C189.783 62.8913 189.901 62.8347 190.028 62.8086C190.155 62.7824 190.286 62.7875 190.411 62.8235C190.608 62.8828 190.775 63.0163 190.876 63.1959C190.779 63.2446 190.692 63.3126 190.623 63.3959C190.553 63.4791 190.5 63.5758 190.469 63.68V63.68Z" stroke="#92E3A9" stroke-miterlimit="10"/>
<path d="M192.004 64.1535C191.957 64.3037 191.866 64.4367 191.744 64.5356C191.621 64.6346 191.472 64.6951 191.316 64.7096C191.159 64.724 191.001 64.6918 190.863 64.617C190.724 64.5421 190.611 64.428 190.537 64.2889C190.464 64.1499 190.433 63.9921 190.448 63.8354C190.464 63.6788 190.526 63.5303 190.626 63.4086C190.725 63.2869 190.859 63.1975 191.01 63.1516C191.16 63.1057 191.321 63.1054 191.472 63.1507C191.573 63.181 191.667 63.2312 191.749 63.2982C191.83 63.3652 191.898 63.4477 191.947 63.541C191.997 63.6342 192.027 63.7364 192.037 63.8416C192.047 63.9467 192.035 64.0527 192.004 64.1535V64.1535Z" stroke="#92E3A9" stroke-miterlimit="10"/>
<path d="M177.379 28.891L161.982 35.9401L165.65 43.9504L181.046 36.9013L177.379 28.891Z" stroke="#92E3A9" stroke-miterlimit="10"/>
<path d="M179.723 35.75L177.393 30.6614C177.175 30.7608 176.927 30.7699 176.702 30.6866C176.478 30.6033 176.296 30.4345 176.196 30.2172L163.749 35.9149C163.849 36.1326 163.858 36.3808 163.775 36.6052C163.691 36.8295 163.523 37.0118 163.305 37.1119L165.635 42.2005C165.743 42.151 165.86 42.1233 165.978 42.119C166.097 42.1147 166.215 42.1338 166.327 42.1754C166.438 42.2169 166.54 42.2799 166.627 42.3609C166.713 42.4419 166.783 42.5393 166.832 42.6474L179.276 36.947C179.226 36.8391 179.199 36.7225 179.194 36.6038C179.19 36.4852 179.209 36.3669 179.251 36.2557C179.292 36.1445 179.355 36.0426 179.436 35.9558C179.517 35.869 179.615 35.7991 179.723 35.75Z" stroke="#92E3A9" stroke-miterlimit="10"/>
<path d="M172.924 38.2581C173.937 37.4795 174.128 36.0267 173.349 35.0131C172.571 33.9996 171.118 33.8091 170.104 34.5876C169.091 35.3662 168.9 36.8191 169.679 37.8326C170.457 38.8462 171.91 39.0367 172.924 38.2581Z" stroke="#92E3A9" stroke-miterlimit="10"/>
<path d="M172.144 37.5428L172.317 37.9206L172.152 37.995L171.982 37.6226C171.691 37.7494 171.364 37.7701 171.059 37.6812V37.4497C171.329 37.5313 171.618 37.5172 171.878 37.4098L171.487 36.548C171.083 36.6251 170.665 36.6837 170.466 36.2474C170.322 35.9335 170.423 35.5558 170.907 35.2872L170.735 34.9068L170.899 34.8323L171.08 35.218C171.32 35.1142 171.583 35.0792 171.841 35.1169V35.3483C171.614 35.3155 171.382 35.3421 171.168 35.4255L171.567 36.298C171.979 36.2155 172.418 36.141 172.631 36.5826C172.764 36.8885 172.65 37.2742 172.144 37.5428ZM171.384 36.3166L171.006 35.484C170.679 35.6675 170.607 35.9123 170.703 36.1197C170.814 36.3804 171.08 36.3698 171.381 36.3166H171.384ZM172.386 36.6916C172.269 36.4256 171.987 36.4522 171.674 36.5134L172.049 37.3354C172.41 37.1438 172.479 36.9018 172.384 36.6916H172.386Z" fill="#92E3A9"/>
<path d="M92.409 65.3802L80.5693 66.4458L81.1235 72.6037L92.9632 71.5381L92.409 65.3802Z" stroke="#92E3A9" stroke-width="1.00404" stroke-miterlimit="10"/>
<path d="M92.0115 70.2927L91.6764 66.3959C91.5096 66.4099 91.3441 66.3573 91.216 66.2496C91.0879 66.142 91.0076 65.988 90.9928 65.8213L81.4593 66.6459C81.4726 66.8125 81.4198 66.9776 81.3123 67.1056C81.2048 67.2335 81.0512 67.314 80.8848 67.3295L81.2199 71.2264C81.3026 71.2191 81.3858 71.2282 81.465 71.2531C81.5441 71.2781 81.6175 71.3184 81.681 71.3718C81.7445 71.4252 81.7969 71.4905 81.8351 71.5642C81.8732 71.6378 81.8965 71.7183 81.9035 71.801L91.437 70.9764C91.4237 70.8098 91.4765 70.6446 91.584 70.5167C91.6916 70.3888 91.8451 70.3083 92.0115 70.2927V70.2927Z" stroke="#92E3A9" stroke-miterlimit="10"/>
<path d="M88.0614 68.6728C88.0892 68.992 88.0216 69.3124 87.8673 69.5932C87.713 69.874 87.4789 70.1028 87.1945 70.2506C86.9102 70.3983 86.5884 70.4584 86.2699 70.4233C85.9514 70.3881 85.6504 70.2593 85.4052 70.0531C85.1599 69.8469 84.9813 69.5726 84.8919 69.2649C84.8025 68.9571 84.8065 68.6298 84.9032 68.3243C84.9999 68.0188 85.185 67.7488 85.4351 67.5485C85.6853 67.3483 85.9892 67.2267 86.3085 67.1992C86.5204 67.1806 86.7339 67.2039 86.9368 67.268C87.1396 67.332 87.3279 67.4354 87.4907 67.5723C87.6535 67.7092 87.7878 67.8769 87.8857 68.0657C87.9836 68.2545 88.0434 68.4608 88.0614 68.6728V68.6728Z" stroke="#92E3A9" stroke-miterlimit="10"/>
<path d="M86.5988 69.6996L86.6227 69.9895H86.4977L86.4711 69.7022C86.25 69.7169 86.0308 69.6539 85.8513 69.524L85.9098 69.375C86.0685 69.4904 86.2617 69.5486 86.4578 69.54L86.4019 68.8776C86.1173 68.8351 85.8274 68.7739 85.8008 68.4414C85.7795 68.1993 85.9338 67.9732 86.3168 67.9094L86.2929 67.6194H86.4179L86.4418 67.9041C86.6263 67.8923 86.8105 67.9319 86.9738 68.0184L86.9233 68.1701C86.7813 68.0963 86.623 68.0597 86.4631 68.0637L86.519 68.7313C86.8089 68.7739 87.1175 68.8297 87.1467 69.1676C87.1627 69.4149 86.9951 69.641 86.5988 69.6996ZM86.386 68.7127L86.3301 68.0823C86.0641 68.1275 85.9683 68.2711 85.9816 68.4307C85.9949 68.5903 86.1732 68.6781 86.386 68.7127ZM86.9579 69.1968C86.9392 68.9973 86.7504 68.9308 86.5296 68.9095L86.5828 69.54C86.8594 69.4947 86.9712 69.3564 86.9579 69.1968Z" fill="#92E3A9"/>
<path d="M188.192 32.4808C189.47 32.4808 190.506 31.4447 190.506 30.1666C190.506 28.8886 189.47 27.8524 188.192 27.8524C186.914 27.8524 185.878 28.8886 185.878 30.1666C185.878 31.4447 186.914 32.4808 188.192 32.4808Z" stroke="#92E3A9" stroke-miterlimit="10"/>
<path d="M188.296 31.4514V31.8664H188.104V31.4541C187.787 31.4478 187.482 31.3323 187.24 31.1269L187.343 30.9194C187.555 31.1052 187.823 31.2139 188.104 31.228V30.2784C187.705 30.18 187.306 30.0576 187.306 29.5788C187.306 29.233 187.556 28.9324 188.104 28.8899V28.4669H188.285V28.8792C188.546 28.8848 188.8 28.9631 189.019 29.1053L188.929 29.3181C188.736 29.1937 188.514 29.1213 188.285 29.108V30.0656C188.692 30.164 189.123 30.2784 189.123 30.7652C189.134 31.1136 188.87 31.4195 188.296 31.4514ZM188.115 30.0177V29.116C187.742 29.1479 187.583 29.3394 187.583 29.5682C187.572 29.8421 187.817 29.9432 188.104 30.0177H188.115ZM188.87 30.7785C188.87 30.4938 188.604 30.3954 188.296 30.3183V31.228C188.692 31.1934 188.87 31.0099 188.87 30.7785Z" fill="#92E3A9"/>
<path d="M172.95 61.1268C174.194 60.8336 174.965 59.5875 174.672 58.3435C174.378 57.0994 173.132 56.3286 171.888 56.6218C170.644 56.9149 169.873 58.1611 170.167 59.4051C170.46 60.6491 171.706 61.4199 172.95 61.1268Z" stroke="#92E3A9" stroke-miterlimit="10"/>
<path d="M171.836 60.0199L171.62 60.3736L171.466 60.2779L171.682 59.9268C171.414 59.7566 171.214 59.4976 171.118 59.1953L171.315 59.0729C171.398 59.3407 171.569 59.5723 171.801 59.7299L172.301 58.9186C172.011 58.6287 171.732 58.3121 171.982 57.9052C172.163 57.6099 172.533 57.4849 173.028 57.7376L173.246 57.3811L173.4 57.4769L173.184 57.828C173.403 57.9701 173.578 58.1687 173.693 58.4026L173.504 58.5382C173.403 58.3319 173.252 58.1543 173.065 58.0222L172.562 58.8388C172.86 59.1367 173.166 59.4586 172.911 59.8736C172.727 60.1715 172.344 60.2912 171.836 60.0199ZM172.434 58.6899L172.905 57.9211C172.573 57.7535 172.331 57.828 172.211 58.0222C172.067 58.2696 172.219 58.485 172.434 58.7032V58.6899ZM172.679 59.7326C172.828 59.4905 172.655 59.2697 172.429 59.041L171.956 59.8124C172.309 60.0092 172.557 59.956 172.676 59.7459L172.679 59.7326Z" fill="#92E3A9"/>
<path d="M139.208 14.204C139.398 14.6203 139.46 15.0837 139.387 15.5355C139.314 15.9872 139.108 16.4071 138.796 16.7421C138.485 17.077 138.08 17.312 137.635 17.4173C137.19 17.5225 136.723 17.4933 136.294 17.3334C135.865 17.1735 135.494 16.89 135.226 16.5188C134.958 16.1476 134.806 15.7053 134.79 15.2479C134.774 14.7906 134.893 14.3386 135.134 13.9492C135.374 13.5598 135.725 13.2504 136.141 13.0602C136.417 12.9335 136.716 12.8626 137.02 12.8515C137.324 12.8405 137.627 12.8895 137.912 12.9957C138.197 13.102 138.458 13.2634 138.68 13.4707C138.903 13.6781 139.082 13.9272 139.208 14.204V14.204Z" stroke="#92E3A9" stroke-miterlimit="10"/>
<path d="M137.732 16.2868L137.904 16.6645L137.74 16.7416L137.564 16.3666C137.273 16.4934 136.946 16.5141 136.641 16.4251V16.1937C136.909 16.2748 137.198 16.2617 137.458 16.1564L137.064 15.2893C136.66 15.3664 136.242 15.4223 136.042 14.9887C135.899 14.6722 136 14.2971 136.487 14.0284L136.314 13.6481L136.476 13.5736L136.649 13.9486C136.888 13.8448 137.152 13.8098 137.41 13.8476V14.079C137.182 14.0468 136.951 14.0733 136.737 14.1561L137.136 15.0286C137.548 14.9461 137.987 14.8743 138.2 15.3132C138.362 15.6324 138.24 16.0181 137.732 16.2868ZM136.971 15.0605L136.596 14.2386C136.269 14.4221 136.197 14.6668 136.293 14.8717C136.407 15.1217 136.67 15.1137 136.971 15.0605ZM137.974 15.4356C137.854 15.1696 137.575 15.1988 137.261 15.2574L137.636 16.0793C137.984 15.8878 138.069 15.6484 137.974 15.4356Z" fill="#92E3A9"/>
<path d="M131.414 107.924C131.7 108.549 131.793 109.245 131.683 109.924C131.573 110.603 131.264 111.234 130.796 111.737C130.327 112.24 129.72 112.593 129.051 112.751C128.382 112.909 127.681 112.865 127.037 112.625C126.392 112.385 125.834 111.959 125.432 111.401C125.029 110.844 124.802 110.179 124.777 109.492C124.753 108.805 124.932 108.126 125.294 107.541C125.655 106.956 126.182 106.491 126.807 106.205C127.222 106.016 127.671 105.91 128.127 105.893C128.584 105.877 129.039 105.951 129.466 106.11C129.894 106.27 130.286 106.512 130.621 106.823C130.955 107.134 131.224 107.508 131.414 107.924V107.924Z" stroke="#92E3A9" stroke-miterlimit="10"/>
<path d="M129.193 111.057L129.459 111.627L129.212 111.738L128.946 111.174C128.509 111.366 128.018 111.398 127.56 111.265L127.576 110.919C127.98 111.039 128.412 111.018 128.802 110.858L128.209 109.56C127.605 109.674 126.975 109.759 126.677 109.107C126.459 108.634 126.613 108.067 127.342 107.663L127.076 107.097L127.32 106.982L127.586 107.546C127.946 107.391 128.342 107.339 128.73 107.394V107.74C128.39 107.692 128.043 107.732 127.722 107.857L128.318 109.166C128.938 109.044 129.597 108.935 129.901 109.594C130.129 110.076 129.959 110.656 129.193 111.057ZM128.055 109.214L127.488 107.98C127.001 108.246 126.892 108.621 127.036 108.935C127.206 109.31 127.6 109.296 128.055 109.214ZM129.56 109.78C129.382 109.389 128.959 109.421 128.496 109.514L129.06 110.749C129.584 110.459 129.704 110.097 129.56 109.78Z" fill="#92E3A9"/>
<path d="M81.6138 53.8992C81.0972 54.3529 80.4577 54.6433 79.7761 54.7336C79.0946 54.8239 78.4015 54.7102 77.7846 54.4066C77.1677 54.1031 76.6546 53.6235 76.3103 53.0284C75.9659 52.4333 75.8057 51.7495 75.85 51.0634C75.8942 50.3773 76.1409 49.7197 76.5589 49.1737C76.9768 48.6278 77.5472 48.2181 78.198 47.9963C78.8488 47.7746 79.5508 47.7507 80.2151 47.9279C80.8794 48.105 81.4763 48.4751 81.9303 48.9915C82.2319 49.3345 82.4629 49.7335 82.6102 50.1658C82.7575 50.5981 82.8182 51.0552 82.7888 51.5109C82.7594 51.9667 82.6405 52.4122 82.4389 52.8219C82.2373 53.2317 81.9569 53.5978 81.6138 53.8992Z" stroke="#92E3A9" stroke-miterlimit="10"/>
<path d="M77.9804 52.6756L77.5122 53.0879L77.3313 52.883L77.7968 52.4761C77.4884 52.1111 77.3164 51.6504 77.3101 51.1727L77.6479 51.0875C77.648 51.5066 77.7896 51.9133 78.0495 52.242L79.1135 51.3003C78.8289 50.755 78.5656 50.1752 79.1135 49.7043C79.5072 49.3612 80.0924 49.3452 80.6883 49.9251L81.1724 49.5155L81.3506 49.7176L80.8851 50.1273C81.1327 50.4285 81.2928 50.792 81.3479 51.178L81.0181 51.287C80.9651 50.9469 80.8269 50.6257 80.6164 50.3534L79.5338 51.303C79.8291 51.8589 80.1243 52.4601 79.579 52.9416C79.1827 53.2874 78.5789 53.306 77.9804 52.6756ZM79.4168 51.053L80.4356 50.1565C80.0312 49.7682 79.6376 49.7708 79.3928 49.9969C79.0736 50.2683 79.2013 50.646 79.4088 51.053H79.4168ZM79.3077 52.649C79.6322 52.367 79.4806 51.9707 79.2572 51.5451L78.2384 52.4415C78.656 52.8697 79.0444 52.8857 79.3104 52.6569L79.3077 52.649Z" fill="#92E3A9"/>
<path d="M97.529 83.5526C97.5661 82.6257 96.8447 81.8441 95.9177 81.8071C94.9907 81.77 94.2092 82.4914 94.1721 83.4184C94.135 84.3454 94.8565 85.1269 95.7834 85.164C96.7104 85.2011 97.492 84.4796 97.529 83.5526Z" stroke="#92E3A9" stroke-width="1.0008" stroke-miterlimit="10"/>
<path d="M96.3343 83.8109L96.5258 84.0423L96.4274 84.1248L96.2359 83.896C96.0559 84.0407 95.831 84.1178 95.6001 84.1141L95.5629 83.9492C95.7659 83.9545 95.9648 83.8908 96.1268 83.7683L95.6852 83.2363C95.4192 83.3667 95.1373 83.4864 94.9138 83.2204C94.7542 83.0288 94.7542 82.7442 95.0415 82.4623L94.8473 82.2308L94.9484 82.1484L95.1399 82.3771C95.288 82.2595 95.4657 82.185 95.6533 82.1617L95.7012 82.3213C95.5368 82.3441 95.3805 82.4071 95.2463 82.5048L95.6906 83.0368C95.9566 82.9012 96.2571 82.7708 96.4886 83.0368C96.6508 83.2337 96.6455 83.5263 96.3343 83.8109ZM95.5735 83.098L95.1532 82.5953C94.9617 82.7868 94.9591 82.9703 95.0628 83.098C95.1665 83.2257 95.374 83.1911 95.5735 83.098ZM96.3476 83.1698C96.2146 83.0129 96.0231 83.0794 95.8156 83.1831L96.2359 83.6859C96.4407 83.4837 96.454 83.2975 96.3476 83.1672V83.1698Z" fill="#92E3A9"/>
<path d="M149.159 116.659C149.371 116.914 149.503 117.227 149.538 117.557C149.573 117.887 149.509 118.22 149.355 118.514C149.2 118.808 148.962 119.049 148.671 119.208C148.379 119.366 148.047 119.435 147.717 119.405C147.386 119.374 147.072 119.247 146.814 119.038C146.556 118.83 146.365 118.549 146.266 118.232C146.168 117.915 146.165 117.576 146.259 117.258C146.353 116.94 146.539 116.656 146.794 116.444C147.137 116.159 147.578 116.022 148.021 116.063C148.464 116.103 148.874 116.318 149.159 116.659V116.659Z" stroke="#92E3A9" stroke-miterlimit="10"/>
<path d="M148.521 118.402L148.715 118.633L148.614 118.715L148.422 118.487C148.243 118.631 148.019 118.708 147.789 118.705L147.752 118.54C147.955 118.546 148.155 118.483 148.316 118.359L147.874 117.827C147.608 117.957 147.324 118.077 147.103 117.811C146.941 117.619 146.941 117.335 147.228 117.053L147.037 116.821L147.138 116.739L147.329 116.968C147.477 116.849 147.655 116.775 147.843 116.752L147.89 116.912C147.725 116.935 147.568 116.998 147.433 117.095L147.88 117.627C148.146 117.492 148.446 117.361 148.678 117.627C148.832 117.824 148.827 118.117 148.521 118.402ZM147.757 117.678L147.337 117.175C147.143 117.367 147.14 117.55 147.247 117.678C147.353 117.806 147.555 117.782 147.757 117.678ZM148.529 117.752C148.396 117.593 148.204 117.659 147.997 117.752L148.417 118.255C148.625 118.074 148.638 117.888 148.529 117.76V117.752Z" fill="#92E3A9"/>
<path d="M103.22 21.0358C103.305 20.1127 102.625 19.2958 101.702 19.2111C100.779 19.1264 99.9621 19.8061 99.8774 20.7293C99.7928 21.6524 100.472 22.4693 101.396 22.554C102.319 22.6386 103.136 21.9589 103.22 21.0358Z" stroke="#92E3A9" stroke-miterlimit="10"/>
<path d="M102.205 21.5509L102.396 21.7823L102.295 21.8648L102.104 21.636C101.925 21.7811 101.701 21.8584 101.471 21.8542L101.433 21.6892C101.636 21.6946 101.835 21.6308 101.997 21.5084L101.556 20.9764C101.29 21.1067 101.005 21.2264 100.784 20.9604C100.625 20.7689 100.622 20.4843 100.912 20.2023L100.718 19.9709L100.819 19.8884L101.01 20.1172C101.158 19.9991 101.336 19.9245 101.524 19.9017L101.572 20.0613C101.407 20.0841 101.251 20.1472 101.117 20.2449L101.561 20.7769C101.827 20.6412 102.128 20.5109 102.359 20.7769C102.516 20.9737 102.508 21.2663 102.205 21.5509ZM101.439 20.8354L101.018 20.322C100.827 20.5135 100.822 20.6971 100.928 20.8247C101.034 20.9524 101.237 20.9311 101.439 20.8354ZM102.213 20.9072C102.08 20.7503 101.886 20.8168 101.681 20.9072L102.101 21.4099C102.306 21.2237 102.319 21.0375 102.213 20.9072Z" fill="#92E3A9"/>
<path opacity="0.2" d="M139.376 89.6974C139.376 89.6974 137.325 100.106 124.746 102.465C124.746 102.465 121.46 105.086 120.367 106.636C119.274 108.187 113.451 110.823 107.519 119.048C101.588 127.273 92.7563 101.154 92.7563 101.154L112.275 75.8043L139.376 89.6974Z" fill="black" fill-opacity="0.7"/>
<path d="M150.555 40.8253C150.555 40.8253 157.338 37.5082 158.831 38.0801C160.323 38.652 161.757 42.0834 156.051 45.3685C150.345 48.6536 152.048 54.7743 152.048 54.7743H156.117C156.117 54.7743 158.559 55.7691 159.509 57.0486C160.459 58.3281 161.137 62.6905 161.679 64.1694C162.222 65.6484 161.945 67.13 160.459 67.6115C160.459 67.6115 159.509 71.7504 159.78 73.5858C160.052 75.4212 159.916 76.6023 158.152 76.8257C157.709 76.872 157.26 76.8212 156.838 76.6769C156.416 76.5326 156.03 76.2982 155.707 75.99C155.385 75.6819 155.133 75.3072 154.97 74.8921C154.806 74.4769 154.735 74.0312 154.761 73.5858L153.404 78.5015L154.354 80.3901C155.695 80.9093 156.935 81.6602 158.017 82.6085C159.916 84.2365 161.815 84.6807 161.273 86.4948C160.73 88.3089 159.645 90.264 153.947 87.9977C148.249 85.7314 143.501 76.8257 143.501 76.8257L140.078 45.7729L150.555 40.8253Z" fill="#003250"/>
<path d="M139.958 84.694C139.958 84.694 132.579 99.1617 119.279 102.444C119.279 102.444 118.771 105.306 116.521 106.535C115.319 107.19 110.467 114.459 106.208 121.096L82.6191 106.626C84.0715 105.189 85.726 103.535 87.4071 101.808C92.3281 96.7917 97.579 91.1684 99.1856 88.3861C100.622 85.9123 102.439 81.619 104.022 77.5838C106.048 72.4234 107.698 67.6833 107.698 67.6833L115.561 58.9425L127.922 45.1983L128.454 46.9566L139.958 84.694Z" fill="#003250"/>
<path d="M140.078 45.7729L150.555 40.8253C150.555 40.8253 157.338 37.5082 158.831 38.0801C160.323 38.652 161.757 42.0834 156.051 45.3685C150.345 48.6536 152.048 54.7743 152.048 54.7743H156.117C156.117 54.7743 158.559 55.7691 159.509 57.0486C160.459 58.3281 161.137 62.6905 161.679 64.1694C162.222 65.6484 161.945 67.13 160.459 67.6115C160.459 67.6115 159.509 71.7504 159.78 73.5858C160.052 75.4212 159.916 76.6023 158.152 76.8257C157.709 76.872 157.26 76.8212 156.838 76.6769C156.416 76.5326 156.03 76.2982 155.707 75.99C155.385 75.6819 155.133 75.3072 154.97 74.8921C154.806 74.4769 154.735 74.0312 154.761 73.5858L153.404 78.5015L154.354 80.3901C155.695 80.9093 156.935 81.6602 158.017 82.6085C159.916 84.2365 161.815 84.6807 161.273 86.4948C160.73 88.3089 159.645 90.264 153.947 87.9977C148.249 85.7314 143.501 76.8257 143.501 76.8257" stroke="#92E3A9" stroke-linecap="round" stroke-linejoin="round"/>
<path d="M160.459 67.6115C158.424 68.1621 156.051 67.7551 155.168 64.1535C154.285 60.5518 156.051 56.7055 157.203 56.3517" stroke="#92E3A9" stroke-linecap="round" stroke-linejoin="round"/>
<path d="M154.761 73.5858C154.761 73.5858 154.625 68.9548 156.322 67.811" stroke="#92E3A9" stroke-linecap="round" stroke-linejoin="round"/>
<path d="M139.958 84.694C139.958 84.694 132.579 99.1617 119.277 102.444C119.277 102.444 118.771 105.306 116.521 106.535C115.319 107.19 110.47 114.459 106.206 121.096" stroke="#92E3A9" stroke-linecap="round" stroke-linejoin="round"/>
<path d="M82.6191 106.626C88.3009 101.01 97.0337 92.1074 99.1963 88.3861C102.468 82.7548 107.708 67.6806 107.708 67.6806L127.924 45.1983" stroke="#92E3A9" stroke-linecap="round" stroke-linejoin="round"/>
<path d="M116.388 62.3686C116.388 62.3686 119.495 65.151 120.378 67.6886" stroke="#92E3A9" stroke-linecap="round" stroke-linejoin="round"/>
<path d="M153.061 21.8435H119.633C118.644 21.8435 117.843 22.645 117.843 23.6337V94.7967C117.843 95.7854 118.644 96.5868 119.633 96.5868H153.061C154.05 96.5868 154.851 95.7854 154.851 94.7967V23.6337C154.851 22.645 154.05 21.8435 153.061 21.8435Z" fill="black"/>
<path d="M143.682 23.8784L142.974 25.1738C142.9 25.3144 142.788 25.4321 142.652 25.5146C142.516 25.597 142.36 25.641 142.2 25.642H130.496C130.337 25.6412 130.181 25.5978 130.045 25.5164C129.908 25.435 129.796 25.3186 129.72 25.1792L129.015 23.8837C128.939 23.7438 128.827 23.6268 128.69 23.5454C128.553 23.4639 128.397 23.4209 128.238 23.4209H120.058C119.942 23.4212 119.827 23.4446 119.719 23.4896C119.612 23.5346 119.514 23.6004 119.432 23.6832C119.35 23.7659 119.285 23.8641 119.241 23.972C119.197 24.0799 119.175 24.1955 119.175 24.312V94.27C119.175 94.5045 119.268 94.7294 119.434 94.8954C119.599 95.0614 119.824 95.1551 120.058 95.1558H152.633C152.75 95.1565 152.865 95.1341 152.973 95.0899C153.081 95.0457 153.18 94.9806 153.263 94.8982C153.345 94.8159 153.411 94.718 153.456 94.6102C153.501 94.5024 153.524 94.3868 153.524 94.27V24.312C153.524 24.0771 153.431 23.8518 153.264 23.6857C153.098 23.5195 152.873 23.4262 152.638 23.4262H144.461C144.303 23.4247 144.147 23.4659 144.01 23.5454C143.872 23.625 143.759 23.74 143.682 23.8784Z" fill="#92E3A9"/>
<path d="M133.808 24.5062C134.071 24.5062 134.284 24.293 134.284 24.03C134.284 23.7671 134.071 23.5539 133.808 23.5539C133.545 23.5539 133.332 23.7671 133.332 24.03C133.332 24.293 133.545 24.5062 133.808 24.5062Z" stroke="#003250" stroke-miterlimit="10"/>
<path d="M139.36 24.03C139.359 24.0883 139.341 24.1451 139.308 24.1933C139.276 24.2415 139.229 24.279 139.175 24.3009C139.121 24.3229 139.062 24.3283 139.005 24.3166C138.948 24.3049 138.896 24.2766 138.855 24.2352C138.814 24.1938 138.786 24.1412 138.775 24.084C138.763 24.0268 138.769 23.9676 138.792 23.9138C138.814 23.86 138.852 23.814 138.901 23.7817C138.949 23.7494 139.006 23.7321 139.064 23.7321C139.103 23.7321 139.142 23.7398 139.178 23.7548C139.214 23.7698 139.247 23.7918 139.274 23.8195C139.301 23.8472 139.323 23.8801 139.338 23.9162C139.353 23.9524 139.36 23.991 139.36 24.03V24.03Z" stroke="#003250" stroke-miterlimit="10"/>
<path d="M138.035 23.8438H135.141C135.117 23.8438 135.093 23.8486 135.07 23.858C135.048 23.8674 135.027 23.8812 135.01 23.8985C134.993 23.9158 134.98 23.9364 134.971 23.959C134.962 23.9815 134.957 24.0057 134.958 24.03C134.958 24.0787 134.977 24.1254 135.011 24.1598C135.046 24.1942 135.092 24.2136 135.141 24.2136H138.035C138.084 24.2136 138.131 24.1942 138.165 24.1598C138.199 24.1254 138.219 24.0787 138.219 24.03C138.219 24.0057 138.215 23.9815 138.205 23.959C138.196 23.9364 138.183 23.9158 138.166 23.8985C138.149 23.8812 138.128 23.8674 138.106 23.858C138.084 23.8486 138.059 23.8438 138.035 23.8438Z" fill="#003250"/>
<path d="M125.232 25.1951H122.112V26.5198H125.232V25.1951Z" stroke="#92E3A9" stroke-linecap="round" stroke-linejoin="round"/>
<path d="M125.714 25.4185H125.229V26.299H125.714V25.4185Z" stroke="#92E3A9" stroke-linecap="round" stroke-linejoin="round"/>
<path d="M147.342 26.041H146.789V26.5224H147.342V26.041Z" stroke="#92E3A9" stroke-linecap="round" stroke-linejoin="round"/>
<path d="M148.422 25.5569H147.869V26.5224H148.422V25.5569Z" stroke="#92E3A9" stroke-linecap="round" stroke-linejoin="round"/>
<path d="M149.502 25.0728H148.949V26.5198H149.502V25.0728Z" stroke="#92E3A9" stroke-linecap="round" stroke-linejoin="round"/>
<path d="M150.58 24.5886H150.026V26.5198H150.58V24.5886Z" stroke="#92E3A9" stroke-linecap="round" stroke-linejoin="round"/>
<path opacity="0.5" d="M153.296 38.8781H119.396V71.2104H153.296V38.8781Z" fill="#003250"/>
<path d="M128.759 33.7151V34.2763C128.759 34.9706 128.427 35.3403 127.746 35.3403H127.424V36.9656H126.743V32.6431H127.746C128.427 32.6431 128.759 33.0208 128.759 33.7151ZM127.429 33.2629V34.7285H127.751C127.967 34.7285 128.084 34.6301 128.084 34.3216V33.6699C128.084 33.3613 127.967 33.2629 127.751 33.2629H127.429Z" fill="#92E3A9"/>
<path d="M131.199 36.9736H130.513L130.393 36.1889H129.56L129.441 36.9736H128.815L129.51 32.6431H130.505L131.199 36.9736ZM129.645 35.601H130.302L129.981 33.4118H129.967L129.645 35.601Z" fill="#92E3A9"/>
<path d="M131.848 35.5398L130.989 32.6431H131.712L132.226 34.6168H132.239L132.752 32.6431H133.401L132.542 35.5398V36.9736H131.861L131.848 35.5398Z" fill="#92E3A9"/>
<path d="M135.096 35.7181H135.109L135.566 32.6431H136.513V36.9736H135.87V33.8694L135.412 36.9736H134.768L134.274 33.9119V36.9736H133.654V32.6431H134.601L135.096 35.7181Z" fill="#92E3A9"/>
<path d="M137.689 34.4679H138.628V35.0876H137.695V36.3565H138.87V36.9736H137.008V32.6431H138.87V33.2629H137.695L137.689 34.4679Z" fill="#92E3A9"/>
<path d="M139.905 33.8374H139.892V36.9736H139.28V32.6431H140.134L140.82 35.2366V32.6431H141.426V36.9736H140.729L139.905 33.8374Z" fill="#92E3A9"/>
<path d="M141.729 32.6431H143.834V33.2629H143.121V36.9736H142.44V33.2629H141.729V32.6431Z" fill="#92E3A9"/>
<path d="M145.047 32.5952C145.707 32.5952 146.047 32.9916 146.047 33.6832V33.8188H145.403V33.6406C145.403 33.3294 145.281 33.2123 145.063 33.2123C144.845 33.2123 144.725 33.3294 144.725 33.6406C144.725 33.9518 144.861 34.1912 145.305 34.5796C145.874 35.0823 146.055 35.4388 146.055 35.9335C146.055 36.6278 145.707 37.0241 145.039 37.0241C144.371 37.0241 144.025 36.6278 144.025 35.9335V35.6675H144.669V35.9787C144.669 36.2873 144.805 36.399 145.02 36.399C145.236 36.399 145.374 36.2873 145.374 35.9787C145.374 35.6702 145.238 35.4281 144.791 35.0371C144.222 34.537 144.044 34.1779 144.044 33.6832C144.044 32.9916 144.384 32.5952 145.047 32.5952Z" fill="#92E3A9"/>
<path d="M150.58 42.7963H122.112V47.0497H150.58V42.7963Z" fill="#003250"/>
<path d="M150.58 50.7737H122.112V55.027H150.58V50.7737Z" fill="#003250"/>
<path d="M150.58 58.0275H122.112V62.2808H150.58V58.0275Z" fill="#003250"/>
<path d="M135.591 63.8316H122.112V68.8111H135.591V63.8316Z" fill="#003250"/>
<path d="M150.582 63.8316H137.104V68.8111H150.582V63.8316Z" fill="#003250"/>
<path d="M123.886 42.0542V42.1686H122.995V40.9104H123.86V41.0248H123.131V41.4743H123.78V41.586H123.131V42.0542H123.886Z" fill="#92E3A9"/>
<path d="M125.733 41.6206V42.1686H125.594V41.6366C125.594 41.4371 125.493 41.3333 125.328 41.3333C125.284 41.3315 125.24 41.3393 125.199 41.3562C125.157 41.3732 125.121 41.3989 125.09 41.4315C125.06 41.4642 125.038 41.503 125.024 41.5453C125.011 41.5876 125.006 41.6324 125.012 41.6765V42.1712H124.884V41.6392C124.884 41.4397 124.783 41.336 124.618 41.336C124.574 41.3341 124.529 41.3419 124.488 41.3589C124.447 41.3758 124.41 41.4015 124.38 41.4342C124.35 41.4669 124.327 41.5057 124.314 41.548C124.3 41.5903 124.296 41.635 124.302 41.6791V42.1739H124.174V41.2296H124.296V41.4025C124.333 41.3437 124.384 41.2959 124.445 41.264C124.507 41.2322 124.576 41.2175 124.645 41.2216C124.714 41.2157 124.784 41.2318 124.844 41.2676C124.904 41.3034 124.952 41.357 124.98 41.4211C125.019 41.3572 125.074 41.3048 125.14 41.2697C125.206 41.2346 125.28 41.218 125.355 41.2216C125.407 41.2181 125.46 41.2262 125.509 41.2453C125.558 41.2644 125.602 41.2941 125.638 41.3322C125.674 41.3703 125.701 41.4159 125.717 41.4658C125.734 41.5156 125.739 41.5685 125.733 41.6206Z" fill="#92E3A9"/>
<path d="M126.794 41.5834V42.1686H126.671V42.0223C126.635 42.0749 126.586 42.1172 126.529 42.1447C126.471 42.1723 126.408 42.1842 126.344 42.1792C126.131 42.1792 126.001 42.0675 126.001 41.9132C126.001 41.7589 126.094 41.6472 126.365 41.6472H126.658V41.5887C126.658 41.4264 126.565 41.3386 126.392 41.3386C126.277 41.3369 126.166 41.3765 126.078 41.4504L126.02 41.3546C126.13 41.2693 126.266 41.2243 126.405 41.2269C126.455 41.2187 126.507 41.222 126.555 41.2365C126.604 41.251 126.649 41.2764 126.686 41.3107C126.724 41.3451 126.753 41.3874 126.771 41.4347C126.79 41.4819 126.798 41.5327 126.794 41.5834ZM126.666 41.8866V41.7297H126.368C126.185 41.7297 126.126 41.8015 126.126 41.8999C126.126 41.9983 126.214 42.0781 126.365 42.0781C126.428 42.0799 126.489 42.0625 126.542 42.0283C126.594 41.994 126.635 41.9446 126.658 41.8866H126.666Z" fill="#92E3A9"/>
<path d="M127.11 40.9264C127.111 40.9021 127.121 40.8791 127.139 40.8622C127.156 40.8453 127.179 40.8359 127.203 40.8359C127.227 40.8359 127.25 40.8454 127.267 40.8624C127.284 40.8794 127.294 40.9024 127.294 40.9264C127.294 40.9503 127.284 40.9733 127.267 40.9903C127.25 41.0073 127.227 41.0168 127.203 41.0168C127.179 41.0168 127.156 41.0074 127.139 40.9905C127.121 40.9736 127.111 40.9506 127.11 40.9264ZM127.14 41.2243H127.267V42.1686H127.14V41.2243Z" fill="#92E3A9"/>
<path d="M127.624 40.8359H127.751V42.1659H127.624V40.8359Z" fill="#92E3A9"/>
<path d="M124.767 45.326V45.4404H123.876V44.1822H124.74V44.2966H123.998V44.7435H124.65V44.8578H123.998V45.326H124.767Z" fill="#92E3A9"/>
<path d="M126.613 44.8871V45.435H126.485V44.903C126.485 44.7035 126.384 44.5998 126.219 44.5998C126.175 44.5975 126.131 44.605 126.09 44.6216C126.048 44.6383 126.012 44.6637 125.981 44.6962C125.951 44.7286 125.929 44.7673 125.915 44.8095C125.901 44.8517 125.897 44.8963 125.903 44.9403V45.4377H125.775V44.9057C125.775 44.7062 125.674 44.6025 125.509 44.6025C125.465 44.6002 125.42 44.6076 125.379 44.6243C125.338 44.6409 125.301 44.6664 125.271 44.6988C125.241 44.7313 125.218 44.77 125.205 44.8121C125.191 44.8543 125.187 44.899 125.192 44.9429V45.4404H125.062V44.4934H125.184V44.6663C125.221 44.6082 125.273 44.5611 125.334 44.5297C125.396 44.4984 125.464 44.484 125.533 44.4881C125.602 44.483 125.672 44.4994 125.732 44.5351C125.792 44.5708 125.839 44.624 125.868 44.6876C125.907 44.6234 125.962 44.571 126.028 44.5358C126.094 44.5007 126.168 44.4842 126.243 44.4881C126.295 44.4858 126.346 44.4948 126.394 44.5144C126.442 44.5341 126.485 44.5639 126.52 44.6019C126.556 44.6399 126.582 44.6851 126.598 44.7343C126.614 44.7836 126.619 44.8357 126.613 44.8871Z" fill="#92E3A9"/>
<path d="M127.672 44.8498V45.435H127.549V45.2887C127.514 45.3411 127.465 45.383 127.408 45.4101C127.351 45.4373 127.288 45.4486 127.225 45.443C127.012 45.443 126.879 45.3313 126.879 45.177C126.879 45.0227 126.975 44.911 127.246 44.911H127.547V44.8552C127.547 44.6929 127.453 44.6051 127.281 44.6051C127.165 44.6036 127.053 44.6432 126.964 44.7168L126.908 44.6211C127.018 44.5342 127.154 44.489 127.294 44.4934C127.343 44.487 127.393 44.4916 127.441 44.5069C127.488 44.5222 127.531 44.5479 127.567 44.582C127.603 44.6161 127.632 44.6578 127.65 44.7042C127.668 44.7505 127.675 44.8003 127.672 44.8498ZM127.547 45.1504V44.9961H127.249C127.065 44.9961 127.007 45.068 127.007 45.1664C127.007 45.2648 127.094 45.3446 127.246 45.3446C127.31 45.3483 127.374 45.3315 127.428 45.2966C127.482 45.2617 127.524 45.2105 127.547 45.1504Z" fill="#92E3A9"/>
<path d="M127.988 44.1901C127.989 44.1659 127.999 44.1429 128.016 44.126C128.034 44.1091 128.057 44.0997 128.081 44.0997C128.093 44.0994 128.106 44.1014 128.117 44.1058C128.128 44.1102 128.138 44.1168 128.147 44.1252C128.156 44.1337 128.163 44.1438 128.167 44.1549C128.172 44.1661 128.174 44.178 128.174 44.1901C128.174 44.2148 128.165 44.2385 128.147 44.256C128.13 44.2734 128.106 44.2833 128.081 44.2833C128.057 44.2833 128.033 44.2734 128.016 44.256C127.998 44.2385 127.988 44.2148 127.988 44.1901ZM128.018 44.4881H128.145V45.435H128.018V44.4881Z" fill="#92E3A9"/>
<path d="M128.504 44.0997H128.629V45.4297H128.504V44.0997Z" fill="#92E3A9"/>
<path d="M129.85 44.8871V45.435H129.723V44.903C129.728 44.8637 129.725 44.8237 129.713 44.7858C129.701 44.7479 129.681 44.7131 129.654 44.684C129.627 44.6549 129.594 44.6323 129.557 44.6177C129.52 44.6031 129.48 44.597 129.441 44.5998C129.395 44.596 129.35 44.6023 129.307 44.6182C129.265 44.6341 129.226 44.6592 129.194 44.6917C129.162 44.7242 129.138 44.7634 129.123 44.8064C129.108 44.8493 129.103 44.8951 129.108 44.9403V45.4377H128.98V44.4907H129.103V44.6663C129.141 44.6071 129.195 44.5591 129.258 44.5273C129.321 44.4955 129.391 44.4811 129.462 44.4854C129.515 44.4811 129.569 44.4887 129.619 44.5076C129.669 44.5265 129.714 44.5562 129.751 44.5946C129.788 44.633 129.816 44.6791 129.833 44.7297C129.851 44.7802 129.856 44.834 129.85 44.8871Z" fill="#92E3A9"/>
<path d="M130.914 44.8498V45.435H130.792V45.2887C130.757 45.3411 130.708 45.383 130.651 45.4101C130.594 45.4373 130.53 45.4486 130.467 45.443C130.252 45.443 130.122 45.3313 130.122 45.177C130.122 45.0227 130.215 44.911 130.486 44.911H130.787V44.8552C130.787 44.6929 130.696 44.6051 130.521 44.6051C130.406 44.6033 130.294 44.643 130.207 44.7168L130.148 44.6211C130.258 44.5346 130.394 44.4895 130.534 44.4934C130.583 44.4865 130.634 44.4908 130.681 44.5059C130.729 44.521 130.773 44.5466 130.809 44.5808C130.846 44.615 130.874 44.6569 130.892 44.7034C130.91 44.75 130.918 44.8 130.914 44.8498ZM130.787 45.1504V44.9961H130.491C130.308 44.9961 130.247 45.068 130.247 45.1664C130.247 45.2648 130.334 45.3446 130.486 45.3446C130.551 45.3489 130.615 45.3323 130.67 45.2974C130.724 45.2624 130.766 45.2109 130.789 45.1504H130.787Z" fill="#92E3A9"/>
<path d="M132.824 44.8871V45.4351H132.696V44.9031C132.696 44.7036 132.595 44.5998 132.43 44.5998C132.386 44.5975 132.342 44.605 132.301 44.6216C132.26 44.6383 132.223 44.6637 132.193 44.6962C132.163 44.7286 132.14 44.7673 132.126 44.8095C132.113 44.8517 132.108 44.8963 132.114 44.9403V45.4377H131.978V44.9057C131.978 44.7062 131.877 44.6025 131.712 44.6025C131.668 44.6002 131.624 44.6076 131.583 44.6243C131.542 44.6409 131.505 44.6664 131.475 44.6988C131.444 44.7313 131.422 44.77 131.408 44.8122C131.394 44.8543 131.39 44.899 131.396 44.943V45.4404H131.268V44.4934H131.39V44.6663C131.427 44.6082 131.479 44.5611 131.54 44.5297C131.602 44.4984 131.67 44.484 131.739 44.4881C131.809 44.4822 131.878 44.4983 131.938 44.5341C131.999 44.5698 132.046 44.6235 132.074 44.6876C132.113 44.6236 132.168 44.5713 132.234 44.5362C132.3 44.5011 132.374 44.4845 132.449 44.4881C132.501 44.485 132.553 44.4934 132.602 44.5127C132.651 44.532 132.694 44.5617 132.73 44.5998C132.766 44.6378 132.793 44.6833 132.809 44.733C132.825 44.7826 132.83 44.8352 132.824 44.8871Z" fill="#92E3A9"/>
<path d="M133.997 45.0015H133.199C133.206 45.0942 133.249 45.1804 133.319 45.2413C133.39 45.3021 133.481 45.3326 133.574 45.326C133.628 45.3275 133.683 45.3171 133.733 45.2955C133.783 45.2739 133.828 45.2416 133.864 45.201L133.936 45.2834C133.868 45.3547 133.78 45.4043 133.684 45.4261C133.588 45.4479 133.488 45.4409 133.396 45.406C133.304 45.3711 133.224 45.3098 133.167 45.2298C133.11 45.1498 133.077 45.0546 133.074 44.9562C133.071 44.8939 133.08 44.8314 133.102 44.7729C133.124 44.7144 133.158 44.661 133.201 44.6161C133.244 44.5712 133.297 44.5357 133.354 44.5118C133.412 44.488 133.474 44.4763 133.537 44.4774C133.599 44.4762 133.661 44.4879 133.718 44.5118C133.776 44.5357 133.828 44.5713 133.871 44.6163C133.914 44.6613 133.947 44.7148 133.968 44.7733C133.989 44.8318 133.998 44.8941 133.994 44.9562C133.994 44.9562 133.997 44.9882 133.997 45.0015ZM133.199 44.9057H133.869C133.869 44.8168 133.834 44.7316 133.771 44.6687C133.708 44.6059 133.623 44.5705 133.534 44.5705C133.445 44.5705 133.36 44.6059 133.297 44.6687C133.234 44.7316 133.199 44.8168 133.199 44.9057Z" fill="#92E3A9"/>
<path d="M135.848 44.9589C135.848 45.2648 135.734 45.443 135.548 45.443C135.521 45.4445 135.495 45.4405 135.47 45.4314C135.446 45.4223 135.423 45.4081 135.404 45.3899C135.385 45.3717 135.37 45.3498 135.36 45.3255C135.35 45.3012 135.345 45.2751 135.345 45.2488C135.308 45.3104 135.256 45.3608 135.192 45.395C135.129 45.4291 135.058 45.4457 134.986 45.443C134.864 45.443 134.746 45.3943 134.659 45.3075C134.572 45.2207 134.524 45.1029 134.524 44.9802C134.524 44.8574 134.572 44.7397 134.659 44.6529C134.746 44.5661 134.864 44.5173 134.986 44.5173C135.057 44.5143 135.128 44.5302 135.19 44.5634C135.253 44.5966 135.306 44.6459 135.343 44.7062V44.528H135.46V45.2089C135.46 45.31 135.51 45.3473 135.572 45.3473C135.681 45.3473 135.752 45.2089 135.752 44.9669C135.755 44.8708 135.738 44.7752 135.702 44.6862C135.665 44.5972 135.61 44.5169 135.541 44.4505C135.471 44.384 135.389 44.3329 135.298 44.3004C135.208 44.268 135.111 44.2549 135.016 44.262C134.921 44.262 134.827 44.2807 134.739 44.3171C134.651 44.3534 134.571 44.4067 134.504 44.4739C134.437 44.5411 134.384 44.6208 134.347 44.7086C134.311 44.7964 134.292 44.8905 134.292 44.9855C134.292 45.0805 134.311 45.1746 134.347 45.2624C134.384 45.3502 134.437 45.4299 134.504 45.4971C134.571 45.5643 134.651 45.6176 134.739 45.6539C134.827 45.6903 134.921 45.709 135.016 45.709C135.135 45.7087 135.254 45.6814 135.361 45.6292L135.391 45.717C135.273 45.7722 135.145 45.8004 135.016 45.7995C134.8 45.7995 134.593 45.7137 134.44 45.5611C134.287 45.4084 134.202 45.2014 134.202 44.9855C134.202 44.7696 134.287 44.5626 134.44 44.4099C134.593 44.2573 134.8 44.1715 135.016 44.1715C135.123 44.1638 135.231 44.1785 135.333 44.2147C135.434 44.2509 135.527 44.3079 135.605 44.3819C135.684 44.456 135.746 44.5455 135.787 44.6448C135.829 44.7442 135.85 44.8511 135.848 44.9589ZM135.343 44.9775C135.347 44.9301 135.341 44.8823 135.326 44.8372C135.311 44.7921 135.286 44.7507 135.254 44.7156C135.222 44.6805 135.183 44.6525 135.139 44.6333C135.096 44.6141 135.049 44.6042 135.001 44.6042C134.953 44.6042 134.906 44.6141 134.863 44.6333C134.819 44.6525 134.78 44.6805 134.748 44.7156C134.716 44.7507 134.691 44.7921 134.676 44.8372C134.661 44.8823 134.655 44.9301 134.659 44.9775C134.655 45.0249 134.661 45.0727 134.676 45.1178C134.691 45.1629 134.716 45.2043 134.748 45.2394C134.78 45.2745 134.819 45.3026 134.863 45.3218C134.906 45.3409 134.953 45.3508 135.001 45.3508C135.049 45.3508 135.096 45.3409 135.139 45.3218C135.183 45.3026 135.222 45.2745 135.254 45.2394C135.286 45.2043 135.311 45.1629 135.326 45.1178C135.341 45.0727 135.347 45.0249 135.343 44.9775Z" fill="#92E3A9"/>
<path d="M136.939 45.0015H136.141C136.144 45.0476 136.156 45.0927 136.176 45.1343C136.196 45.1759 136.224 45.2131 136.259 45.2437C136.293 45.2743 136.334 45.2979 136.377 45.3129C136.421 45.3279 136.467 45.3342 136.513 45.3313C136.568 45.3328 136.622 45.3224 136.672 45.3008C136.722 45.2792 136.767 45.2469 136.803 45.2063L136.875 45.2887C136.807 45.36 136.72 45.4096 136.624 45.4315C136.528 45.4533 136.428 45.4463 136.336 45.4113C136.244 45.3764 136.164 45.3151 136.107 45.2351C136.049 45.1551 136.017 45.0599 136.013 44.9616C136.01 44.8992 136.02 44.8368 136.042 44.7782C136.063 44.7197 136.097 44.6663 136.141 44.6214C136.184 44.5765 136.236 44.541 136.294 44.5171C136.352 44.4933 136.414 44.4816 136.476 44.4828C136.538 44.4815 136.6 44.4932 136.658 44.5171C136.715 44.541 136.767 44.5766 136.81 44.6216C136.853 44.6666 136.886 44.7201 136.908 44.7786C136.929 44.8371 136.938 44.8994 136.934 44.9616C136.934 44.9616 136.939 44.9882 136.939 45.0015ZM136.141 44.9057H136.811C136.811 44.8168 136.776 44.7316 136.713 44.6687C136.65 44.6058 136.565 44.5705 136.476 44.5705C136.387 44.5705 136.302 44.6058 136.239 44.6687C136.176 44.7316 136.141 44.8168 136.141 44.9057Z" fill="#92E3A9"/>
<path d="M138.764 44.8871V45.435H138.628V44.903C138.628 44.7035 138.527 44.5998 138.362 44.5998C138.318 44.5975 138.273 44.605 138.232 44.6216C138.191 44.6383 138.154 44.6637 138.124 44.6962C138.094 44.7286 138.071 44.7673 138.058 44.8095C138.044 44.8517 138.04 44.8963 138.045 44.9403V45.4377H137.918V44.9057C137.918 44.7062 137.817 44.6025 137.652 44.6025C137.607 44.6002 137.563 44.6076 137.522 44.6243C137.481 44.6409 137.444 44.6664 137.414 44.6988C137.384 44.7313 137.361 44.77 137.348 44.8121C137.334 44.8543 137.33 44.899 137.335 44.9429V45.4404H137.208V44.4934H137.33V44.6663C137.366 44.6084 137.418 44.5614 137.478 44.53C137.539 44.4987 137.607 44.4842 137.676 44.4881C137.746 44.4828 137.816 44.4991 137.876 44.5348C137.936 44.5705 137.984 44.6238 138.013 44.6876C138.051 44.6234 138.106 44.5709 138.172 44.5357C138.237 44.5006 138.312 44.4841 138.386 44.4881C138.438 44.4846 138.491 44.4927 138.54 44.5118C138.589 44.5309 138.633 44.5606 138.669 44.5987C138.705 44.6368 138.732 44.6824 138.748 44.7323C138.765 44.7821 138.77 44.835 138.764 44.8871Z" fill="#92E3A9"/>
<path d="M139.823 44.8499V45.4351H139.692V45.2888C139.657 45.3409 139.608 45.3827 139.551 45.4098C139.494 45.4369 139.431 45.4484 139.368 45.443C139.152 45.443 139.022 45.3313 139.022 45.177C139.022 45.0228 139.115 44.911 139.386 44.911H139.692V44.8552C139.692 44.6929 139.602 44.6051 139.426 44.6051C139.312 44.6034 139.2 44.643 139.112 44.7169L139.054 44.6211C139.164 44.5347 139.3 44.4895 139.44 44.4934C139.489 44.4861 139.54 44.49 139.588 44.505C139.636 44.5199 139.68 44.5454 139.717 44.5796C139.753 44.6139 139.782 44.6559 139.8 44.7027C139.819 44.7495 139.826 44.7998 139.823 44.8499ZM139.695 45.1504V44.9961H139.4C139.216 44.9961 139.155 45.068 139.155 45.1664C139.155 45.2648 139.243 45.3446 139.394 45.3446C139.458 45.3477 139.521 45.3306 139.575 45.2958C139.628 45.2609 139.669 45.21 139.692 45.1504H139.695Z" fill="#92E3A9"/>
<path d="M140.142 44.1902C140.142 44.1718 140.147 44.1538 140.157 44.1385C140.168 44.1231 140.182 44.1112 140.199 44.1042C140.216 44.0971 140.235 44.0953 140.253 44.0989C140.271 44.1025 140.288 44.1113 140.301 44.1243C140.314 44.1374 140.322 44.154 140.326 44.172C140.33 44.1901 140.328 44.2088 140.321 44.2258C140.314 44.2428 140.302 44.2574 140.286 44.2676C140.271 44.2778 140.253 44.2833 140.235 44.2833C140.21 44.2833 140.186 44.2735 140.169 44.256C140.151 44.2386 140.142 44.2149 140.142 44.1902ZM140.168 44.4881H140.296V45.4351H140.168V44.4881Z" fill="#92E3A9"/>
<path d="M140.652 44.0997H140.78V45.4297H140.652V44.0997Z" fill="#92E3A9"/>
<path d="M141.054 45.3446C141.054 45.3319 141.056 45.3193 141.061 45.3075C141.065 45.2957 141.072 45.285 141.081 45.2761C141.09 45.2671 141.101 45.2601 141.113 45.2554C141.125 45.2507 141.137 45.2485 141.15 45.2488C141.175 45.2488 141.2 45.2589 141.218 45.2769C141.236 45.2949 141.246 45.3192 141.246 45.3446C141.246 45.3703 141.236 45.3949 141.218 45.4133C141.2 45.4317 141.176 45.4423 141.15 45.443C141.137 45.443 141.125 45.4405 141.113 45.4355C141.101 45.4305 141.09 45.4232 141.081 45.414C141.072 45.4049 141.065 45.394 141.061 45.3821C141.056 45.3701 141.054 45.3574 141.054 45.3446Z" fill="#92E3A9"/>
<path d="M141.394 44.9616C141.392 44.8975 141.404 44.8337 141.428 44.7742C141.452 44.7147 141.488 44.6608 141.533 44.6159C141.579 44.5709 141.633 44.5359 141.693 44.513C141.753 44.4901 141.817 44.4798 141.881 44.4828C141.954 44.478 142.027 44.4927 142.093 44.5254C142.158 44.5581 142.214 44.6077 142.254 44.669L142.158 44.7328C142.128 44.6901 142.088 44.6552 142.042 44.6311C141.995 44.607 141.944 44.5944 141.892 44.5945C141.799 44.6023 141.713 44.6445 141.651 44.7128C141.588 44.781 141.553 44.8703 141.553 44.9629C141.553 45.0555 141.588 45.1448 141.651 45.213C141.713 45.2812 141.799 45.3235 141.892 45.3313C141.944 45.3318 141.996 45.3194 142.042 45.2953C142.088 45.2712 142.128 45.2361 142.158 45.193L142.254 45.2568C142.213 45.3177 142.158 45.367 142.092 45.3996C142.027 45.4323 141.954 45.4473 141.881 45.443C141.817 45.446 141.753 45.4356 141.693 45.4126C141.633 45.3895 141.578 45.3542 141.532 45.309C141.486 45.2637 141.451 45.2095 141.427 45.1497C141.403 45.0899 141.392 45.0259 141.394 44.9616Z" fill="#92E3A9"/>
<path d="M142.392 44.9616C142.392 44.8663 142.42 44.7733 142.473 44.6941C142.526 44.6149 142.601 44.5532 142.689 44.5168C142.777 44.4803 142.874 44.4708 142.967 44.4894C143.061 44.5079 143.146 44.5538 143.214 44.6211C143.281 44.6885 143.327 44.7742 143.346 44.8676C143.364 44.961 143.355 45.0578 143.318 45.1458C143.282 45.2338 143.22 45.309 143.141 45.3619C143.062 45.4148 142.969 45.443 142.873 45.443C142.81 45.4453 142.746 45.4343 142.686 45.4109C142.627 45.3875 142.573 45.3521 142.528 45.307C142.483 45.2618 142.447 45.2078 142.424 45.1484C142.401 45.089 142.39 45.0254 142.392 44.9616ZM143.224 44.9616C143.222 44.8915 143.199 44.8237 143.159 44.7667C143.118 44.7097 143.061 44.6661 142.996 44.6414C142.93 44.6167 142.859 44.612 142.79 44.6279C142.722 44.6439 142.66 44.6797 142.612 44.7309C142.565 44.7821 142.533 44.8464 142.522 44.9155C142.51 44.9847 142.52 45.0556 142.549 45.1194C142.578 45.1831 142.625 45.2368 142.685 45.2735C142.745 45.3103 142.814 45.3286 142.884 45.326C142.931 45.3253 142.977 45.3153 143.019 45.2964C143.062 45.2776 143.1 45.2503 143.132 45.2163C143.164 45.1823 143.188 45.1422 143.204 45.0984C143.22 45.0546 143.227 45.0081 143.224 44.9616Z" fill="#92E3A9"/>
<path d="M145.175 44.8871V45.435H145.047V44.903C145.047 44.7035 144.946 44.5998 144.781 44.5998C144.737 44.5975 144.692 44.605 144.651 44.6216C144.61 44.6383 144.573 44.6637 144.543 44.6962C144.513 44.7286 144.49 44.7673 144.477 44.8095C144.463 44.8517 144.459 44.8963 144.464 44.9403V45.4377H144.337V44.9057C144.337 44.7062 144.236 44.6025 144.071 44.6025C144.026 44.6002 143.982 44.6076 143.941 44.6243C143.9 44.6409 143.863 44.6664 143.833 44.6988C143.803 44.7313 143.78 44.77 143.766 44.8121C143.753 44.8543 143.749 44.899 143.754 44.9429V45.4404H143.626V44.4934H143.749V44.6663C143.785 44.6084 143.837 44.5614 143.897 44.53C143.958 44.4987 144.026 44.4842 144.095 44.4881C144.165 44.4828 144.234 44.4991 144.295 44.5348C144.355 44.5705 144.403 44.6238 144.432 44.6876C144.471 44.6236 144.525 44.5713 144.591 44.5361C144.657 44.501 144.731 44.4844 144.805 44.4881C144.857 44.4858 144.908 44.4948 144.956 44.5144C145.004 44.5341 145.047 44.5639 145.082 44.6019C145.117 44.6399 145.144 44.6851 145.16 44.7343C145.176 44.7836 145.181 44.8357 145.175 44.8871Z" fill="#92E3A9"/>
<path d="M124.102 52.923L124.325 53.0506L124.285 53.1251L124.059 52.9948V53.2608H123.977V52.9948L123.751 53.1251L123.708 53.0506L123.934 52.923L123.708 52.7979L123.751 52.7208L123.977 52.8538V52.5878H124.059V52.8538L124.285 52.7208L124.325 52.7979L124.102 52.923Z" fill="#92E3A9"/>
<path d="M124.833 52.923L125.057 53.0506L125.014 53.1251L124.791 52.9948V53.2608H124.706V52.9948L124.482 53.1251L124.437 53.0506L124.663 52.923L124.437 52.7979L124.482 52.7208L124.706 52.8538V52.5878H124.796V52.8538L125.02 52.7208L125.062 52.7979L124.833 52.923Z" fill="#92E3A9"/>
<path d="M125.562 52.923L125.786 53.0506L125.743 53.1251L125.52 52.9948V53.2608H125.437V52.9948L125.214 53.1251L125.171 53.0506L125.395 52.923L125.171 52.7979L125.214 52.7208L125.437 52.8538V52.5878H125.52V52.8538L125.743 52.7208L125.786 52.7979L125.562 52.923Z" fill="#92E3A9"/>
<path d="M126.291 52.923L126.515 53.0506L126.475 53.1251L126.249 52.9948V53.2608H126.166V52.9948L125.94 53.1251L125.897 53.0506L126.124 52.923L125.897 52.7979L125.94 52.7208L126.166 52.8538V52.5878H126.249V52.8538L126.475 52.7208L126.515 52.7979L126.291 52.923Z" fill="#92E3A9"/>
<path d="M127.022 52.923L127.246 53.0506L127.203 53.1251L126.98 52.9948V53.2608H126.895V52.9948L126.671 53.1251L126.626 53.0506L126.852 52.923L126.626 52.7979L126.671 52.7208L126.895 52.8538V52.5878H126.98V52.8538L127.203 52.7208L127.246 52.7979L127.022 52.923Z" fill="#92E3A9"/>
<path d="M127.751 52.923L127.975 53.0506L127.932 53.1251L127.709 52.9948V53.2608H127.626V52.9948L127.403 53.1251L127.36 53.0506L127.584 52.923L127.36 52.7979L127.403 52.7208L127.626 52.8538V52.5878H127.722V52.8538L127.946 52.7208L127.988 52.7979L127.751 52.923Z" fill="#92E3A9"/>
<path d="M128.48 52.923L128.704 53.0506L128.664 53.1251L128.438 52.9948V53.2608H128.355V52.9948L128.129 53.1251L128.086 53.0506L128.313 52.923L128.086 52.7979L128.129 52.7208L128.355 52.8538V52.5878H128.438V52.8538L128.664 52.7208L128.704 52.7979L128.48 52.923Z" fill="#92E3A9"/>
<path d="M129.212 52.923L129.435 53.0506L129.393 53.1251L129.167 52.9948V53.2608H129.084V52.9948L128.861 53.1251L128.815 53.0506L129.042 52.923L128.815 52.7979L128.861 52.7208L129.084 52.8538V52.5878H129.167V52.8538L129.393 52.7208L129.435 52.7979L129.212 52.923Z" fill="#92E3A9"/>
<path d="M129.94 52.923L130.164 53.0506L130.121 53.1251L129.898 52.9948V53.2608H129.815V52.9948L129.592 53.1251L129.549 53.0506L129.773 52.923L129.549 52.7979L129.592 52.7208L129.815 52.8538V52.5878H129.898V52.8538L130.121 52.7208L130.164 52.7979L129.94 52.923Z" fill="#92E3A9"/>
<path d="M130.67 52.923L130.893 53.0506L130.853 53.1251L130.627 52.9948V53.2608H130.545V52.9948L130.318 53.1251L130.276 53.0506L130.499 52.923L130.276 52.7979L130.318 52.7208L130.545 52.8538V52.5878H130.627V52.8538L130.853 52.7208L130.893 52.7979L130.67 52.923Z" fill="#92E3A9"/>
<path d="M131.401 52.923L131.622 53.0506L131.582 53.1251L131.356 52.9948V53.2608H131.273V52.9948L131.05 53.1251L131.004 53.0506L131.23 52.923L131.004 52.7979L131.05 52.7208L131.273 52.8538V52.5878H131.356V52.8538L131.582 52.7208L131.622 52.7979L131.401 52.923Z" fill="#92E3A9"/>
<path d="M123.982 49.316C123.982 49.582 123.788 49.7469 123.469 49.7469H123.131V50.1432H122.995V48.8904H123.466C123.788 48.8904 123.982 49.05 123.982 49.316ZM123.849 49.316C123.849 49.1138 123.716 48.9994 123.463 48.9994H123.131V49.6299H123.466C123.716 49.6352 123.849 49.5208 123.849 49.316Z" fill="#92E3A9"/>
<path d="M124.948 49.5634V50.1486H124.826V50.0023C124.79 50.0546 124.74 50.0965 124.683 50.1236C124.625 50.1507 124.562 50.1621 124.498 50.1565C124.286 50.1565 124.155 50.0475 124.155 49.8905C124.155 49.7336 124.248 49.6245 124.52 49.6245H124.82V49.5687C124.82 49.4064 124.727 49.3186 124.554 49.3186C124.44 49.3169 124.328 49.3565 124.24 49.4304L124.182 49.3346C124.292 49.2482 124.428 49.203 124.568 49.2069C124.617 49.2 124.667 49.2043 124.715 49.2195C124.763 49.2346 124.806 49.2602 124.843 49.2943C124.879 49.3285 124.908 49.3704 124.926 49.4169C124.944 49.4635 124.952 49.5135 124.948 49.5634ZM124.82 49.8639V49.7097H124.53C124.347 49.7097 124.288 49.7815 124.288 49.8799C124.288 49.9783 124.376 50.0581 124.528 50.0581C124.591 50.0601 124.653 50.0425 124.705 50.0077C124.757 49.9729 124.798 49.9227 124.82 49.8639Z" fill="#92E3A9"/>
<path d="M125.163 50.0422L125.219 49.9411C125.318 50.0106 125.436 50.0478 125.557 50.0475C125.735 50.0475 125.809 49.9863 125.809 49.8905C125.809 49.6458 125.198 49.84 125.198 49.4649C125.198 49.3107 125.331 49.1989 125.57 49.1989C125.688 49.1974 125.803 49.2278 125.905 49.2867L125.849 49.3878C125.766 49.3339 125.669 49.3061 125.57 49.308C125.4 49.308 125.325 49.3745 125.325 49.4649C125.325 49.7309 125.937 49.5288 125.937 49.8905C125.937 50.0555 125.794 50.1565 125.546 50.1565C125.409 50.161 125.275 50.1208 125.163 50.0422Z" fill="#92E3A9"/>
<path d="M126.041 50.0422L126.1 49.9411C126.197 50.0109 126.315 50.0481 126.435 50.0475C126.616 50.0475 126.701 49.9863 126.701 49.8905C126.701 49.6458 126.089 49.84 126.089 49.4649C126.089 49.3107 126.222 49.1989 126.464 49.1989C126.581 49.1971 126.696 49.2275 126.796 49.2867L126.741 49.3878C126.661 49.3362 126.569 49.3085 126.475 49.308C126.302 49.308 126.227 49.3745 126.227 49.4649C126.227 49.7309 126.839 49.5288 126.839 49.8905C126.839 50.0555 126.695 50.1565 126.451 50.1565C126.305 50.1668 126.16 50.1264 126.041 50.0422Z" fill="#92E3A9"/>
<path d="M128.422 49.2043L128.063 50.1486H127.943L127.645 49.3745L127.347 50.1486H127.225L126.871 49.2043H126.993L127.289 50.0023L127.592 49.2043H127.704L128.004 50.0023L128.305 49.2043H128.422Z" fill="#92E3A9"/>
<path d="M128.491 49.6751C128.491 49.5799 128.519 49.4868 128.572 49.4076C128.625 49.3284 128.7 49.2667 128.788 49.2303C128.876 49.1938 128.973 49.1843 129.066 49.2029C129.16 49.2215 129.246 49.2673 129.313 49.3346C129.38 49.402 129.426 49.4878 129.445 49.5812C129.463 49.6746 129.454 49.7714 129.417 49.8593C129.381 49.9473 129.319 50.0225 129.24 50.0754C129.161 50.1283 129.068 50.1566 128.972 50.1566C128.909 50.1588 128.845 50.1479 128.786 50.1244C128.726 50.101 128.672 50.0657 128.627 50.0205C128.582 49.9753 128.547 49.9214 128.523 49.8619C128.5 49.8025 128.489 49.7389 128.491 49.6751ZM129.324 49.6751C129.324 49.582 129.287 49.4927 129.221 49.4268C129.155 49.361 129.066 49.324 128.972 49.324C128.879 49.324 128.79 49.361 128.724 49.4268C128.658 49.4927 128.621 49.582 128.621 49.6751C128.621 49.7682 128.658 49.8575 128.724 49.9234C128.79 49.9892 128.879 50.0262 128.972 50.0262C129.066 50.0262 129.155 49.9892 129.221 49.9234C129.287 49.8575 129.324 49.7682 129.324 49.6751Z" fill="#92E3A9"/>
<path d="M130.19 49.1963V49.316H130.159C130.114 49.314 130.069 49.3219 130.027 49.3392C129.986 49.3564 129.949 49.3826 129.918 49.4159C129.888 49.4492 129.866 49.4887 129.853 49.5316C129.839 49.5746 129.836 49.6199 129.842 49.6644V50.1459H129.714V49.2016H129.85V49.3851C129.882 49.3238 129.931 49.2732 129.992 49.2397C130.052 49.2061 130.121 49.191 130.19 49.1963Z" fill="#92E3A9"/>
<path d="M131.273 48.8159V50.1459H131.151V49.9597C131.113 50.0216 131.059 50.0723 130.995 50.1064C130.931 50.1406 130.859 50.157 130.787 50.1539C130.665 50.1448 130.552 50.0903 130.469 50.0013C130.387 49.9123 130.341 49.7952 130.341 49.6737C130.341 49.5522 130.387 49.4352 130.469 49.3462C130.552 49.2571 130.665 49.2026 130.787 49.1936C130.857 49.1909 130.928 49.2067 130.991 49.2393C131.054 49.2719 131.107 49.3204 131.146 49.3798V48.8132L131.273 48.8159ZM131.148 49.6751C131.145 49.6065 131.121 49.5406 131.08 49.4853C131.04 49.4301 130.984 49.388 130.919 49.3643C130.855 49.3405 130.785 49.3362 130.718 49.3517C130.651 49.3673 130.59 49.4021 130.543 49.4519C130.496 49.5017 130.464 49.5642 130.452 49.6318C130.44 49.6993 130.448 49.7689 130.475 49.832C130.502 49.8951 130.547 49.9489 130.604 49.9867C130.661 50.0245 130.729 50.0447 130.797 50.0448C130.845 50.0457 130.893 50.0365 130.937 50.018C130.981 49.9995 131.021 49.972 131.054 49.9372C131.087 49.9024 131.113 49.8612 131.129 49.816C131.145 49.7709 131.152 49.7229 131.148 49.6751Z" fill="#92E3A9"/>
<path d="M133.164 59.69V60.9508H133.042V59.807H132.744V59.69H133.164Z" fill="#92E3A9"/>
<path d="M134.324 60.8285V60.9455H133.441V60.8524L133.973 60.339C134.114 60.2007 134.143 60.1156 134.143 60.0305C134.143 59.8842 134.039 59.7937 133.848 59.7937C133.784 59.7896 133.719 59.8002 133.66 59.8246C133.601 59.849 133.547 59.8867 133.505 59.9347L133.412 59.8549C133.468 59.7939 133.538 59.7461 133.615 59.7148C133.692 59.6836 133.775 59.6697 133.859 59.674C134.125 59.674 134.276 59.8044 134.276 60.0145C134.272 60.0912 134.251 60.1661 134.216 60.2341C134.18 60.3021 134.13 60.3614 134.069 60.4082L133.64 60.8285H134.324Z" fill="#92E3A9"/>
<path d="M135.319 60.5837C135.319 60.7939 135.165 60.9561 134.861 60.9561C134.696 60.9613 134.534 60.9033 134.409 60.7939L134.47 60.6901C134.577 60.7878 134.717 60.8403 134.861 60.8364C135.072 60.8364 135.186 60.7407 135.186 60.5837C135.186 60.4268 135.079 60.3337 134.845 60.3337H134.755V60.2379L135.103 59.8017H134.46V59.69H135.258V59.7831L134.904 60.222C135.183 60.2406 135.319 60.3816 135.319 60.5837Z" fill="#92E3A9"/>
<path d="M136.569 60.613H136.316V60.9455H136.189V60.613H135.479V60.5199L136.146 59.6847H136.29L135.646 60.488H136.191V60.1954H136.316V60.488H136.569V60.613Z" fill="#92E3A9"/>
<path d="M138.014 60.5731C138.014 60.7886 137.865 60.9561 137.556 60.9561C137.39 60.9611 137.229 60.9031 137.104 60.7939L137.168 60.6901C137.219 60.739 137.28 60.7771 137.346 60.8022C137.412 60.8273 137.483 60.839 137.554 60.8364C137.769 60.8364 137.881 60.7327 137.881 60.5704C137.881 60.4082 137.78 60.3044 137.46 60.3044H137.194L137.261 59.6714H137.95V59.7884H137.373L137.33 60.1874H137.492C137.87 60.2007 138.014 60.3523 138.014 60.5731Z" fill="#92E3A9"/>
<path d="M139.123 60.5678C139.122 60.6223 139.11 60.6761 139.088 60.7259C139.066 60.7756 139.033 60.8201 138.993 60.8567C138.952 60.8932 138.904 60.9209 138.853 60.938C138.801 60.9551 138.746 60.9613 138.692 60.9561C138.357 60.9561 138.176 60.7221 138.176 60.3257C138.176 59.9294 138.41 59.674 138.75 59.674C138.855 59.67 138.959 59.6939 139.051 59.7432L138.998 59.8469C138.923 59.8044 138.838 59.7841 138.753 59.7884C138.487 59.7884 138.306 59.9613 138.306 60.3044C138.306 60.3337 138.306 60.3683 138.306 60.4055C138.343 60.3363 138.399 60.2791 138.467 60.2409C138.536 60.2027 138.614 60.185 138.692 60.1901C138.746 60.1833 138.8 60.188 138.852 60.2038C138.904 60.2197 138.951 60.2463 138.992 60.282C139.033 60.3177 139.066 60.3617 139.088 60.4109C139.111 60.4602 139.122 60.5136 139.123 60.5678ZM138.995 60.5678C138.995 60.4002 138.873 60.3018 138.679 60.3018C138.64 60.297 138.6 60.3001 138.562 60.3111C138.525 60.322 138.49 60.3404 138.459 60.3653C138.429 60.3902 138.404 60.4209 138.386 60.4557C138.368 60.4905 138.357 60.5287 138.354 60.5678C138.354 60.7061 138.468 60.8338 138.687 60.8338C138.724 60.8399 138.763 60.8378 138.8 60.8275C138.837 60.8173 138.871 60.7992 138.901 60.7744C138.93 60.7496 138.954 60.7188 138.97 60.6841C138.986 60.6493 138.995 60.6115 138.995 60.5731V60.5678Z" fill="#92E3A9"/>
<path d="M140.144 59.69V59.7831L139.612 60.9508H139.471L139.99 59.807H139.344V60.0411H139.216V59.69H140.144Z" fill="#92E3A9"/>
<path d="M141.248 60.5944C141.248 60.8178 141.059 60.9561 140.759 60.9561C140.458 60.9561 140.274 60.8178 140.274 60.5944C140.274 60.5228 140.297 60.453 140.341 60.3965C140.385 60.34 140.447 60.3 140.516 60.2832C140.458 60.2676 140.407 60.2328 140.372 60.1845C140.336 60.1362 140.318 60.0772 140.32 60.0172C140.32 59.8123 140.493 59.6847 140.759 59.6847C141.025 59.6847 141.203 59.8123 141.203 60.0172C141.202 60.0773 141.182 60.1355 141.145 60.1833C141.109 60.2312 141.058 60.2662 141.001 60.2832C141.071 60.2994 141.134 60.339 141.179 60.3956C141.224 60.4521 141.248 60.5222 141.248 60.5944ZM141.115 60.5944C141.115 60.4401 140.982 60.3417 140.759 60.3417C140.535 60.3417 140.405 60.4401 140.405 60.5944C140.405 60.7487 140.535 60.8604 140.759 60.8604C140.982 60.8604 141.115 60.754 141.115 60.5917V60.5944ZM140.756 60.2379C140.953 60.2379 141.07 60.1502 141.07 60.0118C141.07 59.8735 140.945 59.7857 140.756 59.7857C140.567 59.7857 140.445 59.8709 140.445 60.0118C140.445 60.1528 140.562 60.2379 140.756 60.2379Z" fill="#92E3A9"/>
<path d="M142.807 60.3045C142.807 60.7327 142.573 60.9562 142.23 60.9562C142.126 60.9598 142.023 60.9359 141.932 60.887L141.985 60.7833C142.059 60.8258 142.144 60.8461 142.23 60.8418C142.496 60.8418 142.674 60.6662 142.674 60.3257C142.676 60.2921 142.676 60.2583 142.674 60.2247C142.638 60.2941 142.583 60.3516 142.515 60.3899C142.447 60.4282 142.369 60.4457 142.291 60.4401C142.238 60.4461 142.184 60.4408 142.132 60.4246C142.081 60.4083 142.034 60.3815 141.994 60.3459C141.954 60.3103 141.922 60.2667 141.899 60.2178C141.877 60.169 141.866 60.116 141.865 60.0624C141.866 60.0079 141.878 59.954 141.9 59.9043C141.922 59.8546 141.955 59.81 141.995 59.7735C142.036 59.737 142.084 59.7093 142.135 59.6922C142.187 59.6751 142.242 59.6689 142.296 59.674C142.618 59.674 142.807 59.9081 142.807 60.3045ZM142.629 60.0544C142.629 59.9161 142.514 59.7884 142.296 59.7884C142.258 59.7822 142.219 59.7845 142.181 59.795C142.144 59.8056 142.109 59.8242 142.08 59.8495C142.05 59.8749 142.027 59.9063 142.011 59.9417C141.995 59.9771 141.987 60.0156 141.988 60.0544C141.988 60.222 142.11 60.3204 142.304 60.3204C142.381 60.3263 142.457 60.3017 142.516 60.2519C142.574 60.2021 142.611 60.1311 142.618 60.0544H142.629Z" fill="#92E3A9"/>
<path d="M143.339 59.69V60.9508H143.209V59.807H142.911V59.69H143.339Z" fill="#92E3A9"/>
<path d="M143.637 60.3151C143.637 59.9134 143.85 59.674 144.139 59.674C144.429 59.674 144.642 59.9134 144.642 60.3151C144.642 60.7168 144.432 60.9562 144.139 60.9562C143.847 60.9562 143.637 60.7168 143.637 60.3151ZM144.509 60.3151C144.509 59.9799 144.36 59.7831 144.139 59.7831C143.919 59.7831 143.77 59.9693 143.77 60.3151C143.77 60.6609 143.921 60.8471 144.139 60.8471C144.358 60.8471 144.509 60.6503 144.509 60.3151Z" fill="#92E3A9"/>
<path d="M145.174 59.69V60.9508H145.044V59.807H144.746V59.69H145.174Z" fill="#92E3A9"/>
<path d="M146.294 59.69V60.9508H146.164V59.807H145.866V59.69H146.294Z" fill="#92E3A9"/>
<path d="M146.941 59.69V60.9508H146.813V59.807H146.515V59.69H146.941Z" fill="#92E3A9"/>
<path d="M148.1 60.8284V60.9455H147.217V60.8524L147.749 60.339C147.89 60.2007 147.919 60.1156 147.919 60.0304C147.919 59.8841 147.816 59.7937 147.624 59.7937C147.56 59.7896 147.496 59.8001 147.436 59.8246C147.377 59.849 147.324 59.8867 147.281 59.9347L147.188 59.8549C147.245 59.7942 147.314 59.7465 147.392 59.7153C147.469 59.6841 147.552 59.67 147.635 59.674C147.901 59.674 148.052 59.8044 148.052 60.0145C148.048 60.0912 148.028 60.1661 147.992 60.2341C147.956 60.302 147.906 60.3614 147.845 60.4082L147.406 60.8284H148.1Z" fill="#92E3A9"/>
<path d="M148.611 59.69V60.9508H148.47V59.807H148.175V59.69H148.611Z" fill="#92E3A9"/>
<path d="M127.4 59.3974V59.2059C127.4 59.117 127.365 59.0317 127.302 58.9689C127.239 58.906 127.154 58.8707 127.065 58.8707H123.668C123.579 58.8707 123.494 58.906 123.431 58.9689C123.368 59.0317 123.333 59.117 123.333 59.2059V59.3974H127.4Z" fill="#92E3A9"/>
<path d="M123.333 59.6607V61.0705C123.333 61.1594 123.368 61.2447 123.431 61.3075C123.494 61.3704 123.579 61.4057 123.668 61.4057H127.065C127.154 61.4057 127.239 61.3704 127.302 61.3075C127.365 61.2447 127.4 61.1594 127.4 61.0705V59.6607H123.333Z" fill="#92E3A9"/>
<path d="M123.384 67.0848C123.384 66.6831 123.594 66.4464 123.887 66.4464C124.179 66.4464 124.389 66.6831 124.389 67.0848C124.389 67.4864 124.176 67.7258 123.887 67.7258C123.597 67.7258 123.384 67.4864 123.384 67.0848ZM124.256 67.0848C124.256 66.7496 124.105 66.5528 123.887 66.5528C123.668 66.5528 123.517 66.739 123.517 67.0848C123.517 67.4306 123.666 67.6168 123.887 67.6168C124.107 67.6168 124.264 67.4226 124.264 67.0848H124.256Z" fill="#92E3A9"/>
<path d="M125.541 67.3641C125.541 67.5875 125.352 67.7259 125.052 67.7259C124.751 67.7259 124.567 67.5875 124.567 67.3641C124.566 67.2927 124.59 67.2231 124.634 67.1669C124.678 67.1107 124.74 67.0714 124.809 67.0555C124.753 67.0372 124.704 67.0018 124.668 66.9541C124.633 66.9064 124.614 66.8489 124.613 66.7895C124.613 66.5847 124.786 66.457 125.052 66.457C125.318 66.457 125.496 66.5847 125.496 66.7895C125.494 66.8491 125.474 66.9067 125.438 66.9543C125.403 67.002 125.353 67.0373 125.296 67.0555C125.366 67.0713 125.429 67.1105 125.473 67.1667C125.518 67.2228 125.542 67.2925 125.541 67.3641ZM125.408 67.3641C125.408 67.2098 125.275 67.1141 125.052 67.1141C124.828 67.1141 124.698 67.2098 124.698 67.3641C124.698 67.5184 124.831 67.6301 125.052 67.6301C125.272 67.6301 125.408 67.5184 125.408 67.3614V67.3641ZM125.062 67.0076C125.259 67.0076 125.376 66.9199 125.376 66.7842C125.376 66.6486 125.251 66.5554 125.062 66.5554C124.873 66.5554 124.751 66.6406 124.751 66.7816C124.751 66.9225 124.857 67.0076 125.062 67.0076Z" fill="#92E3A9"/>
<path d="M126.177 66.2017H126.294L125.698 67.8934H125.594L126.177 66.2017Z" fill="#92E3A9"/>
<path d="M127.19 67.5981V67.7152H126.307V67.6221L126.839 67.1114C126.98 66.9704 127.007 66.8853 127.007 66.8001C127.007 66.6538 126.906 66.5634 126.714 66.5634C126.65 66.5593 126.585 66.5698 126.525 66.5942C126.465 66.6186 126.412 66.6563 126.368 66.7044L126.278 66.6246C126.335 66.5638 126.404 66.5162 126.481 66.4854C126.559 66.4546 126.642 66.4413 126.725 66.4464C126.991 66.4464 127.14 66.5741 127.14 66.7842C127.137 66.8609 127.117 66.9361 127.082 67.0042C127.046 67.0723 126.996 67.1316 126.935 67.1779L126.507 67.5981H127.19Z" fill="#92E3A9"/>
<path d="M128.198 67.3428C128.198 67.5583 128.049 67.7258 127.741 67.7258C127.575 67.7308 127.413 67.6728 127.289 67.5636L127.352 67.4598C127.404 67.5087 127.464 67.5468 127.531 67.5719C127.597 67.597 127.667 67.6087 127.738 67.6061C127.954 67.6061 128.065 67.5024 128.065 67.3401C128.065 67.1779 127.967 67.0741 127.645 67.0741H127.379L127.443 66.4437H128.132V66.5581H127.555L127.512 66.9598H127.674C128.055 66.9731 128.198 67.122 128.198 67.3428Z" fill="#92E3A9"/>
<path d="M123.972 65.6457V65.7176H123.418V64.9355H123.95V65.01H123.498V65.276H123.903V65.3478H123.498V65.6378L123.972 65.6457Z" fill="#92E3A9"/>
<path d="M124.645 65.7176L124.394 65.3718L124.128 65.7176H124.033L124.331 65.3159L124.065 64.9355H124.158L124.394 65.2547L124.629 64.9355H124.716L124.45 65.3132L124.748 65.7176H124.645Z" fill="#92E3A9"/>
<path d="M125.475 65.2042C125.475 65.3691 125.352 65.4702 125.155 65.4702H124.945V65.7176H124.863V64.9355H125.155C125.352 64.9355 125.475 65.0366 125.475 65.2042ZM125.392 65.2042C125.392 65.0792 125.31 65.0073 125.153 65.0073H124.945V65.3984H125.153C125.31 65.3984 125.392 65.3265 125.392 65.2042Z" fill="#92E3A9"/>
<path d="M125.958 64.9355H126.275C126.379 64.9355 126.478 64.9767 126.552 65.05C126.625 65.1234 126.666 65.2228 126.666 65.3265C126.666 65.4302 126.625 65.5297 126.552 65.603C126.478 65.6764 126.379 65.7176 126.275 65.7176H125.958V64.9355ZM126.27 65.6457C126.354 65.6457 126.436 65.6121 126.495 65.5522C126.555 65.4924 126.589 65.4112 126.589 65.3265C126.589 65.2419 126.555 65.1607 126.495 65.1008C126.436 65.041 126.354 65.0073 126.27 65.0073H126.041V65.6457H126.27Z" fill="#92E3A9"/>
<path d="M127.307 65.3531V65.7176H127.23V65.6245C127.208 65.6577 127.178 65.6844 127.142 65.7017C127.107 65.7191 127.067 65.7264 127.028 65.7229C126.897 65.7229 126.815 65.6537 126.815 65.5526C126.815 65.4515 126.873 65.3851 127.041 65.3851H127.227V65.3505C127.23 65.3286 127.227 65.3065 127.219 65.2858C127.212 65.2652 127.199 65.2466 127.183 65.2314C127.167 65.2162 127.148 65.2049 127.127 65.1984C127.106 65.1918 127.084 65.1902 127.062 65.1935C126.991 65.1923 126.921 65.2169 126.865 65.2627L126.831 65.2042C126.899 65.1503 126.984 65.1221 127.07 65.1244C127.102 65.1197 127.134 65.1223 127.164 65.132C127.195 65.1417 127.222 65.1583 127.245 65.1804C127.268 65.2025 127.285 65.2296 127.296 65.2595C127.307 65.2895 127.311 65.3215 127.307 65.3531ZM127.227 65.5393V65.4436H127.044C126.929 65.4436 126.892 65.4888 126.892 65.55C126.892 65.6112 126.948 65.659 127.041 65.659C127.08 65.6618 127.12 65.652 127.153 65.6309C127.187 65.6099 127.213 65.5787 127.227 65.542V65.5393Z" fill="#92E3A9"/>
<path d="M127.831 65.6803C127.797 65.7096 127.753 65.7248 127.709 65.7229C127.686 65.7253 127.662 65.7226 127.64 65.715C127.619 65.7073 127.599 65.6949 127.582 65.6786C127.566 65.6623 127.553 65.6426 127.545 65.6208C127.537 65.599 127.534 65.5757 127.536 65.5526V65.1962H127.432V65.1297H127.536V65.01H127.616V65.1377H127.794V65.2042H127.616V65.542C127.614 65.556 127.615 65.5703 127.619 65.5837C127.623 65.5972 127.631 65.6096 127.64 65.6198C127.65 65.6301 127.662 65.638 127.675 65.6429C127.688 65.6479 127.703 65.6497 127.717 65.6484C127.748 65.649 127.779 65.6387 127.805 65.6191L127.831 65.6803Z" fill="#92E3A9"/>
<path d="M128.467 65.4489H127.988C127.992 65.5063 128.019 65.5598 128.062 65.5976C128.106 65.6355 128.162 65.6547 128.22 65.6511C128.254 65.6524 128.288 65.6463 128.319 65.6329C128.35 65.6196 128.378 65.5994 128.401 65.5739L128.446 65.6271C128.417 65.6586 128.381 65.6834 128.342 65.6999C128.302 65.7164 128.26 65.7243 128.217 65.7229C128.177 65.7251 128.136 65.7189 128.099 65.7047C128.061 65.6905 128.026 65.6685 127.998 65.6402C127.969 65.6119 127.946 65.5779 127.931 65.5404C127.916 65.5029 127.91 65.4626 127.911 65.4223C127.909 65.3837 127.915 65.3451 127.928 65.3088C127.941 65.2726 127.962 65.2395 127.989 65.2115C128.015 65.1836 128.048 65.1615 128.083 65.1465C128.119 65.1315 128.157 65.1239 128.196 65.1244C128.235 65.1213 128.275 65.127 128.311 65.1411C128.348 65.1552 128.381 65.1773 128.409 65.2058C128.436 65.2343 128.456 65.2685 128.469 65.306C128.481 65.3434 128.485 65.3832 128.48 65.4223L128.467 65.4489ZM127.975 65.3877H128.393C128.387 65.3364 128.362 65.289 128.324 65.2546C128.285 65.2202 128.235 65.2012 128.184 65.2012C128.132 65.2012 128.082 65.2202 128.044 65.2546C128.005 65.289 127.981 65.3364 127.975 65.3877Z" fill="#92E3A9"/>
<path d="M138.24 66.457V67.7152H138.112V66.5714H137.814V66.457H138.24Z" fill="#92E3A9"/>
<path d="M139.4 67.5982V67.7152H138.517V67.6221L139.049 67.1114C139.19 66.9704 139.219 66.8853 139.219 66.8002C139.219 66.6539 139.115 66.5634 138.924 66.5634C138.859 66.5593 138.795 66.5699 138.736 66.5943C138.676 66.6187 138.623 66.6564 138.58 66.7044L138.487 66.6246C138.544 66.5641 138.614 66.5168 138.691 66.486C138.768 66.4552 138.851 66.4417 138.934 66.4464C139.2 66.4464 139.352 66.5741 139.352 66.7842C139.348 66.8609 139.327 66.9358 139.291 67.0038C139.255 67.0717 139.205 67.1311 139.144 67.1779L138.716 67.5982H139.4Z" fill="#92E3A9"/>
<path d="M140.394 67.3534C140.394 67.5636 140.24 67.7259 139.937 67.7259C139.771 67.7311 139.609 67.6731 139.484 67.5636L139.548 67.4599C139.6 67.509 139.661 67.5473 139.728 67.5724C139.794 67.5976 139.865 67.609 139.937 67.6061C140.147 67.6061 140.261 67.5104 140.261 67.3534C140.261 67.1965 140.155 67.1034 139.921 67.1034H139.83V67.0076L140.179 66.5714H139.535V66.457H140.333V66.5475L139.976 66.9944C140.258 67.0103 140.394 67.1513 140.394 67.3534Z" fill="#92E3A9"/>
<path d="M137.856 65.3265C137.856 65.273 137.866 65.2199 137.886 65.1704C137.907 65.121 137.937 65.0762 137.975 65.0389C138.014 65.0015 138.059 64.9724 138.109 64.9532C138.159 64.9341 138.213 64.9253 138.266 64.9275C138.319 64.9258 138.371 64.935 138.42 64.9547C138.469 64.9744 138.514 65.0041 138.551 65.0419L138.5 65.0951C138.47 65.0647 138.434 65.0408 138.394 65.0248C138.354 65.0088 138.312 65.001 138.269 65.002C138.224 64.9979 138.179 65.0032 138.136 65.0176C138.093 65.032 138.054 65.0551 138.021 65.0856C137.987 65.116 137.961 65.153 137.943 65.1942C137.924 65.2355 137.915 65.2801 137.915 65.3252C137.915 65.3703 137.924 65.4149 137.943 65.4561C137.961 65.4974 137.987 65.5344 138.021 65.5648C138.054 65.5952 138.093 65.6183 138.136 65.6327C138.179 65.6471 138.224 65.6524 138.269 65.6484C138.312 65.65 138.355 65.6425 138.394 65.6265C138.434 65.6104 138.47 65.5862 138.5 65.5553L138.551 65.6085C138.514 65.647 138.469 65.6772 138.42 65.6969C138.37 65.7166 138.317 65.7255 138.263 65.7228C138.21 65.725 138.157 65.7163 138.108 65.6973C138.058 65.6783 138.013 65.6494 137.975 65.6123C137.937 65.5752 137.906 65.5307 137.886 65.4816C137.866 65.4324 137.856 65.3797 137.856 65.3265Z" fill="#92E3A9"/>
<path d="M139.793 64.9355L139.527 65.7176H139.439L139.21 65.0499L138.982 65.7176H138.894L138.628 64.9355H138.713L138.939 65.6085L139.173 64.9355H139.25L139.479 65.6112L139.708 64.9355H139.793Z" fill="#92E3A9"/>
<path d="M131.263 74.4743H130.56L130.409 74.8121H130.271L130.845 73.5539H130.978L131.553 74.8121H131.412L131.263 74.4743ZM131.212 74.3679L130.914 73.6922L130.611 74.3679H131.212Z" fill="#92E3A9"/>
<path d="M131.63 74.3386C131.627 74.2743 131.638 74.2103 131.662 74.1505C131.686 74.0907 131.722 74.0364 131.768 73.9912C131.813 73.946 131.868 73.9107 131.928 73.8876C131.988 73.8646 132.052 73.8542 132.116 73.8572C132.189 73.8528 132.262 73.8681 132.327 73.9013C132.392 73.9345 132.447 73.9845 132.486 74.046L132.393 74.1099C132.363 74.0668 132.324 74.0315 132.277 74.007C132.231 73.9824 132.179 73.9694 132.127 73.9689C132.029 73.9689 131.935 74.0078 131.866 74.0772C131.796 74.1465 131.757 74.2406 131.757 74.3386C131.757 74.4367 131.796 74.5307 131.866 74.6001C131.935 74.6694 132.029 74.7084 132.127 74.7084C132.179 74.708 132.23 74.6952 132.277 74.6712C132.323 74.6471 132.363 74.6125 132.393 74.57L132.486 74.6339C132.446 74.6946 132.391 74.7437 132.326 74.7764C132.261 74.8091 132.189 74.8241 132.116 74.8201C132.052 74.8231 131.988 74.8127 131.928 74.7896C131.868 74.7665 131.813 74.7313 131.768 74.686C131.722 74.6408 131.686 74.5866 131.662 74.5268C131.638 74.467 131.627 74.4029 131.63 74.3386Z" fill="#92E3A9"/>
<path d="M133.244 74.7536C133.188 74.7995 133.117 74.8231 133.045 74.8201C133.009 74.8224 132.974 74.8172 132.94 74.8046C132.907 74.7921 132.877 74.7726 132.852 74.7474C132.826 74.7222 132.807 74.6919 132.794 74.6586C132.782 74.6252 132.777 74.5896 132.779 74.5541V73.9742H132.611V73.8651H132.776V73.6577H132.904V73.8651H133.194V73.9742H132.904V74.5381C132.901 74.5609 132.902 74.5842 132.909 74.6061C132.916 74.628 132.928 74.6481 132.944 74.6648C132.96 74.6814 132.98 74.6943 133.001 74.7023C133.023 74.7103 133.046 74.7133 133.069 74.711C133.12 74.7119 133.17 74.6949 133.21 74.6631L133.244 74.7536Z" fill="#92E3A9"/>
<path d="M133.449 73.5672C133.449 73.5425 133.459 73.5188 133.476 73.5014C133.494 73.4839 133.518 73.4741 133.542 73.4741C133.567 73.4741 133.591 73.4839 133.608 73.5014C133.626 73.5188 133.635 73.5425 133.635 73.5672C133.635 73.5919 133.626 73.6156 133.608 73.633C133.591 73.6505 133.567 73.6603 133.542 73.6603C133.518 73.6603 133.494 73.6505 133.476 73.633C133.459 73.6156 133.449 73.5919 133.449 73.5672ZM133.478 73.8651H133.606V74.8121H133.478V73.8651Z" fill="#92E3A9"/>
<path d="M133.864 74.3386C133.864 74.2435 133.892 74.1505 133.945 74.0714C133.998 73.9923 134.073 73.9306 134.161 73.894C134.248 73.8575 134.345 73.8478 134.438 73.8662C134.532 73.8846 134.617 73.9302 134.685 73.9972C134.752 74.0643 134.798 74.1498 134.817 74.2431C134.836 74.3363 134.827 74.433 134.791 74.521C134.755 74.609 134.694 74.6844 134.615 74.7376C134.536 74.7909 134.443 74.8195 134.348 74.8201C134.284 74.8223 134.22 74.8113 134.161 74.788C134.101 74.7646 134.047 74.7293 134.002 74.6841C133.956 74.639 133.921 74.5851 133.897 74.5256C133.873 74.4662 133.862 74.4026 133.864 74.3386ZM134.697 74.3386C134.693 74.27 134.669 74.2039 134.628 74.1486C134.587 74.0933 134.531 74.0512 134.467 74.0276C134.402 74.0039 134.332 73.9997 134.265 74.0155C134.198 74.0313 134.138 74.0664 134.09 74.1164C134.043 74.1664 134.012 74.2292 134 74.2969C133.988 74.3647 133.997 74.4343 134.024 74.4974C134.051 74.5604 134.097 74.614 134.154 74.6515C134.212 74.689 134.279 74.7088 134.348 74.7083C134.396 74.7088 134.443 74.6994 134.487 74.6807C134.531 74.662 134.57 74.6345 134.603 74.5997C134.636 74.565 134.661 74.5239 134.677 74.4789C134.693 74.434 134.7 74.3862 134.697 74.3386Z" fill="#92E3A9"/>
<path d="M135.968 74.2641V74.8121H135.84V74.2801C135.846 74.2407 135.842 74.2007 135.83 74.1629C135.818 74.1252 135.797 74.0906 135.77 74.0618C135.743 74.033 135.709 74.0106 135.672 73.9964C135.635 73.9821 135.595 73.9764 135.556 73.9795C135.511 73.9761 135.465 73.9827 135.423 73.9988C135.381 74.0149 135.342 74.04 135.311 74.0725C135.28 74.105 135.256 74.144 135.241 74.1868C135.226 74.2295 135.221 74.275 135.226 74.32V74.8174H135.098V73.8704H135.221V74.054C135.259 73.9944 135.312 73.9461 135.375 73.9139C135.438 73.8816 135.509 73.8667 135.58 73.8704C135.632 73.8668 135.685 73.8745 135.734 73.8931C135.783 73.9117 135.827 73.9407 135.864 73.9781C135.901 74.0155 135.929 74.0604 135.947 74.1097C135.965 74.1591 135.972 74.2118 135.968 74.2641Z" fill="#92E3A9"/>
<path d="M136.936 73.6683V74.163H137.585V74.2774H136.936V74.8094H136.803V73.5512H137.665V73.6656L136.936 73.6683Z" fill="#92E3A9"/>
<path d="M137.867 73.5672C137.867 73.5425 137.877 73.5188 137.894 73.5014C137.912 73.4839 137.936 73.4741 137.96 73.4741C137.985 73.4741 138.009 73.4839 138.026 73.5014C138.044 73.5188 138.053 73.5425 138.053 73.5672C138.053 73.5919 138.044 73.6156 138.026 73.633C138.009 73.6505 137.985 73.6603 137.96 73.6603C137.936 73.6603 137.912 73.6505 137.894 73.633C137.877 73.6156 137.867 73.5919 137.867 73.5672ZM137.894 73.8651H138.021V74.8121H137.894V73.8651Z" fill="#92E3A9"/>
<path d="M139.253 73.8651V74.6977C139.263 74.7618 139.258 74.8274 139.238 74.8891C139.218 74.9507 139.183 75.0068 139.137 75.0527C139.091 75.0986 139.035 75.133 138.974 75.1531C138.912 75.1732 138.846 75.1785 138.782 75.1685C138.623 75.1755 138.466 75.1245 138.341 75.0249L138.405 74.9265C138.509 75.0129 138.641 75.0591 138.777 75.0568C139.016 75.0568 139.125 74.9451 139.125 74.7137V74.586C139.085 74.6456 139.03 74.6938 138.966 74.726C138.902 74.7581 138.83 74.7731 138.758 74.7695C138.695 74.7743 138.632 74.7661 138.572 74.7452C138.512 74.7243 138.457 74.6913 138.411 74.6482C138.364 74.6051 138.327 74.5529 138.302 74.4948C138.276 74.4368 138.263 74.3741 138.263 74.3107C138.263 74.2473 138.276 74.1846 138.302 74.1265C138.327 74.0684 138.364 74.0162 138.411 73.9731C138.457 73.9301 138.512 73.8971 138.572 73.8762C138.632 73.8553 138.695 73.847 138.758 73.8518C138.831 73.8489 138.904 73.8647 138.969 73.8978C139.034 73.9309 139.09 73.98 139.131 74.0407V73.8598L139.253 73.8651ZM139.131 74.3147C139.133 74.2432 139.114 74.1728 139.075 74.1123C139.037 74.0519 138.982 74.0042 138.917 73.9754C138.851 73.9466 138.779 73.9379 138.708 73.9506C138.638 73.9632 138.573 73.9965 138.522 74.0463C138.47 74.0961 138.435 74.16 138.42 74.23C138.406 74.2999 138.412 74.3726 138.439 74.4389C138.466 74.5051 138.512 74.5618 138.571 74.6018C138.63 74.6417 138.7 74.6631 138.772 74.6631C138.818 74.6661 138.865 74.6593 138.909 74.6433C138.953 74.6274 138.993 74.6025 139.026 74.5702C139.06 74.538 139.087 74.4991 139.105 74.456C139.123 74.413 139.132 74.3666 139.131 74.32V74.3147Z" fill="#92E3A9"/>
<path d="M140.463 73.8651V74.8121H140.341V74.6392C140.306 74.6971 140.255 74.7445 140.196 74.7763C140.136 74.8082 140.068 74.8233 140 74.8201C139.946 74.8252 139.891 74.8181 139.84 74.7993C139.789 74.7805 139.742 74.7506 139.704 74.7116C139.666 74.6726 139.637 74.6256 139.619 74.5739C139.601 74.5223 139.595 74.4673 139.601 74.4131V73.8651H139.729V74.3971C139.723 74.4367 139.727 74.477 139.739 74.5151C139.751 74.5532 139.771 74.5881 139.798 74.6173C139.826 74.6464 139.859 74.669 139.897 74.6834C139.934 74.6978 139.974 74.7036 140.014 74.7004C140.058 74.7026 140.103 74.695 140.145 74.6783C140.186 74.6615 140.223 74.6359 140.254 74.6033C140.285 74.5706 140.308 74.5317 140.322 74.4892C140.336 74.4467 140.341 74.4017 140.336 74.3572V73.8598L140.463 73.8651Z" fill="#92E3A9"/>
<path d="M141.288 73.8571V73.9822H141.256C141.211 73.9801 141.166 73.9881 141.124 74.0055C141.082 74.0229 141.044 74.0493 141.014 74.0829C140.984 74.1164 140.961 74.1562 140.947 74.1994C140.934 74.2427 140.93 74.2884 140.937 74.3333V74.8147H140.809V73.8678H140.931V74.054C140.965 73.9894 141.016 73.9362 141.08 73.9011C141.143 73.8661 141.216 73.8507 141.288 73.8571Z" fill="#92E3A9"/>
<path d="M142.352 74.3785H141.554C141.557 74.4246 141.569 74.4698 141.589 74.5114C141.609 74.5529 141.637 74.5901 141.672 74.6208C141.706 74.6514 141.747 74.6749 141.79 74.6899C141.834 74.705 141.88 74.7112 141.926 74.7083C141.981 74.7098 142.035 74.6994 142.085 74.6778C142.135 74.6562 142.18 74.624 142.216 74.5833L142.288 74.6658C142.22 74.737 142.133 74.7867 142.037 74.8085C141.941 74.8303 141.841 74.8233 141.749 74.7884C141.657 74.7534 141.577 74.6921 141.52 74.6121C141.462 74.5321 141.43 74.437 141.426 74.3386C141.423 74.2761 141.433 74.2136 141.455 74.1549C141.476 74.0962 141.51 74.0427 141.553 73.9976C141.597 73.9524 141.649 73.9167 141.707 73.8925C141.765 73.8684 141.827 73.8563 141.889 73.8571C141.952 73.8559 142.014 73.8677 142.071 73.8917C142.129 73.9158 142.181 73.9516 142.224 73.9969C142.267 74.0422 142.3 74.096 142.322 74.1548C142.343 74.2137 142.351 74.2763 142.347 74.3386C142.347 74.3386 142.352 74.3625 142.352 74.3785ZM141.554 74.2827H142.224C142.224 74.1939 142.189 74.1086 142.126 74.0458C142.063 73.9829 141.978 73.9476 141.889 73.9476C141.8 73.9476 141.715 73.9829 141.652 74.0458C141.589 74.1086 141.554 74.1939 141.554 74.2827Z" fill="#92E3A9"/>
<path d="M131.827 79.8581V80.4114H131.335V79.8794C130.895 79.8657 130.468 79.7284 130.103 79.483L130.369 78.8819C130.653 79.0803 130.984 79.2014 131.329 79.233V78.4084C130.779 78.2727 130.167 78.0919 130.167 77.3843C130.167 76.8523 130.547 76.4107 131.329 76.3203V75.7723H131.821V76.3043C132.175 76.3244 132.519 76.4284 132.824 76.6076L132.577 77.2141C132.345 77.0764 132.088 76.986 131.821 76.9481V77.7886C132.369 77.9163 132.973 78.0998 132.973 78.7968C132.978 79.3208 132.603 79.765 131.827 79.8581ZM131.335 77.6769V76.98C131.069 77.0385 130.968 77.1821 130.968 77.3444C130.968 77.5067 131.116 77.6077 131.335 77.6769ZM132.183 78.8659C132.183 78.693 132.04 78.5999 131.827 78.5254V79.2064C132.074 79.1532 132.183 79.0255 132.183 78.8659Z" fill="#92E3A9"/>
<path d="M135.891 79.1665V79.8209H133.279V79.3022L134.609 78.0413C134.917 77.7487 134.971 77.5732 134.971 77.4029C134.971 77.1369 134.782 76.9747 134.417 76.9747C134.279 76.9693 134.141 76.998 134.016 77.0583C133.892 77.1186 133.784 77.2086 133.702 77.3205L133.119 76.9454C133.277 76.7327 133.485 76.5626 133.724 76.4502C133.964 76.3378 134.227 76.2868 134.492 76.3017C135.263 76.3017 135.776 76.698 135.776 77.3258C135.776 77.661 135.681 77.9669 135.197 78.4164L134.399 79.1665H135.891Z" fill="#92E3A9"/>
<path d="M136.213 78.0919C136.213 76.9507 136.846 76.3017 137.695 76.3017C138.543 76.3017 139.176 76.9507 139.176 78.0919C139.176 79.233 138.548 79.8794 137.695 79.8794C136.841 79.8794 136.213 79.233 136.213 78.0919ZM138.373 78.0919C138.373 77.2939 138.107 76.98 137.695 76.98C137.282 76.98 137.024 77.3045 137.024 78.0919C137.024 78.8792 137.29 79.2011 137.695 79.2011C138.099 79.2011 138.362 78.8766 138.362 78.0919H138.373Z" fill="#92E3A9"/>
<path d="M139.567 78.0919C139.567 76.9507 140.2 76.3017 141.049 76.3017C141.897 76.3017 142.53 76.9507 142.53 78.0919C142.53 79.233 141.902 79.8794 141.049 79.8794C140.195 79.8794 139.567 79.233 139.567 78.0919ZM141.724 78.0919C141.724 77.2939 141.458 76.98 141.049 76.98C140.639 76.98 140.376 77.3045 140.376 78.0919C140.376 78.8792 140.642 79.2011 141.049 79.2011C141.455 79.2011 141.724 78.8766 141.724 78.0919Z" fill="#92E3A9"/>
<path d="M141.86 88.6255H130.832C130.148 88.6248 129.492 88.3527 129.008 87.869C128.524 87.3852 128.252 86.7294 128.251 86.0453C128.251 85.3607 128.523 84.7042 129.007 84.2198C129.491 83.7355 130.147 83.4631 130.832 83.4624H141.86C142.199 83.4624 142.535 83.5292 142.848 83.6591C143.161 83.7889 143.446 83.9792 143.685 84.2191C143.925 84.4589 144.115 84.7437 144.245 85.057C144.374 85.3704 144.441 85.7062 144.44 86.0453C144.44 86.7296 144.168 87.3859 143.685 87.8697C143.201 88.3536 142.544 88.6255 141.86 88.6255Z" fill="#92E3A9"/>
<path d="M132.808 85.758C132.808 86.0825 132.574 86.2767 132.188 86.2767H131.779V86.7555H131.619V85.2393H132.188C132.574 85.2499 132.808 85.4441 132.808 85.758ZM132.646 85.758C132.646 85.5159 132.486 85.3776 132.183 85.3776H131.779V86.1357H132.183C132.486 86.1464 132.646 86.008 132.646 85.758Z" fill="#003250"/>
<path d="M133.971 86.0586V86.7661H133.824V86.5879C133.781 86.6516 133.722 86.7027 133.653 86.7359C133.584 86.7691 133.507 86.7832 133.431 86.7768C133.165 86.7768 133.016 86.6438 133.016 86.4443C133.016 86.2448 133.127 86.1224 133.455 86.1224H133.816V86.0532C133.816 85.8591 133.707 85.7527 133.494 85.7527C133.356 85.7506 133.221 85.7977 133.114 85.8857L133.045 85.7713C133.177 85.667 133.342 85.6124 133.51 85.617C133.571 85.6082 133.633 85.6134 133.692 85.6322C133.75 85.6509 133.804 85.6828 133.848 85.7254C133.893 85.768 133.927 85.8201 133.948 85.8779C133.969 85.9356 133.977 85.9974 133.971 86.0586ZM133.816 86.423V86.2368H133.46C133.239 86.2368 133.167 86.3246 133.167 86.4416C133.167 86.5586 133.274 86.6571 133.455 86.6571C133.532 86.662 133.609 86.6419 133.674 86.5998C133.739 86.5576 133.789 86.4956 133.816 86.423Z" fill="#003250"/>
<path d="M135.324 85.625L134.755 86.9018C134.659 87.1252 134.54 87.197 134.377 87.197C134.276 87.1969 134.179 87.1578 134.106 87.088L134.178 86.9736C134.205 87.0016 134.237 87.0238 134.272 87.0389C134.308 87.054 134.347 87.0616 134.385 87.0614C134.489 87.0614 134.558 87.0135 134.622 86.8699L134.673 86.7581L134.162 85.6197H134.324L134.752 86.5906L135.17 85.625H135.324Z" fill="#003250"/>
<path d="M136.625 86.7768V87.0268H136.516V86.7794C136.325 86.778 136.141 86.7081 135.998 86.5826L136.061 86.4576C136.187 86.5697 136.348 86.6346 136.516 86.6411V86.0719C136.277 86.0134 136.035 85.9389 136.035 85.6516C136.035 85.4441 136.184 85.2632 136.516 85.2393V84.9893H136.625V85.226C136.781 85.2287 136.933 85.2747 137.064 85.359L137.011 85.4867C136.895 85.414 136.762 85.371 136.625 85.3617V85.9362C136.87 85.9947 137.128 86.0639 137.128 86.3538C137.128 86.5746 136.968 86.7582 136.625 86.7768ZM136.516 85.9203V85.3883C136.293 85.4069 136.192 85.5213 136.192 85.6543C136.192 85.7873 136.338 85.8724 136.516 85.9203ZM136.968 86.3751C136.968 86.2022 136.812 86.1437 136.625 86.1091V86.6411C136.862 86.6225 136.968 86.5134 136.968 86.3751Z" fill="#003250"/>
<path d="M138.378 86.6278V86.7661H137.314V86.6571L137.944 86.0373C138.115 85.8697 138.147 85.7713 138.147 85.6622C138.147 85.4867 138.024 85.3803 137.793 85.3803C137.716 85.3764 137.638 85.3894 137.567 85.4183C137.495 85.4472 137.431 85.4914 137.378 85.5478L137.266 85.4521C137.334 85.38 137.417 85.3235 137.509 85.2863C137.6 85.2491 137.699 85.2322 137.798 85.2366C138.104 85.2366 138.301 85.3936 138.301 85.6463C138.297 85.7388 138.273 85.8293 138.229 85.9113C138.186 85.9932 138.125 86.0644 138.051 86.1197L137.535 86.6278H138.378Z" fill="#003250"/>
<path d="M138.564 86.008C138.564 85.5239 138.817 85.2366 139.168 85.2366C139.519 85.2366 139.775 85.5239 139.775 86.008C139.775 86.4922 139.509 86.7794 139.168 86.7794C138.828 86.7794 138.564 86.4922 138.564 86.008ZM139.615 86.008C139.615 85.6037 139.434 85.3803 139.168 85.3803C138.902 85.3803 138.721 85.6037 138.721 86.008C138.721 86.4124 138.905 86.6358 139.168 86.6358C139.432 86.6358 139.615 86.4124 139.615 86.008Z" fill="#003250"/>
<path d="M139.998 86.008C139.998 85.5239 140.264 85.2366 140.605 85.2366C140.945 85.2366 141.211 85.5239 141.211 86.008C141.211 86.4922 140.945 86.7794 140.605 86.7794C140.264 86.7794 139.998 86.4922 139.998 86.008ZM141.062 86.008C141.062 85.6037 140.881 85.3803 140.618 85.3803C140.354 85.3803 140.171 85.6037 140.171 86.008C140.171 86.4124 140.352 86.6358 140.618 86.6358C140.884 86.6358 141.049 86.4124 141.049 86.008H141.062Z" fill="#003250"/>
<path d="M119.66 80.5018C120.059 86.6331 117.218 93.4614 117.218 93.4614L101.872 89.1415L99.1963 88.3861C101.856 84.6913 103.122 77.4136 102.428 71.5243C102.375 71.0801 102.343 70.6625 102.319 70.2635C102.053 65.4063 104.072 63.9859 105.777 61.8393C107.639 59.5144 111.783 50.7364 111.783 48.659C111.783 46.5815 116.984 41.4956 115.827 35.7234C115.827 35.7234 117.399 34.7472 118.979 35.5478C119.697 35.9096 120.412 36.6358 120.99 37.9817C122.344 41.1445 120.442 50.0847 118.824 52.2766L115.71 65.1723C115.71 65.1723 116.76 66.9837 117.792 70.2715C118.818 73.5955 119.445 77.0297 119.66 80.5018Z" fill="#003250"/>
<path d="M99.1963 88.3861C101.856 84.6913 103.122 77.4136 102.431 71.5243C101.739 65.6351 103.931 64.1614 105.78 61.8366C107.628 59.5118 111.783 50.7364 111.783 48.6563C111.783 46.5762 116.981 41.4982 115.827 35.7234C115.827 35.7234 119.144 33.6672 120.99 37.9817C122.344 41.1471 120.442 50.0847 118.824 52.2792L115.712 65.1722C115.712 65.1722 119.035 70.9045 119.66 80.5018C120.059 86.6331 117.218 93.464 117.218 93.464" stroke="#92E3A9" stroke-linecap="round" stroke-linejoin="round"/>
<path d="M109.453 98.369C109.453 98.369 112.946 100.518 114.983 103.918" stroke="#92E3A9" stroke-linecap="round" stroke-linejoin="round"/>
<path d="M119.264 102.436C119.264 102.436 116.255 102.864 113.537 99.6113C111.794 97.5285 106.503 96.5868 105.291 91.1392" stroke="#92E3A9" stroke-linecap="round" stroke-linejoin="round"/>
<path d="M191.681 118.186C191.32 117.151 190.953 116.021 190.668 114.994C190.301 113.664 190.014 112.6 189.338 111.363C189.232 111.166 189.117 110.959 188.99 110.735C188.269 109.451 187.282 107.692 186.705 105.532C186.316 104.077 186.705 100.494 187.066 97.0204C187.332 94.5254 187.574 92.1713 187.503 90.8359L187.481 90.3625C187.3 86.8699 186.923 79.6028 186.151 77.5945C185.393 75.658 184.686 75.368 183.396 74.852C183.263 74.7935 183.13 74.7403 182.975 74.6764C182.491 74.4743 181.667 74.0487 180.717 73.5566C178.576 72.4474 175.91 71.0668 174.556 70.8966C173.29 70.7543 172.009 70.8135 170.761 71.0722C169.093 69.7927 166.255 68.1462 165.409 68.1116C164.717 68.077 163.206 68.5106 162.483 68.7367L162.118 68.8537C161.66 68.4983 161.174 68.1799 160.666 67.9014C160.631 67.8828 160.597 67.8695 160.567 67.8562C159.628 67.4705 158.211 67.4572 157.437 67.4785C157.203 67.4785 157.019 67.5024 156.937 67.5104C155.476 65.2627 154.04 63.0257 153.415 62.0441C152.111 59.98 148.076 51.4866 148.036 51.4041C148.032 51.3932 148.024 51.3835 148.015 51.3761C148.006 51.3687 147.995 51.3637 147.983 51.3616C147.971 51.3598 147.958 51.3598 147.946 51.3616C147.632 51.2711 145.32 50.6832 144.392 52.923C143.376 55.3622 144.826 60.7168 146.241 62.6612C146.922 63.5975 148.781 67.4173 150.667 71.3701C150.183 71.8196 146.31 75.3973 144.429 76.065C142.889 76.6103 143.251 84.5051 143.541 90.8439C143.65 93.1847 143.74 95.1983 143.714 96.4086C143.66 98.7495 147.919 101.973 152.047 105.091C155.771 107.916 159.634 110.834 160.086 112.954C160.211 113.55 160.567 114.034 160.993 114.579C161.703 115.484 162.618 116.55 163.007 118.569C163.121 119.176 164.095 119.968 164.869 121.264H192.809C192.575 120.633 192.134 119.484 191.681 118.186ZM152.933 76.1315C154.287 78.967 155.125 80.6535 155.327 80.8423C155.529 81.0312 155.516 81.9303 155.511 82.8054C155.482 83.5715 155.508 84.3387 155.591 85.101C155.261 85.3909 153.178 87.2875 152.758 88.825L150.989 86.7422L150.542 80.2066C150.808 79.9246 152.627 78.0014 152.933 76.1315Z" fill="#003250"/>
<path d="M163.632 75.3175C162.443 74.9435 161.399 74.2114 160.642 73.2214C159.426 71.5935 154.651 64.1774 153.329 62.0867C152.007 59.9959 147.938 51.444 147.938 51.444C147.938 51.444 145.437 50.6061 144.464 52.9416C143.49 55.2771 144.823 60.5545 146.304 62.5867C147.786 64.619 154.827 80.2678 155.386 80.7732C155.944 81.2786 155.106 85.4548 156.226 86.4656" stroke="#92E3A9" stroke-linecap="round" stroke-linejoin="round"/>
<path d="M155.689 85.1382C155.689 85.1382 153.109 87.3859 152.805 89.0272L150.89 86.7741L150.438 80.172C150.438 80.172 152.75 77.8578 152.877 75.799" stroke="#92E3A9" stroke-linecap="round" stroke-linejoin="round"/>
<path d="M150.765 71.3621C150.765 71.3621 146.48 75.4053 144.443 76.1262C142.405 76.847 143.892 91.9957 143.791 96.3821C143.69 100.768 159.206 108.411 160.158 112.901C160.536 114.688 162.1 115.053 163.055 118.487" stroke="#92E3A9" stroke-linecap="round" stroke-linejoin="round"/>
<path d="M156.865 67.5982C156.865 67.5982 159.198 67.388 160.512 67.936C161.826 68.484 167.162 73.0671 168.449 73.9423C169.736 74.8174 171.673 75.1499 172.04 76.0942" stroke="#92E3A9" stroke-linecap="round" stroke-linejoin="round"/>
<path d="M162.081 68.9495C162.081 68.9495 164.475 68.1515 165.39 68.1967C166.305 68.2419 169.747 70.2715 171.29 71.6281C172.472 72.6769 173.834 73.5041 175.309 74.07" stroke="#92E3A9" stroke-linecap="round" stroke-linejoin="round"/>
<path d="M170.729 71.1679C171.978 70.899 173.263 70.837 174.532 70.9844C176.479 71.2504 181.369 74.1232 182.927 74.7722C184.486 75.4213 185.231 75.541 186.05 77.637C186.869 79.7331 187.244 87.7025 187.409 90.8519C187.574 94.0014 185.933 103.021 186.611 105.559C187.29 108.097 188.513 110.054 189.255 111.411" stroke="#92E3A9" stroke-linecap="round" stroke-linejoin="round"/>
<path d="M150.438 80.172C150.438 80.172 150.066 78.6159 149.534 78.4164" stroke="#92E3A9" stroke-linecap="round" stroke-linejoin="round"/>
<path d="M150.89 86.7741C151.07 87.6811 151.312 88.5744 151.616 89.4474C151.999 90.3917 151.404 91.759 151.404 91.759" stroke="#92E3A9" stroke-linecap="round" stroke-linejoin="round"/>
<path d="M152.806 89.0272C152.744 90.538 154.247 92.3043 154.612 92.0542" stroke="#92E3A9" stroke-linecap="round" stroke-linejoin="round"/>
<path d="M160.458 80.172C160.458 80.172 162.073 77.5599 163.621 77.4322C165.169 77.3045 166.957 79.5017 167.912 79.2942C168.867 79.0867 170.069 77.6823 171.676 77.4322C173.282 77.1822 174.035 77.9483 175.309 78.0121C176.583 78.0759 176.714 76.3735 178.235 76.1501C179.757 75.9267 180.275 76.6821 181.297 76.8789C182.318 77.0758 182.574 76.2698 183.401 75.8149" stroke="#92E3A9" stroke-linecap="round" stroke-linejoin="round"/>
</svg>
