<svg width="290" height="129" viewBox="0 0 290 129" fill="none" xmlns="http://www.w3.org/2000/svg">
<rect width="290" height="129" rx="10" fill="#6EAA78"/>
<path d="M183.984 89.8665C183.027 92.2576 182.013 90.3447 182.171 80.2732C182.248 75.5579 182.578 65.9264 187.795 68.045C192.802 70.0822 186.203 84.3286 186.203 84.3286L183.984 89.8665ZM191.157 91.3011C191.157 91.3011 202.027 79.972 197.948 76.4187C193.706 72.7173 190.263 81.7223 188.661 86.1602C185.246 95.6243 185.562 97.7716 187.259 95.8156L191.157 91.3011ZM193.448 101.468C193.448 101.468 203.4 94.3809 200.798 91.0716C198.091 87.6284 194.156 94.0175 192.286 97.1738C188.302 103.917 188.235 105.605 189.813 104.347L193.448 101.468ZM196.14 111.607C196.14 111.607 206.097 104.519 203.495 101.21C200.784 97.7668 196.848 104.151 194.983 107.312C190.999 114.05 190.927 115.743 192.51 114.486L196.14 111.607ZM178.761 91.2246C178.761 91.2246 164.831 83.9747 162.569 88.8861C160.211 93.9983 169.819 94.7731 174.524 95.06C184.567 95.6817 186.542 94.7731 184.189 93.6923L178.761 91.2246ZM180.722 99.2014C180.722 99.2014 165.629 94.8687 164.386 100.134C163.095 105.61 172.664 104.438 177.336 103.807C187.303 102.42 189.053 101.138 186.533 100.545L180.722 99.2014ZM184.175 107.905C184.175 107.905 171.315 104.586 170.383 109.067C169.426 113.73 177.485 112.534 181.42 111.874C189.813 110.468 191.267 109.345 189.125 108.905L184.175 107.905ZM186.188 115.079C186.188 115.079 173.754 110.411 172.353 114.768C170.895 119.306 179.048 118.971 183.027 118.732C191.525 118.225 193.07 117.264 190.999 116.595L186.188 115.079ZM177.853 78.6712C177.853 78.6712 172.176 61.0246 165.73 64.2335C159.035 67.5811 166.772 75.5245 170.651 79.3359C178.919 87.4658 181.478 88.0301 180.392 85.1942L177.853 78.6712Z" fill="white"/>
<path d="M168.427 70.5414C168.427 70.5414 182.688 87.9392 186.098 96.6477C190.019 106.657 192.688 117.929 193.219 127.254" stroke="#CCCCCC" stroke-width="0.546193" stroke-linecap="round" stroke-linejoin="round"/>
<path d="M183.257 90.9616L185.242 74.3719" stroke="#CCCCCC" stroke-width="0.546193" stroke-linecap="round" stroke-linejoin="round"/>
<path d="M186.098 96.6429L193.271 82.6979" stroke="#CCCCCC" stroke-width="0.546193" stroke-linecap="round" stroke-linejoin="round"/>
<path d="M185.05 94.577L170.024 91.5163" stroke="#CCCCCC" stroke-width="0.546193" stroke-linecap="round" stroke-linejoin="round"/>
<path d="M188.919 104.558L197.752 94.4957" stroke="#CCCCCC" stroke-width="0.546193" stroke-linecap="round" stroke-linejoin="round"/>
<path d="M187.685 101.244L176.347 101.143" stroke="#CCCCCC" stroke-width="0.546193" stroke-linecap="round" stroke-linejoin="round"/>
<path d="M189.871 109.479L181.172 109.818" stroke="#CCCCCC" stroke-width="0.546193" stroke-linecap="round" stroke-linejoin="round"/>
<path d="M191.655 114.729L196.313 108.522" stroke="#CCCCCC" stroke-width="0.546193" stroke-linecap="round" stroke-linejoin="round"/>
<path d="M191.999 117.039L181.822 116.532" stroke="#CCCCCC" stroke-width="0.546193" stroke-linecap="round" stroke-linejoin="round"/>
<path d="M220.339 103.606C218.584 104.266 219.119 102.788 224.547 97.9294C227.091 95.6482 232.381 91.0908 233.815 94.907C235.197 98.575 224.375 102.08 224.375 102.08L220.339 103.606ZM223.098 108.116C223.098 108.116 234.47 108.331 234.356 104.414C234.236 100.34 227.756 102.932 224.609 104.261C217.914 107.097 216.905 108.321 218.78 108.264L223.098 108.116ZM218.818 114.333C218.818 114.333 227.479 116.145 227.962 113.132C228.44 110 223.127 111.047 220.53 111.607C214.987 112.797 214.055 113.591 215.494 113.821L218.818 114.333ZM214.768 120.755C214.768 120.755 223.433 122.568 223.911 119.555C224.413 116.422 219.081 117.465 216.48 118.024C210.942 119.215 209.985 120.009 211.42 120.239L214.768 120.755ZM217.068 101.492C217.068 101.492 214.074 90.5169 210.373 91.7268C206.494 92.9845 210.808 98.4794 212.969 101.124C217.575 106.772 219.029 107.374 218.445 105.591L217.068 101.492ZM213.787 106.456C213.787 106.456 208.675 96.2986 205.265 98.2211C201.712 100.23 207.03 104.754 209.67 106.915C215.308 111.535 216.843 111.836 215.93 110.205L213.787 106.456ZM210.856 112.568C210.856 112.568 206.298 104.099 203.457 105.806C200.502 107.585 205.103 111.286 207.388 113.056C212.262 116.829 213.572 117.049 212.754 115.691L210.856 112.568ZM208.025 117.173C208.025 117.173 204.39 108.264 201.387 109.66C198.259 111.095 202.439 115.284 204.524 117.288C208.971 121.559 210.263 121.917 209.584 120.478L208.025 117.173ZM223.285 94.8544C223.285 94.8544 229.879 83.1618 225.006 81.311C219.937 79.3981 219.512 87.418 219.392 91.3538C219.134 99.7514 220.09 101.397 221.066 99.4167L223.285 94.8544Z" fill="white"/>
<path d="M222.969 85.8446C222.969 85.8446 220.726 101.98 217.771 108.077C214.375 115.079 209.249 122.534 204.543 127.402" stroke="#CCCCCC" stroke-width="0.546193" stroke-linecap="round" stroke-linejoin="round"/>
<path d="M219.396 103.759L229.195 96.6621" stroke="#CCCCCC" stroke-width="0.546193" stroke-linecap="round" stroke-linejoin="round"/>
<path d="M217.771 108.063L228.713 105.021" stroke="#CCCCCC" stroke-width="0.546193" stroke-linecap="round" stroke-linejoin="round"/>
<path d="M218.354 106.49L212.596 96.9921" stroke="#CCCCCC" stroke-width="0.546193" stroke-linecap="round" stroke-linejoin="round"/>
<path d="M214.949 113.453L224.643 113.204" stroke="#CCCCCC" stroke-width="0.546193" stroke-linecap="round" stroke-linejoin="round"/>
<path d="M216.107 111.167L210.583 105.084" stroke="#CCCCCC" stroke-width="0.546193" stroke-linecap="round" stroke-linejoin="round"/>
<path d="M212.797 116.375L208.34 111.918" stroke="#CCCCCC" stroke-width="0.546193" stroke-linecap="round" stroke-linejoin="round"/>
<path d="M210.879 119.909L216.475 119.335" stroke="#CCCCCC" stroke-width="0.546193" stroke-linecap="round" stroke-linejoin="round"/>
<path d="M209.818 121.224L205.088 115.566" stroke="#CCCCCC" stroke-width="0.546193" stroke-linecap="round" stroke-linejoin="round"/>
<path d="M73.7911 89.8665C72.8346 92.2576 71.8208 90.3447 71.9786 80.2733C72.0551 75.5579 72.3851 65.9265 77.6025 68.045C82.6143 70.0822 76.01 84.3286 76.01 84.3286L73.7911 89.8665ZM80.9645 91.3012C80.9645 91.3012 91.8345 79.972 87.7601 76.4188C83.5134 72.7173 80.0702 81.7223 78.4681 86.1602C75.0536 95.6243 75.3692 97.7716 77.0669 95.8156L80.9645 91.3012ZM83.2552 101.459C83.2552 101.459 93.2118 94.3714 90.6055 91.062C87.8987 87.6188 83.9629 94.0079 82.0931 97.1642C78.1094 103.907 78.0425 105.595 79.6254 104.338L83.2552 101.459ZM85.9524 111.597C85.9524 111.597 95.8947 104.495 93.2979 101.2C90.5864 97.7572 86.6506 104.142 84.7855 107.303C80.8019 114.041 80.7301 115.734 82.3131 114.476L85.9524 111.597ZM68.5593 91.2151C68.5593 91.2151 54.6333 83.9652 52.3665 88.8765C50.0089 93.9888 59.6164 94.7635 64.3222 95.0505C74.3649 95.6721 76.3352 94.7635 73.9823 93.6827L68.5593 91.2151ZM70.52 99.1919C70.52 99.1919 55.4319 94.8592 54.1838 100.124C52.8926 105.6 62.4619 104.428 67.1341 103.797C77.1004 102.41 78.8555 101.129 76.3352 100.536L70.52 99.1919ZM73.9728 107.896C73.9728 107.896 61.1133 104.577 60.1807 109.058C59.2243 113.72 67.2824 112.525 71.2182 111.865C79.6111 110.459 81.0649 109.335 78.9224 108.895L73.9728 107.896ZM75.9861 115.069C75.9861 115.069 63.5522 110.402 62.151 114.758C60.6924 119.297 68.8462 118.962 72.825 118.723C81.3231 118.216 82.8678 117.255 80.8019 116.585L75.9861 115.069ZM67.6602 78.6712C67.6602 78.6712 61.9836 61.0438 55.518 64.2527C48.8228 67.6003 56.5606 75.5436 60.439 79.3551C68.7123 87.4849 71.2708 88.0492 70.1804 85.2133L67.6602 78.6712Z" fill="white"/>
<path d="M58.2344 70.5414C58.2344 70.5414 72.4951 87.9392 75.9048 96.6477C79.8263 106.657 82.4948 117.929 83.0256 127.254" stroke="#CCCCCC" stroke-width="0.546193" stroke-linecap="round" stroke-linejoin="round"/>
<path d="M73.0688 90.9616L75.0487 74.3719" stroke="#CCCCCC" stroke-width="0.546193" stroke-linecap="round" stroke-linejoin="round"/>
<path d="M75.9053 96.6429L83.0787 82.6979" stroke="#CCCCCC" stroke-width="0.546193" stroke-linecap="round" stroke-linejoin="round"/>
<path d="M74.8575 94.577L59.8364 91.5163" stroke="#CCCCCC" stroke-width="0.546193" stroke-linecap="round" stroke-linejoin="round"/>
<path d="M78.7266 104.558L87.5594 94.4957" stroke="#CCCCCC" stroke-width="0.546193" stroke-linecap="round" stroke-linejoin="round"/>
<path d="M77.4921 101.244L66.1533 101.143" stroke="#CCCCCC" stroke-width="0.546193" stroke-linecap="round" stroke-linejoin="round"/>
<path d="M79.6779 109.479L70.979 109.818" stroke="#CCCCCC" stroke-width="0.546193" stroke-linecap="round" stroke-linejoin="round"/>
<path d="M81.4668 114.729L86.1247 108.522" stroke="#CCCCCC" stroke-width="0.546193" stroke-linecap="round" stroke-linejoin="round"/>
<path d="M81.8061 117.039L71.6294 116.532" stroke="#CCCCCC" stroke-width="0.546193" stroke-linecap="round" stroke-linejoin="round"/>
<path d="M110.146 103.606C108.391 104.266 108.926 102.788 114.354 97.9294C116.903 95.6482 122.188 91.0908 123.622 94.907C125.004 98.575 114.182 102.08 114.182 102.08L110.146 103.606ZM112.905 108.116C112.905 108.116 124.277 108.331 124.163 104.414C124.043 100.34 117.563 102.932 114.416 104.261C107.721 107.097 106.712 108.321 108.587 108.264L112.905 108.116ZM108.625 114.333C108.625 114.333 117.286 116.145 117.769 113.132C118.247 110 112.934 111.047 110.337 111.607C104.775 112.797 103.862 113.582 105.301 113.821L108.625 114.333ZM104.555 120.755C104.555 120.755 113.221 122.568 113.699 119.555C114.201 116.422 108.869 117.465 106.272 118.024C100.725 119.22 99.7923 120.014 101.236 120.243L104.555 120.755ZM106.856 101.492C106.856 101.492 103.867 90.5169 100.16 91.7268C96.2821 92.9845 100.591 98.4794 102.752 101.124C107.358 106.772 108.812 107.374 108.228 105.591L106.856 101.492ZM103.575 106.456C103.575 106.456 98.4628 96.2986 95.053 98.2211C91.4998 100.23 96.8177 104.754 99.4623 106.915C105.101 111.535 106.636 111.836 105.717 110.205L103.575 106.456ZM100.643 112.568C100.643 112.568 96.086 104.099 93.2453 105.806C90.2899 107.585 94.8904 111.286 97.1764 113.056C102.049 116.829 103.365 117.049 102.542 115.691L100.643 112.568ZM97.8124 117.173C97.8124 117.173 94.1827 108.264 91.1746 109.66C88.047 111.095 92.2315 115.284 94.3118 117.288C98.7593 121.559 100.05 121.917 99.3714 120.478L97.8124 117.173ZM113.073 94.8544C113.073 94.8544 119.672 83.1618 114.799 81.311C109.725 79.3981 109.304 87.418 109.18 91.3538C108.926 99.7514 109.878 101.397 110.854 99.4167L113.073 94.8544Z" fill="white"/>
<path d="M112.776 85.8446C112.776 85.8446 110.533 101.98 107.578 108.077C104.182 115.079 99.0558 122.534 94.3501 127.402" stroke="#CCCCCC" stroke-width="0.546193" stroke-linecap="round" stroke-linejoin="round"/>
<path d="M109.204 103.759L119.002 96.6621" stroke="#CCCCCC" stroke-width="0.546193" stroke-linecap="round" stroke-linejoin="round"/>
<path d="M107.578 108.063L118.519 105.021" stroke="#CCCCCC" stroke-width="0.546193" stroke-linecap="round" stroke-linejoin="round"/>
<path d="M108.161 106.49L102.403 96.9921" stroke="#CCCCCC" stroke-width="0.546193" stroke-linecap="round" stroke-linejoin="round"/>
<path d="M104.756 113.453L114.45 113.204" stroke="#CCCCCC" stroke-width="0.546193" stroke-linecap="round" stroke-linejoin="round"/>
<path d="M105.914 111.167L100.39 105.084" stroke="#CCCCCC" stroke-width="0.546193" stroke-linecap="round" stroke-linejoin="round"/>
<path d="M102.604 116.375L98.147 111.918" stroke="#CCCCCC" stroke-width="0.546193" stroke-linecap="round" stroke-linejoin="round"/>
<path d="M100.687 119.909L106.282 119.335" stroke="#CCCCCC" stroke-width="0.546193" stroke-linecap="round" stroke-linejoin="round"/>
<path d="M99.6295 121.224L94.895 115.566" stroke="#CCCCCC" stroke-width="0.546193" stroke-linecap="round" stroke-linejoin="round"/>
<path d="M137.519 28.7922C137.519 28.7922 131.398 26.8411 126.716 31.6616C122.035 36.4821 124.502 46.1088 124.502 49.4899C124.502 52.8709 120.198 74.3577 120.198 74.3577C120.198 74.3577 118.113 82.1671 123.842 87.1167C129.571 92.0664 140.159 91.636 144.679 82.1097C149.198 72.5834 144.406 59.0018 144.406 51.9814C144.406 44.9611 145.448 40.2697 143.885 35.1957C143.41 33.6988 142.585 32.3368 141.478 31.2231C140.37 30.1093 139.014 29.276 137.519 28.7922Z" fill="#263238" stroke="#263238" stroke-width="0.436267" stroke-linecap="round" stroke-linejoin="round"/>
<path d="M135.702 32.4411C135.702 32.4411 129.801 39.7771 125.817 41.8478" stroke="white" stroke-width="0.436267" stroke-linecap="round" stroke-linejoin="round"/>
<path d="M130.6 31.8051C130.6 31.8051 127.573 39.1363 124.861 41.2118" stroke="white" stroke-width="0.436267" stroke-linecap="round" stroke-linejoin="round"/>
<path d="M147.582 57.022C148.147 57.4183 148.622 57.9302 148.975 58.5238C149.328 59.1174 149.55 59.7791 149.628 60.4652C149.977 62.9041 147.376 68.5424 146.855 71.3305C146.362 74.7152 146.044 78.1232 145.903 81.5406C145.903 82.411 148.868 95.304 149.389 98.4412C149.91 101.578 149.126 108.962 148.691 109.503C148.256 110.043 147.036 107.499 146.95 105.844C146.864 104.189 143.641 91.4686 142.421 87.638C141.202 83.8074 141.546 78.7526 141.546 78.7526C141.546 78.7526 143.206 67.1651 143.206 62.7224C143.206 58.2797 143.34 54.956 143.34 54.956L147.582 57.022Z" fill="#6EAA78" stroke="#263238" stroke-width="0.436267" stroke-linecap="round" stroke-linejoin="round"/>
<path d="M148.681 109.483C149.117 108.962 149.901 101.554 149.38 98.422C148.858 95.2896 145.903 82.3919 145.903 81.5406C146.047 78.1295 146.366 74.728 146.859 71.3496C147.051 70.4555 147.297 69.5739 147.596 68.7098C146.571 69.2032 145.448 69.4583 144.31 69.4558C143.703 69.4558 143.11 70.0154 142.541 70.967C142.063 75.0128 141.541 78.7526 141.541 78.7526C141.541 78.7526 141.197 83.8026 142.417 87.638C143.636 91.4734 146.859 104.189 146.945 105.844C147.031 107.499 148.246 110.005 148.681 109.483Z" fill="white" stroke="#263238" stroke-width="0.436267" stroke-linecap="round" stroke-linejoin="round"/>
<path d="M131.193 127.776C131.384 125.633 131.786 121.272 132.044 119.588C132.393 117.326 133.086 112.707 133.086 112.707L134.851 127.776H146.941C147.376 124.49 148.471 115.681 148.681 109.483C148.944 101.731 143.105 85.7012 142.943 84.4817C142.78 83.2622 143.115 79.6994 143.115 78.6473C143.115 77.5952 146.156 70.9192 146.415 67.519C146.673 64.1188 147.462 63.0763 147.462 63.0763L147.897 57.3376C147.634 57.2515 143.727 54.1765 139.805 53.0335C137.421 52.3567 134.903 52.2974 132.489 52.8614C132.489 52.8614 126.826 55.3864 123.952 56.6059C121.078 57.8254 118.716 60.1782 118.644 63.2245C118.572 66.2708 124.215 79.2547 124.741 80.2159C125.267 81.1772 123.608 84.5678 122.91 86.3133C122.212 88.0588 119.337 94.3284 117.424 101.296C115.784 107.245 116.879 123.232 117.238 127.776H131.193Z" fill="#6EAA78" stroke="#263238" stroke-width="0.436267" stroke-linecap="round" stroke-linejoin="round"/>
<path d="M133.909 77.8104C133.909 77.8104 138.375 78.3461 142.847 74.0564" stroke="#263238" stroke-width="0.436267" stroke-linecap="round" stroke-linejoin="round"/>
<path d="M137.008 65.3192C138.313 64.9701 139.973 59.5804 140.145 56.7828C140.241 55.219 140.336 54.0522 140.293 53.1913C140.131 53.1387 139.963 53.0814 139.815 53.0335C137.43 52.3567 134.912 52.2974 132.498 52.8614L130.193 53.8848C130.001 55.1235 130.134 56.3909 130.58 57.5623C131.522 60.1782 135.702 65.6683 137.008 65.3192Z" fill="white" stroke="#263238" stroke-width="0.436267" stroke-linecap="round" stroke-linejoin="round"/>
<path d="M131.174 50.1881C131.174 50.1881 131.614 55.3195 131.877 56.5772C132.14 57.8349 134.784 62.7941 136.281 62.5216C137.778 62.249 138.73 55.769 138.73 55.1377C138.73 54.5065 138.907 49.399 138.907 49.399C138.907 49.399 135.755 51.9862 131.174 50.1881Z" fill="white" stroke="#263238" stroke-width="0.436267" stroke-linecap="round" stroke-linejoin="round"/>
<path d="M122.547 57.4763C122.547 57.4763 118.979 57.6532 116.975 61.6607C114.972 65.6683 117.32 68.3559 118.104 69.9341C118.888 71.5122 121.069 77.9491 121.762 79.8668C122.456 81.7845 123.857 84.0465 126.296 87.1837C128.735 90.3209 133.871 97.0256 133.871 97.0256L135.267 99.4646C135.267 99.4646 137.62 102.167 137.879 102.253C138.137 102.339 139.71 104.342 140.318 103.123C140.925 101.904 140.318 97.5516 140.318 97.5516C140.318 97.5516 141.274 99.4646 141.628 99.0294C141.982 98.5942 141.537 97.6377 141.193 96.5904C140.848 95.5431 137.625 93.5441 136.922 93.4532C136.219 93.3624 135.354 92.4968 134.311 90.4069C133.268 88.3171 132.479 84.6682 130.825 82.4779C129.17 80.2877 126.999 77.0788 126.999 77.0788C126.999 77.0788 124.56 68.3655 124.56 68.0164C124.738 66.3893 124.499 64.7436 123.867 63.2341" fill="#6EAA78"/>
<path d="M122.547 57.4763C122.547 57.4763 118.979 57.6532 116.975 61.6607C114.972 65.6683 117.32 68.3559 118.104 69.9341C118.888 71.5122 121.069 77.9491 121.762 79.8668C122.456 81.7845 123.857 84.0465 126.296 87.1837C128.735 90.3208 133.871 97.0256 133.871 97.0256L135.267 99.4646C135.267 99.4646 137.62 102.167 137.879 102.253C138.137 102.339 139.71 104.342 140.318 103.123C140.925 101.904 140.318 97.5516 140.318 97.5516C140.318 97.5516 141.274 99.4645 141.628 99.0294C141.982 98.5942 141.537 97.6377 141.193 96.5904C140.848 95.5431 137.625 93.5441 136.922 93.4532C136.219 93.3624 135.354 92.4968 134.311 90.4069C133.268 88.3171 132.479 84.6682 130.825 82.4779C129.17 80.2877 126.999 77.0788 126.999 77.0788C126.999 77.0788 124.56 68.3655 124.56 68.0164C124.738 66.3893 124.499 64.7436 123.867 63.2341" stroke="#263238" stroke-width="0.436267" stroke-linecap="round" stroke-linejoin="round"/>
<path d="M136.922 93.4533C136.224 93.3672 135.353 92.4968 134.311 90.407C133.268 88.3171 132.479 84.6682 130.824 82.478C129.17 80.2877 126.999 77.0788 126.999 77.0788C126.999 77.0788 125.349 71.1775 124.765 68.8963C121.561 68.4468 119.447 69.0924 118.104 69.915C118.888 71.4835 121.069 77.93 121.762 79.8477C122.455 81.7654 123.857 84.0274 126.296 87.1646C128.734 90.3017 133.871 97.0065 133.871 97.0065L135.267 99.4454C135.267 99.4454 137.62 102.147 137.878 102.233C138.136 102.32 139.71 104.323 140.317 103.104C140.924 101.884 140.317 97.5325 140.317 97.5325C140.317 97.5325 141.274 99.4454 141.627 99.0102C141.981 98.5751 141.537 97.6186 141.192 96.5713C140.848 95.524 137.625 93.5441 136.922 93.4533Z" fill="white" stroke="#263238" stroke-width="0.436267" stroke-linecap="round" stroke-linejoin="round"/>
<path d="M131.193 127.776C131.384 125.633 131.786 121.272 132.044 119.588C132.393 117.326 133.086 112.707 133.086 112.707L134.851 127.776H146.941C147.376 124.49 148.471 115.681 148.681 109.483C148.791 106.255 147.84 101.588 146.682 97.1547C136.463 99.3928 124.875 97.7716 118.859 96.6048C118.352 98.1016 117.855 99.675 117.424 101.296C115.784 107.245 116.879 123.232 117.238 127.776H131.193Z" fill="#263238" stroke="#263238" stroke-width="0.436267" stroke-linecap="round" stroke-linejoin="round"/>
<path d="M128.147 42.546C128.147 42.546 127.367 42.1969 127.367 43.7607C127.367 45.3245 129.103 46.3623 129.103 46.3623L128.147 42.546Z" fill="white" stroke="#263238" stroke-width="0.436267" stroke-linecap="round" stroke-linejoin="round"/>
<path d="M137.094 33.9571C137.094 33.9571 134.311 37.8785 131.867 39.4471C130.606 40.2761 129.298 41.0313 127.95 41.7091C127.95 41.7091 129.17 46.764 129.691 48.4043C130.212 50.0446 131.776 52.9427 134.913 53.1148C138.05 53.287 139.447 49.9729 140.059 48.4043C140.407 47.5938 140.594 46.7231 140.609 45.841C141.049 45.5628 141.425 45.1934 141.71 44.7579C141.995 44.3223 142.184 43.8306 142.264 43.316C142.436 41.6613 142 41.7474 142 41.7474C142 41.7474 141.522 42.2878 140.485 41.4748C139.643 40.8483 136.817 36.3099 137.094 33.9571Z" fill="white" stroke="#263238" stroke-width="0.436267" stroke-linecap="round" stroke-linejoin="round"/>
<path d="M130.451 43.8611C130.451 43.8611 131.68 42.9621 133.478 43.8611" stroke="#263238" stroke-width="0.436267" stroke-linecap="round" stroke-linejoin="round"/>
<path d="M136.013 44.0238C136.013 44.0238 137.486 42.7134 139.04 43.7799" stroke="#263238" stroke-width="0.436267" stroke-linecap="round" stroke-linejoin="round"/>
<path d="M130.208 41.8957C130.208 41.8957 130.863 40.6714 133.077 41.2453" stroke="#263238" stroke-width="0.436267" stroke-linecap="round" stroke-linejoin="round"/>
<path d="M136.013 41.3266C136.514 40.9611 137.131 40.7924 137.748 40.8523C138.365 40.9123 138.939 41.1968 139.36 41.6518" stroke="#263238" stroke-width="0.436267" stroke-linecap="round" stroke-linejoin="round"/>
<path d="M135.769 46.7209C135.769 46.7209 134.459 47.62 133.89 46.7209" stroke="#263238" stroke-width="0.436267" stroke-linecap="round" stroke-linejoin="round"/>
<path d="M133.397 48.6052C133.397 48.6052 135.033 49.2556 135.85 48.5239" stroke="#263238" stroke-width="0.436267" stroke-linecap="round" stroke-linejoin="round"/>
<path d="M105.756 95.6148C105.756 95.6148 109.581 104.108 110.495 105.82C111.408 107.532 112.47 112.405 112.599 115.299C112.728 118.192 112.599 118.79 111.944 118.723C111.289 118.656 111.021 115.036 111.021 114.443V113.524C111.021 113.524 110.691 116.944 110.165 117.604C109.639 118.264 108.912 118.986 108.85 118.594C108.788 118.201 108.979 117.537 109.242 116.552C109.401 115.794 109.446 115.017 109.376 114.247C109.376 114.247 108.979 116.088 108.061 116.748C107.142 117.408 106.148 117.671 106.478 117.145C106.808 116.619 107.664 116.026 107.86 115.366C107.995 114.761 108.063 114.144 108.061 113.524C108.061 113.524 106.808 115.562 106.282 115.892C105.756 116.222 105.756 115.499 106.086 115.169C106.416 114.84 107.138 112.601 107.138 112.601C107.138 112.601 106.937 112.468 106.019 110.43C105.1 108.393 104.584 104.83 104.307 103.448C104.029 102.066 103.518 100.225 103.518 100.225L98.4483 91.7316C98.4483 91.7316 98.0514 89.6896 99.9595 89.3405C101.868 88.9914 105.756 95.6148 105.756 95.6148Z" fill="white"/>
<mask id="mask0_159_151" style="mask-type:luminance" maskUnits="userSpaceOnUse" x="98" y="89" width="15" height="30">
<path d="M105.756 95.6148C105.756 95.6148 109.581 104.108 110.495 105.82C111.408 107.532 112.47 112.405 112.599 115.299C112.728 118.192 112.599 118.79 111.944 118.723C111.289 118.656 111.021 115.036 111.021 114.443V113.524C111.021 113.524 110.691 116.944 110.165 117.604C109.639 118.264 108.912 118.986 108.85 118.594C108.788 118.201 108.979 117.537 109.242 116.552C109.401 115.794 109.446 115.017 109.376 114.247C109.376 114.247 108.979 116.088 108.061 116.748C107.142 117.408 106.148 117.671 106.478 117.145C106.808 116.619 107.664 116.026 107.86 115.366C107.995 114.761 108.063 114.144 108.061 113.524C108.061 113.524 106.808 115.562 106.282 115.892C105.756 116.222 105.756 115.499 106.086 115.169C106.416 114.84 107.138 112.601 107.138 112.601C107.138 112.601 106.937 112.468 106.019 110.43C105.1 108.393 104.584 104.83 104.307 103.448C104.029 102.066 103.518 100.225 103.518 100.225L98.4483 91.7316C98.4483 91.7316 98.0514 89.6896 99.9595 89.3405C101.868 88.9914 105.756 95.6148 105.756 95.6148Z" fill="white"/>
</mask>
<g mask="url(#mask0_159_151)">
<path opacity="0.15" d="M105.756 95.6148C105.756 95.6148 109.581 104.108 110.495 105.82C111.408 107.532 112.47 112.405 112.599 115.299C112.728 118.192 112.599 118.79 111.944 118.723C111.289 118.656 111.021 115.036 111.021 114.443V113.524C111.021 113.524 110.691 116.944 110.165 117.604C109.639 118.264 108.912 118.986 108.85 118.594C108.788 118.201 108.979 117.537 109.242 116.552C109.401 115.794 109.446 115.017 109.376 114.247C109.376 114.247 108.979 116.088 108.061 116.748C107.142 117.408 106.148 117.671 106.478 117.145C106.808 116.619 107.664 116.026 107.86 115.366C107.995 114.761 108.063 114.144 108.061 113.524C108.061 113.524 106.808 115.562 106.282 115.892C105.756 116.222 105.756 115.499 106.086 115.169C106.416 114.84 107.138 112.601 107.138 112.601C107.138 112.601 106.937 112.468 106.019 110.43C105.1 108.393 104.584 104.83 104.307 103.448C104.029 102.066 103.518 100.225 103.518 100.225L98.4483 91.7316C98.4483 91.7316 98.0514 89.6896 99.9595 89.3405C101.868 88.9914 105.756 95.6148 105.756 95.6148Z" fill="black"/>
</g>
<path d="M105.756 95.6148C105.756 95.6148 109.581 104.108 110.495 105.82C111.408 107.532 112.47 112.405 112.599 115.299C112.728 118.192 112.599 118.79 111.944 118.723C111.289 118.656 111.021 115.036 111.021 114.443V113.524C111.021 113.524 110.691 116.944 110.165 117.604C109.639 118.264 108.912 118.986 108.85 118.594C108.788 118.201 108.979 117.537 109.242 116.552C109.401 115.794 109.446 115.017 109.376 114.247C109.376 114.247 108.979 116.088 108.061 116.748C107.142 117.408 106.148 117.671 106.478 117.145C106.808 116.619 107.664 116.026 107.86 115.366C107.995 114.761 108.063 114.144 108.061 113.524C108.061 113.524 106.808 115.562 106.282 115.892C105.756 116.222 105.756 115.499 106.086 115.169C106.416 114.84 107.138 112.601 107.138 112.601C107.138 112.601 106.937 112.468 106.019 110.43C105.1 108.393 104.584 104.83 104.307 103.448C104.029 102.066 103.518 100.225 103.518 100.225L98.4483 91.7316C98.4483 91.7316 98.0514 89.6896 99.9595 89.3405C101.868 88.9914 105.756 95.6148 105.756 95.6148Z" stroke="#263238" stroke-width="0.436267" stroke-linecap="round" stroke-linejoin="round"/>
<path d="M110.514 108.321C110.514 108.321 111.174 111.549 111.107 112.994C111.04 114.438 111.37 115.17 110.906 115.17C110.442 115.17 110.318 114.84 109.854 113.391C109.549 112.316 109.35 111.214 109.261 110.1C109.261 110.1 107.616 110.1 107.023 107.661" fill="white"/>
<mask id="mask1_159_151" style="mask-type:luminance" maskUnits="userSpaceOnUse" x="107" y="107" width="5" height="9">
<path d="M110.514 108.321C110.514 108.321 111.174 111.549 111.107 112.994C111.04 114.438 111.37 115.17 110.906 115.17C110.442 115.17 110.318 114.84 109.854 113.391C109.549 112.316 109.35 111.214 109.261 110.1C109.261 110.1 107.616 110.1 107.023 107.661" fill="white"/>
</mask>
<g mask="url(#mask1_159_151)">
<path opacity="0.15" d="M110.514 108.321C110.514 108.321 111.174 111.549 111.107 112.994C111.04 114.438 111.37 115.17 110.906 115.17C110.442 115.17 110.318 114.84 109.854 113.391C109.549 112.316 109.35 111.214 109.261 110.1C109.261 110.1 107.616 110.1 107.023 107.661" fill="black"/>
</g>
<path d="M110.514 108.321C110.514 108.321 111.174 111.549 111.107 112.994C111.04 114.438 111.37 115.17 110.906 115.17C110.442 115.17 110.318 114.84 109.854 113.391C109.549 112.316 109.35 111.214 109.261 110.1C109.261 110.1 107.616 110.1 107.023 107.661" stroke="#263238" stroke-width="0.436267" stroke-linecap="round" stroke-linejoin="round"/>
<path d="M81.127 127.776H105.364C105.483 123.242 106.277 93.6302 106.516 92.3055C106.779 90.8708 108.08 77.337 108.209 72.0048C108.338 66.6726 105.995 58.9875 105.995 58.4662C105.995 57.9449 105.607 54.693 101.963 51.9575C98.3192 49.2221 95.4547 49.2269 94.6752 49.6142C94.6752 49.6142 91.8058 51.5702 87.2531 56.3859C82.7004 61.2016 81.1366 65.104 81.1366 72.5213C81.14 77.0102 81.532 81.4903 82.3082 85.9116C82.3082 85.9116 80.8735 109.077 80.8735 109.598C80.8735 110.119 81.084 124.681 81.127 127.776Z" fill="white" stroke="#263238" stroke-width="0.436267" stroke-linecap="round" stroke-linejoin="round"/>
<path d="M92.1259 75.4098C92.6404 75.4086 93.1545 75.3799 93.6658 75.3237C99.242 74.7164 104.091 69.0159 107.291 64.0902C107.142 63.3776 106.994 62.6937 106.846 62.0673C103.828 66.9882 98.9502 73.3056 93.5128 73.8986C85.9425 74.7211 82.5136 68.7576 81.5571 66.8304C81.4232 67.5669 81.3228 68.3416 81.2559 69.1594C82.9488 71.7226 86.3681 75.4098 92.1259 75.4098Z" fill="#263238"/>
<path d="M90.3091 63.9036L91.6959 64.2719C93.1254 59.0669 95.9343 54.3447 99.8258 50.6042C99.3625 50.36 98.8832 50.1475 98.3911 49.9681C94.5193 53.8224 91.7317 58.629 90.3091 63.9036Z" fill="#263238"/>
<path d="M91.6724 70.7662C91.9976 70.5988 98.774 67.0695 105.928 57.8541C105.817 57.2764 105.641 56.7132 105.402 56.1755C98.2001 65.74 91.0985 69.4415 91.022 69.4798L91.6724 70.7662Z" fill="#263238"/>
<path d="M84.5994 65.5774L86.0341 65.3622C86.0341 65.324 85.618 61.9333 88.9561 54.6547C88.4204 55.1856 87.8609 55.7594 87.2679 56.3859C86.8853 56.7876 86.5314 57.1845 86.1919 57.5815C84.236 62.8898 84.5803 65.4339 84.5994 65.5774Z" fill="#263238"/>
<path d="M96.4306 86.8346C88.186 87.9058 83.9967 86.1747 82.1221 84.8452C82.2321 85.5434 82.3086 85.9308 82.3086 85.9308C82.3086 85.9308 82.3086 86.1842 82.2655 86.6433C84.1019 87.6524 87.0478 88.6088 91.5575 88.6088C93.2498 88.6015 94.9398 88.4849 96.6171 88.2597C100.418 87.771 104.071 86.4799 107.334 84.4722C107.392 83.8696 107.444 83.2527 107.497 82.6262C104.189 84.8764 100.398 86.3179 96.4306 86.8346Z" fill="#263238"/>
<path d="M96.0047 95.6627C99.7946 94.6988 103.403 93.1257 106.688 91.0048C106.746 90.4883 106.813 89.857 106.889 89.1349C103.476 91.4909 99.6754 93.2279 95.6604 94.2662C90.1082 95.6292 84.7185 94.1084 81.8731 93.0133C81.8444 93.4915 81.8109 94.008 81.7822 94.5245C84.7315 95.6331 87.8519 96.2174 91.0024 96.2509C92.6873 96.2544 94.3666 96.057 96.0047 95.6627Z" fill="#263238"/>
<path d="M81.1413 105.036C81.1078 105.552 81.0791 106.04 81.0552 106.471C84.7524 107.358 88.5392 107.818 92.3413 107.843C97.0164 107.894 101.658 107.053 106.019 105.366C106.019 104.84 106.052 104.314 106.066 103.802C96.4636 107.843 86.1913 106.265 81.1413 105.036Z" fill="#263238"/>
<path d="M97.052 100.301C91.9055 101.549 86.5175 101.384 81.4571 99.8232C81.4284 100.325 81.3949 100.823 81.3662 101.315C84.1553 102.168 87.0578 102.592 89.9743 102.573C92.4709 102.57 94.9592 102.285 97.3916 101.722C100.474 101.008 103.45 99.8986 106.248 98.422C106.248 97.829 106.291 97.2647 106.311 96.7387C103.407 98.3561 100.291 99.5556 97.052 100.301Z" fill="#263238"/>
<path d="M93.0353 80.1059C87.1531 80.4024 83.3512 78.2313 81.2422 76.4427C81.2757 77.1027 81.3187 77.7435 81.3665 78.3556C84.4636 80.5232 88.1702 81.6488 91.9497 81.5693C92.3275 81.5693 92.7148 81.5693 93.107 81.5406C98.8792 81.2489 103.987 78.7239 108.114 74.2477C108.162 73.4108 108.195 72.6456 108.209 72.0096V71.9139C104.838 76.0984 99.9456 79.752 93.0353 80.1059Z" fill="#263238"/>
<path d="M102.805 52.6558C102.542 52.4214 102.27 52.1775 101.964 51.9575C98.3196 49.2269 95.455 49.2269 94.6755 49.6142C93.1567 50.7258 91.7184 51.9436 90.3715 53.2583C90.2347 53.8451 90.2342 54.4554 90.3702 55.0424C90.5062 55.6293 90.7749 56.1773 91.1558 56.6442C93.6282 59.767 101.677 71.7418 103.781 69.1402C105.885 66.5387 105.34 59.3796 102.997 53.1292C102.939 52.9666 102.863 52.8088 102.805 52.6558Z" fill="#6EAA78" stroke="#263238" stroke-width="0.436267" stroke-linecap="round" stroke-linejoin="round"/>
<path d="M95.2109 66.4048C95.2109 66.4048 102.241 81.3732 103.671 83.7165C104.301 84.8299 105.043 85.8763 105.885 86.8394C105.885 86.8394 112.102 88.9292 117.434 90.8852C122.766 92.8411 132.034 95.4092 133.981 95.9496C135.927 96.49 139.184 96.4709 139.719 96.4709C140.255 96.4709 146.486 97.9055 146.893 98.1638C147.299 98.422 146.764 98.9433 145.85 99.2063C144.937 99.4693 141.948 99.7228 140.513 100.244C139.079 100.765 137.912 100.636 135.831 100.115C134.192 99.6108 132.619 98.9124 131.145 98.0346C131.145 98.0346 114.067 96.8439 110.036 96.3656C106.004 95.8874 101.428 95.3231 99.6249 93.2428C96.0067 89.1583 92.6676 84.8349 89.63 80.302C87.1815 76.6005 82.7005 71.4022 84.3982 66.6917" fill="white"/>
<path d="M95.2109 66.4048C95.2109 66.4048 102.241 81.3732 103.671 83.7165C104.301 84.8299 105.043 85.8763 105.885 86.8394C105.885 86.8394 112.102 88.9292 117.434 90.8852C122.766 92.8411 132.034 95.4092 133.981 95.9496C135.927 96.49 139.184 96.4709 139.719 96.4709C140.255 96.4709 146.486 97.9055 146.893 98.1638C147.299 98.422 146.764 98.9433 145.85 99.2063C144.937 99.4693 141.948 99.7228 140.513 100.244C139.079 100.765 137.912 100.636 135.831 100.115C134.192 99.6108 132.619 98.9124 131.145 98.0346C131.145 98.0346 114.067 96.8439 110.036 96.3656C106.004 95.8874 101.428 95.3231 99.6249 93.2428C96.0067 89.1583 92.6676 84.8349 89.63 80.302C87.1815 76.6005 82.7005 71.4022 84.3982 66.6917" stroke="#263238" stroke-width="0.436267" stroke-linecap="round" stroke-linejoin="round"/>
<path d="M139.686 96.4708C139.165 96.4708 135.913 96.4708 133.948 95.9496C131.982 95.4283 122.714 92.8363 117.382 90.8852C112.05 88.934 105.833 86.8394 105.833 86.8394C104.991 85.8763 104.249 84.8299 103.619 83.7165C103.03 82.7601 101.49 79.6373 99.8788 76.3136C94.69 77.6718 92.0789 80.1394 90.7925 82.0523C93.5101 85.9397 96.4463 89.6695 99.5871 93.2237C101.409 95.304 105.962 95.8252 109.998 96.3465C114.034 96.8678 131.083 98.0394 131.083 98.0394C132.557 98.9172 134.13 99.6155 135.77 100.12C137.85 100.641 139.022 100.77 140.452 100.249C141.881 99.7276 144.88 99.4693 145.789 99.2111C146.697 98.9528 147.223 98.4268 146.831 98.1685C146.439 97.9103 140.227 96.4708 139.686 96.4708Z" fill="white"/>
<mask id="mask2_159_151" style="mask-type:luminance" maskUnits="userSpaceOnUse" x="90" y="76" width="57" height="25">
<path d="M139.686 96.4708C139.165 96.4708 135.913 96.4708 133.948 95.9496C131.982 95.4283 122.714 92.8363 117.382 90.8852C112.05 88.934 105.833 86.8394 105.833 86.8394C104.991 85.8763 104.249 84.8299 103.619 83.7165C103.03 82.7601 101.49 79.6373 99.8788 76.3136C94.69 77.6718 92.0789 80.1394 90.7925 82.0523C93.5101 85.9397 96.4463 89.6695 99.5871 93.2237C101.409 95.304 105.962 95.8252 109.998 96.3465C114.034 96.8678 131.083 98.0394 131.083 98.0394C132.557 98.9172 134.13 99.6155 135.77 100.12C137.85 100.641 139.022 100.77 140.452 100.249C141.881 99.7276 144.88 99.4693 145.789 99.2111C146.697 98.9528 147.223 98.4268 146.831 98.1685C146.439 97.9103 140.227 96.4708 139.686 96.4708Z" fill="white"/>
</mask>
<g mask="url(#mask2_159_151)">
<path opacity="0.15" d="M139.686 96.4708C139.165 96.4708 135.913 96.4708 133.948 95.9496C131.982 95.4283 122.714 92.8363 117.382 90.8852C112.05 88.934 105.833 86.8394 105.833 86.8394C104.991 85.8763 104.249 84.8299 103.619 83.7165C103.03 82.7601 101.49 79.6373 99.8788 76.3136C94.69 77.6718 92.0789 80.1394 90.7925 82.0523C93.5101 85.9397 96.4463 89.6695 99.5871 93.2237C101.409 95.304 105.962 95.8252 109.998 96.3465C114.034 96.8678 131.083 98.0394 131.083 98.0394C132.557 98.9172 134.13 99.6155 135.77 100.12C137.85 100.641 139.022 100.77 140.452 100.249C141.881 99.7276 144.88 99.4693 145.789 99.2111C146.697 98.9528 147.223 98.4268 146.831 98.1685C146.439 97.9103 140.227 96.4708 139.686 96.4708Z" fill="black"/>
</g>
<path d="M139.686 96.4708C139.165 96.4708 135.913 96.4708 133.948 95.9496C131.982 95.4283 122.714 92.8363 117.382 90.8852C112.05 88.934 105.833 86.8394 105.833 86.8394C104.991 85.8763 104.249 84.8299 103.619 83.7165C103.03 82.7601 101.49 79.6373 99.8788 76.3136C94.69 77.6718 92.0789 80.1394 90.7925 82.0523C93.5101 85.9397 96.4463 89.6695 99.5871 93.2237C101.409 95.304 105.962 95.8252 109.998 96.3465C114.034 96.8678 131.083 98.0394 131.083 98.0394C132.557 98.9172 134.13 99.6155 135.77 100.12C137.85 100.641 139.022 100.77 140.452 100.249C141.881 99.7276 144.88 99.4693 145.789 99.2111C146.697 98.9528 147.223 98.4268 146.831 98.1685C146.439 97.9103 140.227 96.4708 139.686 96.4708Z" stroke="#263238" stroke-width="0.436267" stroke-linecap="round" stroke-linejoin="round"/>
<path d="M105.364 127.776C105.421 125.518 105.651 116.992 105.894 108.857C102.447 110.203 98.8315 111.072 95.1487 111.439C87.4971 112.334 83.0878 110.483 80.9071 109.048C80.9071 109.369 80.8784 109.569 80.8784 109.613C80.8784 110.091 81.0841 124.677 81.1271 127.785L105.364 127.776Z" fill="#6EAA78" stroke="#263238" stroke-width="0.436267" stroke-linecap="round" stroke-linejoin="round"/>
<path d="M99.2662 126.69C98.0802 122.19 100.95 116.451 96.8081 113.472" stroke="#263238" stroke-width="0.436267" stroke-linecap="round" stroke-linejoin="round"/>
<path d="M99.2661 116.336L104.594 111.219" stroke="#263238" stroke-width="0.436267" stroke-linecap="round" stroke-linejoin="round"/>
<path d="M85.9092 116.37L85.7705 126.69" stroke="#263238" stroke-width="0.436267" stroke-linecap="round" stroke-linejoin="round"/>
<path d="M85.9575 112.654L85.9336 114.538" stroke="#263238" stroke-width="0.436267" stroke-linecap="round" stroke-linejoin="round"/>
<path d="M107.31 28.6297C109.427 29.1908 111.297 30.4389 112.628 32.1781C113.53 33.3329 114.142 34.6877 114.412 36.1283C115.048 40.0019 112.867 41.1975 113.57 42.9573C114.273 44.7172 114.976 45.6306 114.412 46.4771C113.847 47.3235 112.092 47.4622 111.81 47.534C111.528 47.6057 110.964 50.8385 109.84 52.2493C108.716 53.66 104.771 52.0388 104.771 52.0388C104.771 52.0388 103.154 54.7839 102.662 55.6973C102.169 56.6107 103.14 62.1007 102.446 64.5636C101.753 67.0265 100.127 64.3532 97.0281 60.4843C93.9292 56.6155 92.5232 53.4448 92.6667 52.388C92.8102 51.3311 95.2682 48.8682 95.6939 47.9548C96.1195 47.0414 96.3251 46.6158 96.1147 45.7741C95.9043 44.9324 93.4414 41.47 93.4414 37.0465C93.4414 32.6229 96.9564 28.3905 101.605 28.0367C103.526 27.9105 105.455 28.111 107.31 28.6297Z" fill="white"/>
<mask id="mask3_159_151" style="mask-type:luminance" maskUnits="userSpaceOnUse" x="92" y="28" width="23" height="38">
<path d="M107.31 28.6297C109.427 29.1908 111.297 30.4389 112.628 32.1781C113.53 33.3329 114.142 34.6877 114.412 36.1283C115.048 40.0019 112.867 41.1975 113.57 42.9573C114.273 44.7172 114.976 45.6306 114.412 46.4771C113.847 47.3235 112.092 47.4622 111.81 47.534C111.528 47.6057 110.964 50.8385 109.84 52.2493C108.716 53.66 104.771 52.0388 104.771 52.0388C104.771 52.0388 103.154 54.7839 102.662 55.6973C102.169 56.6107 103.14 62.1007 102.446 64.5636C101.753 67.0265 100.127 64.3532 97.0281 60.4843C93.9292 56.6155 92.5232 53.4448 92.6667 52.388C92.8102 51.3311 95.2682 48.8682 95.6939 47.9548C96.1195 47.0414 96.3251 46.6158 96.1147 45.7741C95.9043 44.9324 93.4414 41.47 93.4414 37.0465C93.4414 32.6229 96.9564 28.3905 101.605 28.0367C103.526 27.9105 105.455 28.111 107.31 28.6297Z" fill="white"/>
</mask>
<g mask="url(#mask3_159_151)">
<path opacity="0.15" d="M107.31 28.6297C109.427 29.1908 111.297 30.4389 112.628 32.1781C113.53 33.3329 114.142 34.6877 114.412 36.1283C115.048 40.0019 112.867 41.1975 113.57 42.9573C114.273 44.7172 114.976 45.6306 114.412 46.4771C113.847 47.3235 112.092 47.4622 111.81 47.534C111.528 47.6057 110.964 50.8385 109.84 52.2493C108.716 53.66 104.771 52.0388 104.771 52.0388C104.771 52.0388 103.154 54.7839 102.662 55.6973C102.169 56.6107 103.14 62.1007 102.446 64.5636C101.753 67.0265 100.127 64.3532 97.0281 60.4843C93.9292 56.6155 92.5232 53.4448 92.6667 52.388C92.8102 51.3311 95.2682 48.8682 95.6939 47.9548C96.1195 47.0414 96.3251 46.6158 96.1147 45.7741C95.9043 44.9324 93.4414 41.47 93.4414 37.0465C93.4414 32.6229 96.9564 28.3905 101.605 28.0367C103.526 27.9105 105.455 28.111 107.31 28.6297Z" fill="black"/>
</g>
<path d="M107.31 28.6297C109.427 29.1908 111.297 30.4389 112.628 32.1781C113.53 33.3329 114.142 34.6877 114.412 36.1283C115.048 40.0019 112.867 41.1975 113.57 42.9573C114.273 44.7172 114.976 45.6306 114.412 46.4771C113.847 47.3235 112.092 47.4622 111.81 47.534C111.528 47.6057 110.964 50.8385 109.84 52.2493C108.716 53.66 104.771 52.0388 104.771 52.0388C104.771 52.0388 103.154 54.7839 102.662 55.6973C102.169 56.6107 103.14 62.1007 102.446 64.5636C101.753 67.0265 100.127 64.3532 97.0281 60.4843C93.9292 56.6155 92.5232 53.4448 92.6667 52.388C92.8102 51.3311 95.2682 48.8682 95.6939 47.9548C96.1195 47.0414 96.3251 46.6158 96.1147 45.7741C95.9043 44.9324 93.4414 41.47 93.4414 37.0465C93.4414 32.6229 96.9564 28.3905 101.605 28.0367C103.526 27.9105 105.455 28.111 107.31 28.6297Z" stroke="#263238" stroke-width="0.436267" stroke-linecap="round" stroke-linejoin="round"/>
<path d="M108.152 31.8386C109.845 31.0065 111.045 31.0304 111.829 31.2647C110.583 30.0007 109.024 29.0912 107.31 28.6297C105.455 28.111 103.526 27.9105 101.605 28.0367C96.9564 28.3905 93.4414 32.6133 93.4414 37.0465C93.4414 41.4796 95.9043 44.9276 96.1147 45.7741C96.1901 46.0529 96.208 46.3442 96.1673 46.6301C99.5149 47.2948 100.61 45.621 100.61 45.621C100.223 45.6697 99.8295 45.6388 99.4546 45.5303C99.0796 45.4217 98.7307 45.2378 98.4293 44.9898C97.4394 44.1433 97.4394 40.9057 98.6397 39.428C99.8401 37.9503 101.031 39.9923 101.031 41.1879C101.031 42.3835 101.595 43.3686 102.159 43.2299C102.724 43.0912 102.58 41.7522 102.791 40.9057C103.001 40.0593 105.464 38.7968 106.028 38.0938C106.593 37.3908 105.746 36.7547 104.833 35.7026C103.919 34.6505 104.699 33.5267 108.152 31.8386Z" fill="#263238" stroke="#263238" stroke-width="0.436267" stroke-linecap="round" stroke-linejoin="round"/>
<path d="M100.471 45.841C100.471 45.841 100.471 47.8161 101.672 49.0786" stroke="#263238" stroke-width="0.436267" stroke-linecap="round" stroke-linejoin="round"/>
<path d="M111.432 42.2782C110.837 42.026 110.187 41.9289 109.543 41.9961" stroke="#263238" stroke-width="0.436267" stroke-linecap="round" stroke-linejoin="round"/>
<path d="M112.47 40.5805C112.47 40.5805 111.432 38.7871 109.448 40.2027" stroke="#263238" stroke-width="0.436267" stroke-linecap="round" stroke-linejoin="round"/>
<path d="M110.036 48.5095C109.605 48.5466 109.173 48.4362 108.813 48.1964C108.452 47.9567 108.184 47.6017 108.051 47.1896" stroke="#263238" stroke-width="0.436267" stroke-linecap="round" stroke-linejoin="round"/>
<path d="M96.3829 68.9298L95.4838 67.0169C89.7021 67.1173 86.3162 69.2741 84.4033 71.3209C84.6098 72.0016 84.8688 72.6651 85.178 73.3056C86.6845 71.3496 89.9125 68.7911 96.3829 68.9298Z" fill="#263238"/>
<path d="M98.3863 73.1334L97.4873 71.2492C92.1168 71.5361 88.5062 73.516 86.292 75.3332C86.6268 75.888 86.9854 76.4331 87.3441 76.964C89.3861 75.2424 92.9393 73.2338 98.3863 73.1334Z" fill="#263238"/>
<path d="M160.637 85.9116C161.24 87.7146 161.641 94.1276 161.641 97.5373C161.641 100.378 159.824 121.037 159.222 127.776H186.394C186.72 121.2 187.69 101.44 187.69 98.9385C187.69 95.9305 186.686 83.6066 187.992 79.2978C189.297 74.9889 190.794 63.6693 188.47 60.1687C186.146 56.6681 177.471 54.6595 174.845 53.7557C172.22 52.8518 168.332 52.3545 166.428 53.2775C166.428 53.2775 161.221 56.1851 158.012 59.1883C154.803 62.1916 153.406 66.8065 154.004 70.5127C154.602 74.219 160.035 84.1087 160.637 85.9116Z" fill="white" stroke="#263238" stroke-width="0.436267" stroke-linecap="round" stroke-linejoin="round"/>
<path d="M184.247 57.0124C183.076 56.4715 181.877 55.9926 180.656 55.5777C176.232 66.8613 169.273 76.9765 160.317 85.1417C160.465 85.4716 160.575 85.7394 160.637 85.9212C160.939 87.0937 161.134 88.2909 161.221 89.4983C171.453 80.7295 179.362 69.5709 184.247 57.0124Z" fill="#263238"/>
<path d="M189.546 70.0632C189.78 67.675 189.735 65.2676 189.412 62.8898C183.831 72.3156 174.18 86.6911 161.631 97.9438C161.598 98.9337 161.474 100.866 161.287 103.314C173.501 93.2046 183.161 80.1346 189.546 70.0632Z" fill="#263238"/>
<path d="M186.395 127.776C186.624 123.094 187.184 111.736 187.485 104.672C174.262 107.202 164.965 104.797 161.273 103.501C160.709 110.947 159.652 122.941 159.222 127.776H186.395Z" fill="#263238" stroke="#263238" stroke-width="0.436267" stroke-linecap="round" stroke-linejoin="round"/>
<path d="M169.852 65.2044C173.481 65.2044 176.423 62.3589 176.423 58.8488C176.423 55.3387 173.481 52.4932 169.852 52.4932C166.223 52.4932 163.281 55.3387 163.281 58.8488C163.281 62.3589 166.223 65.2044 169.852 65.2044Z" fill="#6EAA78" stroke="#263238" stroke-width="0.436267" stroke-linecap="round" stroke-linejoin="round"/>
<path d="M163.846 50.8433C163.846 50.8433 164.946 54.7504 164.946 57.0602C164.946 59.37 167.452 64.6784 171.56 62.2729C175.668 59.8674 173.564 54.3582 172.861 52.651C172.362 51.3467 171.961 50.0072 171.66 48.6434C171.66 48.6434 170.355 51.0346 167.835 51.1493C166.497 51.2291 165.156 51.1261 163.846 50.8433Z" fill="white" stroke="#263238" stroke-width="0.436267" stroke-linecap="round" stroke-linejoin="round"/>
<path d="M157.07 36.6591C157.07 36.6591 156.376 38.3855 157.242 39.7676C158.107 41.1496 159.293 43.0434 159.293 43.0434L159.121 35.454C159.121 35.454 157.414 34.0719 157.07 36.6591Z" fill="#263238" stroke="#263238" stroke-width="0.436267" stroke-linecap="round" stroke-linejoin="round"/>
<path d="M159.293 41.317C159.293 41.317 157.911 41.8383 158.6 44.0764C159.289 46.3145 160.326 45.6306 160.326 45.6306L159.293 41.317Z" fill="white" stroke="#263238" stroke-width="0.436267" stroke-linecap="round" stroke-linejoin="round"/>
<path d="M158.031 37.4195C158.031 37.4195 159.236 43.6364 159.943 46.7353C160.651 49.8342 164.453 52.6462 166.457 53.2488C168.461 53.8513 171.067 51.6467 171.67 50.3459C172.272 49.0452 172.569 46.1375 172.569 46.1375C172.569 46.1375 174.773 45.2337 174.96 42.9286C175.146 40.6236 174.558 39.9254 173.358 39.6241L172.454 39.2224C172.454 39.2224 172.956 35.5161 171.655 33.2111C170.354 30.906 165.744 33.9141 163.339 34.6123C160.933 35.3105 157.729 35.1144 158.031 37.4195Z" fill="white" stroke="#263238" stroke-width="0.436267" stroke-linecap="round" stroke-linejoin="round"/>
<path d="M163.846 41.9291C163.846 41.9291 163.367 45.535 164.042 45.8362C164.716 46.1375 166.046 45.4345 166.347 45.3341" stroke="#263238" stroke-width="0.436267" stroke-linecap="round" stroke-linejoin="round"/>
<path d="M165.75 48.0648C165.75 48.0648 168.552 48.4665 169.657 45.2576" stroke="#263238" stroke-width="0.436267" stroke-linecap="round" stroke-linejoin="round"/>
<path d="M160.436 41.1257C160.659 40.78 160.974 40.5034 161.346 40.3269C161.718 40.1503 162.131 40.0808 162.54 40.1262" stroke="#263238" stroke-width="0.436267" stroke-linecap="round" stroke-linejoin="round"/>
<path d="M165.248 39.6241C165.248 39.6241 167.251 38.6198 168.452 39.7245" stroke="#263238" stroke-width="0.436267" stroke-linecap="round" stroke-linejoin="round"/>
<path d="M162.303 43.7275C162.576 43.68 162.72 43.1985 162.625 42.6521C162.53 42.1056 162.232 41.7011 161.959 41.7486C161.685 41.7961 161.541 42.2776 161.636 42.824C161.731 43.3705 162.029 43.775 162.303 43.7275Z" fill="#263238"/>
<path d="M166.713 42.828C166.986 42.7805 167.13 42.299 167.035 41.7525C166.94 41.2061 166.642 40.8016 166.369 40.8491C166.096 40.8966 165.951 41.378 166.046 41.9245C166.141 42.471 166.439 42.8754 166.713 42.828Z" fill="#263238"/>
<path d="M169.456 34.7127C166.797 35.9607 164.007 36.9102 161.139 37.5438C156.73 38.4428 154.726 37.4433 154.922 35.2387C155.118 33.0341 160.833 28.2231 166.041 28.2231C171.249 28.2231 173.057 30.6143 173.358 33.1345C173.522 35.3026 173.522 37.4799 173.358 39.648L172.454 40.9488C172.454 40.9488 172.684 39.9349 171.249 39.1219C169.814 38.3089 168.753 36.8169 169.456 34.7127Z" fill="#263238" stroke="#263238" stroke-width="0.436267" stroke-linecap="round" stroke-linejoin="round"/>
<path d="M197.341 41.8765C198.322 42.6273 197.169 45.7645 200.402 48.28C207.843 54.0665 212.147 57.9832 212.941 66.5817C213.811 75.9549 208.776 79.599 210.339 82.7218C211.903 85.8447 213.983 89.4887 210.684 92.2864C207.384 95.084 202.009 97.4943 197.499 90.8995C192.989 84.3048 190.555 69.7284 188.647 61.7277C186.739 53.727 183.616 49.9298 184.133 46.4579C184.639 43.1103 187.37 40.7192 190.636 40.1405C191.813 39.9349 193.02 39.9835 194.177 40.2829C195.333 40.5823 196.412 41.1257 197.341 41.8765Z" fill="#263238" stroke="#263238" stroke-width="0.436267" stroke-linecap="round" stroke-linejoin="round"/>
<path d="M188.379 75.1945L174.472 85.3664C174.472 85.3664 152.201 93.3241 150.89 93.7306C149.58 94.1371 143.334 95.2418 142.024 95.9448C140.714 96.6478 138.198 101.287 137.792 102.396C137.707 102.551 137.675 102.729 137.7 102.904C137.725 103.079 137.807 103.241 137.931 103.366C138.056 103.491 138.218 103.572 138.393 103.597C138.568 103.622 138.746 103.59 138.901 103.506C139.202 103.199 142.124 100.378 143.033 100.278C143.942 100.177 144.745 100.077 144.745 100.077C144.745 100.077 142.426 102.095 142.325 102.697C142.225 103.3 142.732 103.099 143.334 102.798C143.937 102.496 146.256 101.688 147.16 100.077C148.064 98.465 148.872 97.5564 150.383 96.9539C151.895 96.3513 171.617 92.0759 175.146 91.4734C178.675 90.8708 191.372 83.2431 191.98 83.1427C192.587 83.0422 190.296 75.1945 188.379 75.1945Z" fill="white" stroke="#263238" stroke-width="0.436267" stroke-linecap="round" stroke-linejoin="round"/>
<path d="M185.663 88.2023C185.787 88.5753 185.414 93.8215 185.16 102.941C184.969 109.938 183.31 122.372 182.545 127.776H209.129C209.32 122.295 209.56 109.761 208.02 104.562C206.021 97.8195 203.773 96.4326 203.027 93.4485C202.281 90.4643 201.152 73.9607 199.278 67.7151C197.403 61.4694 191.784 57.7202 190.909 56.3476C190.034 54.9751 187.284 46.9792 187.284 46.9792L182.54 50.9772C182.54 50.9772 186.036 56.5963 186.538 58.3466C187.04 60.0969 183.161 64.2145 181.167 68.4659C179.173 72.7173 178.776 76.0841 180.541 78.7047C182.305 81.3254 185.538 87.8245 185.663 88.2023Z" fill="#6EAA78"/>
<mask id="mask4_159_151" style="mask-type:luminance" maskUnits="userSpaceOnUse" x="179" y="46" width="31" height="82">
<path d="M185.663 88.2023C185.787 88.5753 185.414 93.8215 185.16 102.941C184.969 109.938 183.31 122.372 182.545 127.776H209.129C209.32 122.295 209.56 109.761 208.02 104.562C206.021 97.8195 203.773 96.4326 203.027 93.4485C202.281 90.4643 201.152 73.9607 199.278 67.7151C197.403 61.4694 191.784 57.7202 190.909 56.3476C190.034 54.9751 187.284 46.9792 187.284 46.9792L182.54 50.9772C182.54 50.9772 186.036 56.5963 186.538 58.3466C187.04 60.0969 183.161 64.2145 181.167 68.4659C179.173 72.7173 178.776 76.0841 180.541 78.7047C182.305 81.3254 185.538 87.8245 185.663 88.2023Z" fill="white"/>
</mask>
<g mask="url(#mask4_159_151)">
<path d="M189.727 113.869L194.084 114.825L198.44 113.869L202.797 114.825L207.154 113.869L209.172 114.309L209.129 113.323L207.154 112.888L202.797 113.845L198.44 112.888L194.084 113.845L189.727 112.888L185.375 113.845L184.328 113.615C184.294 113.936 184.261 114.251 184.223 114.572L185.375 114.825L189.727 113.869Z" fill="white"/>
<path d="M194.538 81.1389L190.182 82.0954L185.825 81.1389L182.42 81.8849L182.898 82.7601L185.83 82.1193L190.186 83.0757L194.543 82.1193L198.9 83.0757L201.654 82.4684C201.616 82.1528 201.582 81.8323 201.544 81.5119L198.9 82.0954L194.538 81.1389Z" fill="white"/>
<path d="M189.728 121.152L194.084 122.109L198.441 121.152L202.798 122.109L207.154 121.152L209.263 121.63C209.263 121.31 209.263 120.985 209.263 120.674L207.149 120.196L202.793 121.152L198.436 120.196L194.079 121.152L189.723 120.196L185.371 121.152L183.487 120.736C183.448 121.061 183.405 121.377 183.367 121.692L185.371 122.132L189.728 121.152Z" fill="white"/>
<path d="M209.224 124.275L207.154 123.821L202.797 124.777L198.44 123.821L194.084 124.777L189.727 123.821L185.375 124.777L183.027 124.261C182.984 124.586 182.941 124.906 182.903 125.217L185.375 125.757L189.727 124.801L194.084 125.757L198.44 124.801L202.797 125.757L207.154 124.801L209.205 125.255C209.21 124.935 209.22 124.61 209.224 124.275Z" fill="white"/>
<path d="M179.891 71.7991L181.469 72.1435L185.825 71.187L190.182 72.1435L194.539 71.187L198.895 72.1435L200.201 71.8565C200.144 71.5361 200.086 71.2205 200.029 70.9001L198.895 71.1487L194.539 70.1923L190.182 71.1487L185.825 70.1923L181.469 71.1487L180.178 70.8666C180.072 71.1886 179.977 71.4995 179.891 71.7991Z" fill="white"/>
<path d="M194.539 73.8507L190.182 74.8072L185.825 73.8507L181.469 74.8072L179.441 74.3624C179.422 74.6889 179.422 75.0163 179.441 75.3428L181.469 75.7875L185.825 74.8311L190.182 75.7875L194.539 74.8311L198.895 75.7875L200.76 75.3763C200.713 75.0559 200.67 74.7402 200.622 74.4198L198.895 74.7976L194.539 73.8507Z" fill="white"/>
<path d="M194.538 77.4948L190.182 78.4513L185.825 77.4948L181.468 78.4513L180.225 78.1787C180.321 78.3556 180.426 78.5326 180.541 78.7048C180.656 78.8769 180.794 79.0921 180.928 79.3121L181.468 79.4317L185.825 78.4752L190.182 79.4317L194.538 78.4752L198.895 79.4317L201.229 78.9199C201.191 78.5995 201.148 78.2839 201.109 77.9635L198.895 78.4417L194.538 77.4948Z" fill="white"/>
<path d="M189.727 117.513L194.084 118.469L198.441 117.513L202.797 118.469L207.154 117.513L209.258 117.991V117.011L207.168 116.532L202.812 117.489L198.455 116.532L194.098 117.489L189.742 116.532L185.39 117.489L183.955 117.169L183.84 118.125L185.404 118.469L189.727 117.513Z" fill="white"/>
</g>
<path d="M185.663 88.2023C185.787 88.5753 185.414 93.8215 185.16 102.941C184.969 109.938 183.31 122.372 182.545 127.776H209.129C209.32 122.295 209.56 109.761 208.02 104.562C206.021 97.8195 203.773 96.4326 203.027 93.4485C202.281 90.4643 201.152 73.9607 199.278 67.7151C197.403 61.4694 191.784 57.7202 190.909 56.3476C190.034 54.9751 187.284 46.9792 187.284 46.9792L182.54 50.9772C182.54 50.9772 186.036 56.5963 186.538 58.3466C187.04 60.0969 183.161 64.2145 181.167 68.4659C179.173 72.7173 178.776 76.0841 180.541 78.7047C182.305 81.3254 185.538 87.8245 185.663 88.2023Z" stroke="#263238" stroke-width="0.436267" stroke-linecap="round" stroke-linejoin="round"/>
<path d="M182.535 80.1346C182.535 80.1346 184.142 83.3531 189.508 82.1002" stroke="#263238" stroke-width="0.436267" stroke-linecap="round" stroke-linejoin="round"/>
<path d="M197.193 100.871C197.193 100.871 189.149 110.703 185.572 118.565" stroke="#263238" stroke-width="0.436267" stroke-linecap="round" stroke-linejoin="round"/>
<path d="M188.613 108.919C188.613 108.919 185.213 115.174 184.309 119.105" stroke="#263238" stroke-width="0.436267" stroke-linecap="round" stroke-linejoin="round"/>
<path d="M184.07 67.4951C186.667 66.0604 189.981 59.8435 191.425 58.6957L192.411 57.9067C191.86 57.4373 191.357 56.9152 190.909 56.3476C190.034 54.9751 187.284 46.9792 187.284 46.9792L182.54 50.9772C182.54 50.9772 186.036 56.5963 186.538 58.3466C186.978 59.8913 184.008 63.2915 181.933 66.9882C182.177 67.6721 182.75 68.2268 184.07 67.4951Z" fill="white" stroke="#263238" stroke-width="0.436267" stroke-linecap="round" stroke-linejoin="round"/>
<path d="M178.35 37.362C177.796 38.675 177.52 40.0882 177.537 41.513C177.623 42.7756 177.896 43.775 177.389 45.0232C177.093 45.7406 176.088 46.654 176.227 47.4813C176.351 48.2273 178.226 48.4808 178.226 48.4808C178.226 48.4808 180.101 54.3486 181.095 54.473C182.09 54.5973 184.342 53.9947 187.212 51.6036C190.081 49.2125 186.59 40.6044 184.089 38.3615C181.588 36.1186 179.598 35.8604 178.35 37.362Z" fill="white" stroke="#263238" stroke-width="0.436267" stroke-linecap="round" stroke-linejoin="round"/>
<path d="M179.202 45.1906C179.382 45.1906 179.527 44.7796 179.527 44.2724C179.527 43.7653 179.382 43.3542 179.202 43.3542C179.023 43.3542 178.877 43.7653 178.877 44.2724C178.877 44.7796 179.023 45.1906 179.202 45.1906Z" fill="#263238"/>
<path d="M178.336 42.1635C178.336 42.1635 178.662 40.8627 179.962 41.8383" stroke="#263238" stroke-width="0.436267" stroke-linecap="round" stroke-linejoin="round"/>
<path d="M178.986 49.7386C178.986 49.7386 179.852 49.9585 180.828 48.7821" stroke="#263238" stroke-width="0.436267" stroke-linecap="round" stroke-linejoin="round"/>
<path d="M181.1 30.7386C181.1 30.7386 176.476 30.8678 175.725 33.8615C174.974 36.8552 178.35 39.4854 180.722 40.7336C183.094 41.9817 185.218 43.9807 185.218 46.1041C185.218 48.2274 185.347 50.7285 187.092 52.9762C188.838 55.2238 192.831 57.0985 195.963 56.9741C199.096 56.8498 195.715 49.4995 197.46 44.239C199.206 38.9785 196.982 33.7467 193.462 31.499C189.943 29.2514 181.1 30.7386 181.1 30.7386Z" fill="#263238" stroke="#263238" stroke-width="0.436267" stroke-linecap="round" stroke-linejoin="round"/>
<path d="M209.335 76.0936C209.293 76.7489 209.191 77.3989 209.029 78.0352" stroke="white" stroke-width="0.436267" stroke-linecap="round" stroke-linejoin="round"/>
<path d="M180.039 38.5002C180.9 39.9349 182.531 41.4652 185.596 42.3261C192.291 44.239 194.84 48.8634 194.84 52.847C194.84 56.8307 195.161 59.7 201.535 62.8898C203.415 63.8297 205.062 65.1753 206.358 66.8293C207.654 68.4834 208.566 70.4047 209.029 72.4543" stroke="white" stroke-width="0.436267" stroke-linecap="round" stroke-linejoin="round"/>
<path d="M179.058 35.3105C179.059 35.5882 179.087 35.8652 179.139 36.1378" stroke="white" stroke-width="0.436267" stroke-linecap="round" stroke-linejoin="round"/>
<path d="M187.987 35.3105C187.987 35.3105 195.959 39.2989 195.796 44.7172C195.634 50.1355 196.117 55.2382 201.057 58.2654C205.997 61.2925 211.1 63.2102 212.855 69.2646" stroke="white" stroke-width="0.436267" stroke-linecap="round" stroke-linejoin="round"/>
<path d="M192.434 64.3245C192.434 64.3245 190.316 65.1279 189.211 69.2598C188.106 73.3917 192.635 80.6463 193.343 83.8744C194.051 87.1024 194.754 92.0329 194.754 92.0329C194.754 92.0329 178.929 104.945 176.615 106.949C174.3 108.953 173.085 110.272 173.085 110.272C173.085 110.272 167.347 115.313 166.84 116.322C166.333 117.331 164.927 122.568 165.429 122.769C165.931 122.969 166.84 120.755 166.84 120.353C166.84 119.952 167.844 117.733 167.844 117.733C167.844 117.733 167.041 122.859 167.041 123.146C167.041 123.433 167.844 123.146 167.944 122.74C168.045 122.333 169.154 118.106 169.154 118.106C169.154 118.106 168.552 122.84 168.953 123.366C169.355 123.892 170.063 120.344 170.063 120.344L170.866 117.522C170.866 117.522 170.666 122.458 171.072 122.659C171.479 122.859 172.382 117.824 172.382 117.824C172.382 117.824 174.195 114.194 174.898 112.984C175.299 112.326 175.605 111.614 175.806 110.87C175.806 110.87 185.18 105.729 191.024 102.908C196.868 100.086 201.808 94.8449 202.41 93.941C203.013 93.0372 201.702 80.3355 200.698 74.8933C199.694 69.4511 197.575 62.8898 192.434 64.3245Z" fill="white" stroke="#263238" stroke-width="0.436267" stroke-linecap="round" stroke-linejoin="round"/>
<path d="M189.211 69.2598C190.316 65.1279 192.434 64.3245 192.434 64.3245C197.575 62.8898 199.694 69.4511 200.698 74.8933C201.703 80.3355 203.013 93.0372 202.41 93.941C201.808 94.8449 196.868 100.086 191.024 102.908C185.18 105.729 175.807 110.87 175.807 110.87L173.085 110.272C173.085 110.272 174.3 108.953 176.615 106.949C178.929 104.945 194.754 92.0329 194.754 92.0329C194.754 92.0329 194.051 87.1024 193.343 83.8744C192.635 80.6463 188.107 73.3917 189.211 69.2598Z" fill="#6EAA78" stroke="#263238" stroke-width="0.3" stroke-linecap="round" stroke-linejoin="round"/>
<path d="M159.695 57.8301C159.695 57.8301 156.09 60.2834 153.206 62.6124C150.322 64.9414 150.753 69.5371 150.753 70.5462C150.753 71.5552 150.609 76.1701 150.609 76.1701L148.443 80.785C148.443 80.785 145.129 83.817 144.406 84.5391C143.684 85.2612 139.505 93.4771 139.505 93.4771L138.496 94.9118L143.99 95.6196C146.042 93.332 148.311 91.2499 150.767 89.4027C154.358 86.8011 157.381 79.6277 157.529 78.743C158.138 76.3263 158.568 73.8679 158.815 71.3879" fill="white"/>
<path d="M159.695 57.8301C159.695 57.8301 156.09 60.2834 153.206 62.6124C150.322 64.9414 150.753 69.5371 150.753 70.5462C150.753 71.5552 150.609 76.1701 150.609 76.1701L148.443 80.785C148.443 80.785 145.129 83.817 144.406 84.5391C143.684 85.2612 139.505 93.4771 139.505 93.4771L138.496 94.9118L143.99 95.6196C146.042 93.332 148.311 91.2499 150.767 89.4027C154.358 86.8011 157.381 79.6277 157.529 78.743C158.138 76.3263 158.568 73.8679 158.815 71.3879" stroke="#263238" stroke-width="0.436267" stroke-linecap="round" stroke-linejoin="round"/>
<path d="M157.859 77.2031C155.434 73.2243 152.12 73.7408 150.647 74.2381C150.613 75.2902 150.59 76.151 150.59 76.151L148.423 80.7659C148.423 80.7659 145.109 83.7979 144.387 84.52C143.665 85.2421 139.485 93.458 139.485 93.458L138.476 94.8927L143.99 95.6196C146.041 93.3321 148.311 91.2499 150.766 89.4027C154.358 86.8011 157.38 79.6277 157.529 78.743C157.581 78.4513 157.715 77.9157 157.859 77.2031Z" fill="white" stroke="#263238" stroke-width="0.436267" stroke-linecap="round" stroke-linejoin="round"/>
<path d="M141.56 91.5834C141.56 91.5834 137.979 94.5101 137.256 95.4379C136.534 96.3656 135.97 101.822 136.257 102.219C136.544 102.616 138.548 103.683 139.408 102.75C140.269 101.817 143.421 97.3221 143.421 97.3221C143.421 97.3221 141.03 100.555 142.737 100.373C144.444 100.191 145.425 97.5612 146.429 96.3656C147.433 95.1701 147.29 95.0362 146.429 93.3098L145.573 91.5834" fill="white"/>
<path d="M141.56 91.5834C141.56 91.5834 137.979 94.5101 137.256 95.4379C136.534 96.3656 135.97 101.822 136.257 102.219C136.544 102.616 138.548 103.683 139.408 102.75C140.269 101.817 143.421 97.3221 143.421 97.3221C143.421 97.3221 141.03 100.555 142.737 100.373C144.444 100.191 145.425 97.5612 146.429 96.3656C147.433 95.1701 147.29 95.0362 146.429 93.3098L145.573 91.5834" stroke="#263238" stroke-width="0.436267" stroke-linecap="round" stroke-linejoin="round"/>
<path d="M136.262 102.214C136.262 102.214 138.084 95.9974 138.811 95.5192" stroke="#263238" stroke-width="0.436267" stroke-linecap="round" stroke-linejoin="round"/>
<path d="M137.118 102.669C137.118 102.669 139.231 96.8248 140.322 95.6148" stroke="#263238" stroke-width="0.436267" stroke-linecap="round" stroke-linejoin="round"/>
<path d="M138.251 103.085C138.251 103.085 140.542 97.346 142.044 95.9544" stroke="#263238" stroke-width="0.436267" stroke-linecap="round" stroke-linejoin="round"/>
<path d="M143.421 97.3221C143.421 97.3221 144.64 96.2413 144.827 95.5909L143.421 97.3221Z" fill="white"/>
<path d="M143.421 97.3221C143.421 97.3221 144.64 96.2413 144.827 95.5909" stroke="#263238" stroke-width="0.436267" stroke-linecap="round" stroke-linejoin="round"/>
</svg>
